<?xml version="1.0" encoding="UTF-8" standalone="no"?>
<!DOCTYPE svg PUBLIC "-//W3C//DTD SVG 1.1//EN"
 "http://www.w3.org/Graphics/SVG/1.1/DTD/svg11.dtd">
<!-- Generated by graphviz version 5.0.0 (20220707.1540)
 -->
<!-- Title: dependencies Pages: 1 -->
<svg width="603pt" height="174pt"
 viewBox="0.00 0.00 603.00 173.80" xmlns="http://www.w3.org/2000/svg" xmlns:xlink="http://www.w3.org/1999/xlink">
<g id="graph0" class="graph" transform="scale(1 1) rotate(0) translate(4 169.8)">
<title>dependencies</title>
<polygon fill="white" stroke="transparent" points="-4,4 -4,-169.8 599,-169.8 599,4 -4,4"/>
<text text-anchor="middle" x="297.5" y="-8.2" font-family="sans-serif" font-size="14.00">dependencies</text>
<g id="clust1" class="cluster">
<title>cluster_AuthModule</title>
<polygon fill="none" stroke="black" stroke-dasharray="1,5" points="8,-32.8 8,-157.8 587,-157.8 587,-32.8 8,-32.8"/>
</g>
<g id="clust2" class="cluster">
<title>cluster_AuthModule_declarations</title>
<polygon fill="none" stroke="black" points="289,-40.8 289,-92.8 579,-92.8 579,-40.8 289,-40.8"/>
</g>
<g id="clust6" class="cluster">
<title>cluster_AuthModule_imports</title>
<polygon fill="none" stroke="black" points="16,-40.8 16,-92.8 281,-92.8 281,-40.8 16,-40.8"/>
</g>
<!-- AuthPage -->
<g id="node1" class="node">
<title>AuthPage</title>
<polygon fill="#ffffb3" stroke="black" points="570.71,-84.8 499.29,-84.8 499.29,-48.8 570.71,-48.8 570.71,-84.8"/>
<text text-anchor="middle" x="535" y="-62.6" font-family="Times,serif" font-size="14.00">AuthPage</text>
</g>
<!-- AuthModule -->
<g id="node4" class="node">
<title>AuthModule</title>
<polygon fill="#8dd3c7" stroke="black" points="385.55,-149.8 382.55,-153.8 361.55,-153.8 358.55,-149.8 298.45,-149.8 298.45,-113.8 385.55,-113.8 385.55,-149.8"/>
<text text-anchor="middle" x="342" y="-127.6" font-family="Times,serif" font-size="14.00">AuthModule</text>
</g>
<!-- AuthPage&#45;&gt;AuthModule -->
<g id="edge1" class="edge">
<title>AuthPage&#45;&gt;AuthModule</title>
<path fill="none" stroke="black" d="M535,-85.08C535,-106.12 535,-137.8 535,-137.8 535,-137.8 395.79,-137.8 395.79,-137.8"/>
<polygon fill="black" stroke="black" points="395.79,-134.3 385.79,-137.8 395.79,-141.3 395.79,-134.3"/>
</g>
<!-- LoginPage -->
<g id="node2" class="node">
<title>LoginPage</title>
<polygon fill="#ffffb3" stroke="black" points="481.16,-84.8 404.84,-84.8 404.84,-48.8 481.16,-48.8 481.16,-84.8"/>
<text text-anchor="middle" x="443" y="-62.6" font-family="Times,serif" font-size="14.00">LoginPage</text>
</g>
<!-- LoginPage&#45;&gt;AuthModule -->
<g id="edge2" class="edge">
<title>LoginPage&#45;&gt;AuthModule</title>
<path fill="none" stroke="black" d="M443,-84.82C443,-102.17 443,-125.8 443,-125.8 443,-125.8 395.71,-125.8 395.71,-125.8"/>
<polygon fill="black" stroke="black" points="395.71,-122.3 385.71,-125.8 395.71,-129.3 395.71,-122.3"/>
</g>
<!-- RegisterPage -->
<g id="node3" class="node">
<title>RegisterPage</title>
<polygon fill="#ffffb3" stroke="black" points="386.87,-84.8 297.13,-84.8 297.13,-48.8 386.87,-48.8 386.87,-84.8"/>
<text text-anchor="middle" x="342" y="-62.6" font-family="Times,serif" font-size="14.00">RegisterPage</text>
</g>
<!-- RegisterPage&#45;&gt;AuthModule -->
<g id="edge3" class="edge">
<title>RegisterPage&#45;&gt;AuthModule</title>
<path fill="none" stroke="black" d="M342,-84.91C342,-84.91 342,-103.79 342,-103.79"/>
<polygon fill="black" stroke="black" points="338.5,-103.79 342,-113.79 345.5,-103.79 338.5,-103.79"/>
</g>
<!-- AuthRoutingModule -->
<g id="node5" class="node">
<title>AuthRoutingModule</title>
<polygon fill="#8dd3c7" stroke="black" points="273.17,-84.8 270.17,-88.8 249.17,-88.8 246.17,-84.8 140.83,-84.8 140.83,-48.8 273.17,-48.8 273.17,-84.8"/>
<text text-anchor="middle" x="207" y="-62.6" font-family="Times,serif" font-size="14.00">AuthRoutingModule</text>
</g>
<!-- AuthRoutingModule&#45;&gt;AuthModule -->
<g id="edge4" class="edge">
<title>AuthRoutingModule&#45;&gt;AuthModule</title>
<path fill="none" stroke="black" d="M207,-84.82C207,-102.17 207,-125.8 207,-125.8 207,-125.8 288.17,-125.8 288.17,-125.8"/>
<polygon fill="black" stroke="black" points="288.17,-129.3 298.17,-125.8 288.17,-122.3 288.17,-129.3"/>
</g>
<!-- SharedModule -->
<g id="node6" class="node">
<title>SharedModule</title>
<polygon fill="#8dd3c7" stroke="black" points="122.43,-84.8 119.43,-88.8 98.43,-88.8 95.43,-84.8 23.57,-84.8 23.57,-48.8 122.43,-48.8 122.43,-84.8"/>
<text text-anchor="middle" x="73" y="-62.6" font-family="Times,serif" font-size="14.00">SharedModule</text>
</g>
<!-- SharedModule&#45;&gt;AuthModule -->
<g id="edge5" class="edge">
<title>SharedModule&#45;&gt;AuthModule</title>
<path fill="none" stroke="black" d="M73,-85.08C73,-106.12 73,-137.8 73,-137.8 73,-137.8 288.18,-137.8 288.18,-137.8"/>
<polygon fill="black" stroke="black" points="288.18,-141.3 298.18,-137.8 288.18,-134.3 288.18,-141.3"/>
</g>
</g>
</svg>
