<?xml version="1.0" encoding="UTF-8" standalone="no"?>
<!DOCTYPE svg PUBLIC "-//W3C//DTD SVG 1.1//EN"
 "http://www.w3.org/Graphics/SVG/1.1/DTD/svg11.dtd">
<!-- Generated by graphviz version 5.0.0 (20220707.1540)
 -->
<!-- Title: dependencies Pages: 1 -->
<svg width="1027pt" height="174pt"
 viewBox="0.00 0.00 1027.00 173.80" xmlns="http://www.w3.org/2000/svg" xmlns:xlink="http://www.w3.org/1999/xlink">
<g id="graph0" class="graph" transform="scale(1 1) rotate(0) translate(4 169.8)">
<title>dependencies</title>
<polygon fill="white" stroke="transparent" points="-4,4 -4,-169.8 1023,-169.8 1023,4 -4,4"/>
<text text-anchor="middle" x="509.5" y="-8.2" font-family="sans-serif" font-size="14.00">dependencies</text>
<g id="clust1" class="cluster">
<title>cluster_BouncyHouseModule</title>
<polygon fill="none" stroke="black" stroke-dasharray="1,5" points="8,-32.8 8,-157.8 1011,-157.8 1011,-32.8 8,-32.8"/>
</g>
<g id="clust7" class="cluster">
<title>cluster_BouncyHouseModule_imports</title>
<polygon fill="none" stroke="black" points="791,-40.8 791,-92.8 1003,-92.8 1003,-40.8 791,-40.8"/>
</g>
<g id="clust2" class="cluster">
<title>cluster_BouncyHouseModule_declarations</title>
<polygon fill="none" stroke="black" points="16,-40.8 16,-92.8 783,-92.8 783,-40.8 16,-40.8"/>
</g>
<!-- BouncyHouseFilterComponent -->
<g id="node1" class="node">
<title>BouncyHouseFilterComponent</title>
<polygon fill="#ffffb3" stroke="black" points="775.49,-84.8 584.51,-84.8 584.51,-48.8 775.49,-48.8 775.49,-84.8"/>
<text text-anchor="middle" x="680" y="-62.6" font-family="Times,serif" font-size="14.00">BouncyHouseFilterComponent</text>
</g>
<!-- BouncyHouseModule -->
<g id="node5" class="node">
<title>BouncyHouseModule</title>
<polygon fill="#8dd3c7" stroke="black" points="644.38,-149.8 641.38,-153.8 620.38,-153.8 617.38,-149.8 505.62,-149.8 505.62,-113.8 644.38,-113.8 644.38,-149.8"/>
<text text-anchor="middle" x="575" y="-127.6" font-family="Times,serif" font-size="14.00">BouncyHouseModule</text>
</g>
<!-- BouncyHouseFilterComponent&#45;&gt;BouncyHouseModule -->
<g id="edge1" class="edge">
<title>BouncyHouseFilterComponent&#45;&gt;BouncyHouseModule</title>
<path fill="none" stroke="black" d="M614.47,-84.91C614.47,-84.91 614.47,-103.79 614.47,-103.79"/>
<polygon fill="black" stroke="black" points="610.97,-103.79 614.47,-113.79 617.97,-103.79 610.97,-103.79"/>
</g>
<!-- BouncyHouseFormComponent -->
<g id="node2" class="node">
<title>BouncyHouseFormComponent</title>
<polygon fill="#ffffb3" stroke="black" points="566.49,-84.8 375.51,-84.8 375.51,-48.8 566.49,-48.8 566.49,-84.8"/>
<text text-anchor="middle" x="471" y="-62.6" font-family="Times,serif" font-size="14.00">BouncyHouseFormComponent</text>
</g>
<!-- BouncyHouseFormComponent&#45;&gt;BouncyHouseModule -->
<g id="edge2" class="edge">
<title>BouncyHouseFormComponent&#45;&gt;BouncyHouseModule</title>
<path fill="none" stroke="black" d="M536.03,-84.91C536.03,-84.91 536.03,-103.79 536.03,-103.79"/>
<polygon fill="black" stroke="black" points="532.53,-103.79 536.03,-113.79 539.53,-103.79 532.53,-103.79"/>
</g>
<!-- BouncyHousePage -->
<g id="node3" class="node">
<title>BouncyHousePage</title>
<polygon fill="#ffffb3" stroke="black" points="357.04,-84.8 234.96,-84.8 234.96,-48.8 357.04,-48.8 357.04,-84.8"/>
<text text-anchor="middle" x="296" y="-62.6" font-family="Times,serif" font-size="14.00">BouncyHousePage</text>
</g>
<!-- BouncyHousePage&#45;&gt;BouncyHouseModule -->
<g id="edge3" class="edge">
<title>BouncyHousePage&#45;&gt;BouncyHouseModule</title>
<path fill="none" stroke="black" d="M296,-84.82C296,-102.17 296,-125.8 296,-125.8 296,-125.8 495.32,-125.8 495.32,-125.8"/>
<polygon fill="black" stroke="black" points="495.32,-129.3 505.32,-125.8 495.32,-122.3 495.32,-129.3"/>
</g>
<!-- BouncyHouseTableComponent -->
<g id="node4" class="node">
<title>BouncyHouseTableComponent</title>
<polygon fill="#ffffb3" stroke="black" points="216.03,-84.8 23.97,-84.8 23.97,-48.8 216.03,-48.8 216.03,-84.8"/>
<text text-anchor="middle" x="120" y="-62.6" font-family="Times,serif" font-size="14.00">BouncyHouseTableComponent</text>
</g>
<!-- BouncyHouseTableComponent&#45;&gt;BouncyHouseModule -->
<g id="edge4" class="edge">
<title>BouncyHouseTableComponent&#45;&gt;BouncyHouseModule</title>
<path fill="none" stroke="black" d="M120,-85.08C120,-106.12 120,-137.8 120,-137.8 120,-137.8 495.4,-137.8 495.4,-137.8"/>
<polygon fill="black" stroke="black" points="495.4,-141.3 505.4,-137.8 495.4,-134.3 495.4,-141.3"/>
</g>
<!-- RouterLink -->
<g id="node6" class="node">
<title>RouterLink</title>
<polygon fill="#8dd3c7" stroke="black" points="995.05,-84.8 992.05,-88.8 971.05,-88.8 968.05,-84.8 914.95,-84.8 914.95,-48.8 995.05,-48.8 995.05,-84.8"/>
<text text-anchor="middle" x="955" y="-62.6" font-family="Times,serif" font-size="14.00">RouterLink</text>
</g>
<!-- RouterLink&#45;&gt;BouncyHouseModule -->
<g id="edge5" class="edge">
<title>RouterLink&#45;&gt;BouncyHouseModule</title>
<path fill="none" stroke="black" d="M955,-85.08C955,-106.12 955,-137.8 955,-137.8 955,-137.8 654.7,-137.8 654.7,-137.8"/>
<polygon fill="black" stroke="black" points="654.7,-134.3 644.7,-137.8 654.7,-141.3 654.7,-134.3"/>
</g>
<!-- SharedModule -->
<g id="node7" class="node">
<title>SharedModule</title>
<polygon fill="#8dd3c7" stroke="black" points="897.43,-84.8 894.43,-88.8 873.43,-88.8 870.43,-84.8 798.57,-84.8 798.57,-48.8 897.43,-48.8 897.43,-84.8"/>
<text text-anchor="middle" x="848" y="-62.6" font-family="Times,serif" font-size="14.00">SharedModule</text>
</g>
<!-- SharedModule&#45;&gt;BouncyHouseModule -->
<g id="edge6" class="edge">
<title>SharedModule&#45;&gt;BouncyHouseModule</title>
<path fill="none" stroke="black" d="M848,-84.82C848,-102.17 848,-125.8 848,-125.8 848,-125.8 654.6,-125.8 654.6,-125.8"/>
<polygon fill="black" stroke="black" points="654.6,-122.3 644.6,-125.8 654.6,-129.3 654.6,-122.3"/>
</g>
</g>
</svg>
