<?xml version="1.0" encoding="UTF-8" standalone="no"?>
<!DOCTYPE svg PUBLIC "-//W3C//DTD SVG 1.1//EN"
 "http://www.w3.org/Graphics/SVG/1.1/DTD/svg11.dtd">
<!-- Generated by graphviz version 5.0.0 (20220707.1540)
 -->
<!-- Title: dependencies Pages: 1 -->
<svg width="1027pt" height="174pt"
 viewBox="0.00 0.00 1027.00 173.80" xmlns="http://www.w3.org/2000/svg" xmlns:xlink="http://www.w3.org/1999/xlink">
<g id="graph0" class="graph" transform="scale(1 1) rotate(0) translate(4 169.8)">
<title>dependencies</title>
<polygon fill="white" stroke="transparent" points="-4,4 -4,-169.8 1023,-169.8 1023,4 -4,4"/>
<text text-anchor="middle" x="509.5" y="-8.2" font-family="sans-serif" font-size="14.00">dependencies</text>
<g id="clust1" class="cluster">
<title>cluster_BouncyHouseModule</title>
<polygon fill="none" stroke="black" stroke-dasharray="1,5" points="8,-32.8 8,-157.8 1011,-157.8 1011,-32.8 8,-32.8"/>
</g>
<g id="clust2" class="cluster">
<title>cluster_BouncyHouseModule_declarations</title>
<polygon fill="none" stroke="black" points="236,-40.8 236,-92.8 1003,-92.8 1003,-40.8 236,-40.8"/>
</g>
<g id="clust7" class="cluster">
<title>cluster_BouncyHouseModule_imports</title>
<polygon fill="none" stroke="black" points="16,-40.8 16,-92.8 228,-92.8 228,-40.8 16,-40.8"/>
</g>
<!-- BouncyHouseFilterComponent -->
<g id="node1" class="node">
<title>BouncyHouseFilterComponent</title>
<polygon fill="#ffffb3" stroke="black" points="995.49,-84.8 804.51,-84.8 804.51,-48.8 995.49,-48.8 995.49,-84.8"/>
<text text-anchor="middle" x="900" y="-62.6" font-family="Times,serif" font-size="14.00">BouncyHouseFilterComponent</text>
</g>
<!-- BouncyHouseModule -->
<g id="node5" class="node">
<title>BouncyHouseModule</title>
<polygon fill="#8dd3c7" stroke="black" points="497.38,-149.8 494.38,-153.8 473.38,-153.8 470.38,-149.8 358.62,-149.8 358.62,-113.8 497.38,-113.8 497.38,-149.8"/>
<text text-anchor="middle" x="428" y="-127.6" font-family="Times,serif" font-size="14.00">BouncyHouseModule</text>
</g>
<!-- BouncyHouseFilterComponent&#45;&gt;BouncyHouseModule -->
<g id="edge1" class="edge">
<title>BouncyHouseFilterComponent&#45;&gt;BouncyHouseModule</title>
<path fill="none" stroke="black" d="M900,-85.08C900,-106.12 900,-137.8 900,-137.8 900,-137.8 507.39,-137.8 507.39,-137.8"/>
<polygon fill="black" stroke="black" points="507.39,-134.3 497.39,-137.8 507.39,-141.3 507.39,-134.3"/>
</g>
<!-- BouncyHouseFormComponent -->
<g id="node2" class="node">
<title>BouncyHouseFormComponent</title>
<polygon fill="#ffffb3" stroke="black" points="786.49,-84.8 595.51,-84.8 595.51,-48.8 786.49,-48.8 786.49,-84.8"/>
<text text-anchor="middle" x="691" y="-62.6" font-family="Times,serif" font-size="14.00">BouncyHouseFormComponent</text>
</g>
<!-- BouncyHouseFormComponent&#45;&gt;BouncyHouseModule -->
<g id="edge2" class="edge">
<title>BouncyHouseFormComponent&#45;&gt;BouncyHouseModule</title>
<path fill="none" stroke="black" d="M691,-84.82C691,-102.17 691,-125.8 691,-125.8 691,-125.8 507.44,-125.8 507.44,-125.8"/>
<polygon fill="black" stroke="black" points="507.44,-122.3 497.44,-125.8 507.44,-129.3 507.44,-122.3"/>
</g>
<!-- BouncyHousePage -->
<g id="node3" class="node">
<title>BouncyHousePage</title>
<polygon fill="#ffffb3" stroke="black" points="577.04,-84.8 454.96,-84.8 454.96,-48.8 577.04,-48.8 577.04,-84.8"/>
<text text-anchor="middle" x="516" y="-62.6" font-family="Times,serif" font-size="14.00">BouncyHousePage</text>
</g>
<!-- BouncyHousePage&#45;&gt;BouncyHouseModule -->
<g id="edge3" class="edge">
<title>BouncyHousePage&#45;&gt;BouncyHouseModule</title>
<path fill="none" stroke="black" d="M476.08,-84.91C476.08,-84.91 476.08,-103.79 476.08,-103.79"/>
<polygon fill="black" stroke="black" points="472.58,-103.79 476.08,-113.79 479.58,-103.79 472.58,-103.79"/>
</g>
<!-- BouncyHouseTableComponent -->
<g id="node4" class="node">
<title>BouncyHouseTableComponent</title>
<polygon fill="#ffffb3" stroke="black" points="436.03,-84.8 243.97,-84.8 243.97,-48.8 436.03,-48.8 436.03,-84.8"/>
<text text-anchor="middle" x="340" y="-62.6" font-family="Times,serif" font-size="14.00">BouncyHouseTableComponent</text>
</g>
<!-- BouncyHouseTableComponent&#45;&gt;BouncyHouseModule -->
<g id="edge4" class="edge">
<title>BouncyHouseTableComponent&#45;&gt;BouncyHouseModule</title>
<path fill="none" stroke="black" d="M397.41,-84.91C397.41,-84.91 397.41,-103.79 397.41,-103.79"/>
<polygon fill="black" stroke="black" points="393.91,-103.79 397.41,-113.79 400.91,-103.79 393.91,-103.79"/>
</g>
<!-- RouterLink -->
<g id="node6" class="node">
<title>RouterLink</title>
<polygon fill="#8dd3c7" stroke="black" points="220.05,-84.8 217.05,-88.8 196.05,-88.8 193.05,-84.8 139.95,-84.8 139.95,-48.8 220.05,-48.8 220.05,-84.8"/>
<text text-anchor="middle" x="180" y="-62.6" font-family="Times,serif" font-size="14.00">RouterLink</text>
</g>
<!-- RouterLink&#45;&gt;BouncyHouseModule -->
<g id="edge5" class="edge">
<title>RouterLink&#45;&gt;BouncyHouseModule</title>
<path fill="none" stroke="black" d="M180,-84.82C180,-102.17 180,-125.8 180,-125.8 180,-125.8 348.59,-125.8 348.59,-125.8"/>
<polygon fill="black" stroke="black" points="348.59,-129.3 358.59,-125.8 348.59,-122.3 348.59,-129.3"/>
</g>
<!-- SharedModule -->
<g id="node7" class="node">
<title>SharedModule</title>
<polygon fill="#8dd3c7" stroke="black" points="122.43,-84.8 119.43,-88.8 98.43,-88.8 95.43,-84.8 23.57,-84.8 23.57,-48.8 122.43,-48.8 122.43,-84.8"/>
<text text-anchor="middle" x="73" y="-62.6" font-family="Times,serif" font-size="14.00">SharedModule</text>
</g>
<!-- SharedModule&#45;&gt;BouncyHouseModule -->
<g id="edge6" class="edge">
<title>SharedModule&#45;&gt;BouncyHouseModule</title>
<path fill="none" stroke="black" d="M73,-85.08C73,-106.12 73,-137.8 73,-137.8 73,-137.8 348.29,-137.8 348.29,-137.8"/>
<polygon fill="black" stroke="black" points="348.29,-141.3 358.29,-137.8 348.29,-134.3 348.29,-141.3"/>
</g>
</g>
</svg>
