<?xml version="1.0" encoding="UTF-8" standalone="no"?>
<!DOCTYPE svg PUBLIC "-//W3C//DTD SVG 1.1//EN"
 "http://www.w3.org/Graphics/SVG/1.1/DTD/svg11.dtd">
<!-- Generated by graphviz version 5.0.0 (20220707.1540)
 -->
<!-- Title: dependencies Pages: 1 -->
<svg width="656pt" height="174pt"
 viewBox="0.00 0.00 656.00 173.80" xmlns="http://www.w3.org/2000/svg" xmlns:xlink="http://www.w3.org/1999/xlink">
<g id="graph0" class="graph" transform="scale(1 1) rotate(0) translate(4 169.8)">
<title>dependencies</title>
<polygon fill="white" stroke="transparent" points="-4,4 -4,-169.8 652,-169.8 652,4 -4,4"/>
<text text-anchor="middle" x="324" y="-8.2" font-family="sans-serif" font-size="14.00">dependencies</text>
<g id="clust1" class="cluster">
<title>cluster_HomeModule</title>
<polygon fill="none" stroke="black" stroke-dasharray="1,5" points="8,-32.8 8,-157.8 640,-157.8 640,-32.8 8,-32.8"/>
</g>
<g id="clust2" class="cluster">
<title>cluster_HomeModule_declarations</title>
<polygon fill="none" stroke="black" points="388,-40.8 388,-92.8 632,-92.8 632,-40.8 388,-40.8"/>
</g>
<g id="clust5" class="cluster">
<title>cluster_HomeModule_imports</title>
<polygon fill="none" stroke="black" points="16,-40.8 16,-92.8 380,-92.8 380,-40.8 16,-40.8"/>
</g>
<!-- FilterBarComponent -->
<g id="node1" class="node">
<title>FilterBarComponent</title>
<polygon fill="#ffffb3" stroke="black" points="623.88,-84.8 492.12,-84.8 492.12,-48.8 623.88,-48.8 623.88,-84.8"/>
<text text-anchor="middle" x="558" y="-62.6" font-family="Times,serif" font-size="14.00">FilterBarComponent</text>
</g>
<!-- HomeModule -->
<g id="node3" class="node">
<title>HomeModule</title>
<polygon fill="#8dd3c7" stroke="black" points="378.77,-149.8 375.77,-153.8 354.77,-153.8 351.77,-149.8 285.23,-149.8 285.23,-113.8 378.77,-113.8 378.77,-149.8"/>
<text text-anchor="middle" x="332" y="-127.6" font-family="Times,serif" font-size="14.00">HomeModule</text>
</g>
<!-- FilterBarComponent&#45;&gt;HomeModule -->
<g id="edge1" class="edge">
<title>FilterBarComponent&#45;&gt;HomeModule</title>
<path fill="none" stroke="black" d="M558,-85.08C558,-106.12 558,-137.8 558,-137.8 558,-137.8 388.83,-137.8 388.83,-137.8"/>
<polygon fill="black" stroke="black" points="388.83,-134.3 378.83,-137.8 388.83,-141.3 388.83,-134.3"/>
</g>
<!-- HomePage -->
<g id="node2" class="node">
<title>HomePage</title>
<polygon fill="#ffffb3" stroke="black" points="473.93,-84.8 396.07,-84.8 396.07,-48.8 473.93,-48.8 473.93,-84.8"/>
<text text-anchor="middle" x="435" y="-62.6" font-family="Times,serif" font-size="14.00">HomePage</text>
</g>
<!-- HomePage&#45;&gt;HomeModule -->
<g id="edge2" class="edge">
<title>HomePage&#45;&gt;HomeModule</title>
<path fill="none" stroke="black" d="M435,-84.82C435,-102.17 435,-125.8 435,-125.8 435,-125.8 388.98,-125.8 388.98,-125.8"/>
<polygon fill="black" stroke="black" points="388.98,-122.3 378.98,-125.8 388.98,-129.3 388.98,-122.3"/>
</g>
<!-- RouterLink -->
<g id="node4" class="node">
<title>RouterLink</title>
<polygon fill="#8dd3c7" stroke="black" points="372.05,-84.8 369.05,-88.8 348.05,-88.8 345.05,-84.8 291.95,-84.8 291.95,-48.8 372.05,-48.8 372.05,-84.8"/>
<text text-anchor="middle" x="332" y="-62.6" font-family="Times,serif" font-size="14.00">RouterLink</text>
</g>
<!-- RouterLink&#45;&gt;HomeModule -->
<g id="edge3" class="edge">
<title>RouterLink&#45;&gt;HomeModule</title>
<path fill="none" stroke="black" d="M332,-84.91C332,-84.91 332,-103.79 332,-103.79"/>
<polygon fill="black" stroke="black" points="328.5,-103.79 332,-113.79 335.5,-103.79 328.5,-103.79"/>
</g>
<!-- RouterLinkWithHref -->
<g id="node5" class="node">
<title>RouterLinkWithHref</title>
<polygon fill="#8dd3c7" stroke="black" points="274.19,-84.8 271.19,-88.8 250.19,-88.8 247.19,-84.8 139.81,-84.8 139.81,-48.8 274.19,-48.8 274.19,-84.8"/>
<text text-anchor="middle" x="207" y="-62.6" font-family="Times,serif" font-size="14.00">RouterLinkWithHref</text>
</g>
<!-- RouterLinkWithHref&#45;&gt;HomeModule -->
<g id="edge4" class="edge">
<title>RouterLinkWithHref&#45;&gt;HomeModule</title>
<path fill="none" stroke="black" d="M207,-84.82C207,-102.17 207,-125.8 207,-125.8 207,-125.8 275.1,-125.8 275.1,-125.8"/>
<polygon fill="black" stroke="black" points="275.1,-129.3 285.1,-125.8 275.1,-122.3 275.1,-129.3"/>
</g>
<!-- SharedModule -->
<g id="node6" class="node">
<title>SharedModule</title>
<polygon fill="#8dd3c7" stroke="black" points="122.43,-84.8 119.43,-88.8 98.43,-88.8 95.43,-84.8 23.57,-84.8 23.57,-48.8 122.43,-48.8 122.43,-84.8"/>
<text text-anchor="middle" x="73" y="-62.6" font-family="Times,serif" font-size="14.00">SharedModule</text>
</g>
<!-- SharedModule&#45;&gt;HomeModule -->
<g id="edge5" class="edge">
<title>SharedModule&#45;&gt;HomeModule</title>
<path fill="none" stroke="black" d="M73,-85.08C73,-106.12 73,-137.8 73,-137.8 73,-137.8 275.1,-137.8 275.1,-137.8"/>
<polygon fill="black" stroke="black" points="275.1,-141.3 285.1,-137.8 275.1,-134.3 275.1,-141.3"/>
</g>
</g>
</svg>
