<?xml version="1.0" encoding="UTF-8" standalone="no"?>
<!DOCTYPE svg PUBLIC "-//W3C//DTD SVG 1.1//EN"
 "http://www.w3.org/Graphics/SVG/1.1/DTD/svg11.dtd">
<!-- Generated by graphviz version 5.0.0 (20220707.1540)
 -->
<!-- Title: dependencies Pages: 1 -->
<svg width="675pt" height="174pt"
 viewBox="0.00 0.00 675.00 173.80" xmlns="http://www.w3.org/2000/svg" xmlns:xlink="http://www.w3.org/1999/xlink">
<g id="graph0" class="graph" transform="scale(1 1) rotate(0) translate(4 169.8)">
<title>dependencies</title>
<polygon fill="white" stroke="transparent" points="-4,4 -4,-169.8 671,-169.8 671,4 -4,4"/>
<text text-anchor="middle" x="333.5" y="-8.2" font-family="sans-serif" font-size="14.00">dependencies</text>
<g id="clust1" class="cluster">
<title>cluster_ProfileModule</title>
<polygon fill="none" stroke="black" stroke-dasharray="1,5" points="8,-32.8 8,-157.8 659,-157.8 659,-32.8 8,-32.8"/>
</g>
<g id="clust6" class="cluster">
<title>cluster_ProfileModule_imports</title>
<polygon fill="none" stroke="black" points="439,-40.8 439,-92.8 651,-92.8 651,-40.8 439,-40.8"/>
</g>
<g id="clust2" class="cluster">
<title>cluster_ProfileModule_declarations</title>
<polygon fill="none" stroke="black" points="16,-40.8 16,-92.8 431,-92.8 431,-40.8 16,-40.8"/>
</g>
<!-- ProfileBarComponent -->
<g id="node1" class="node">
<title>ProfileBarComponent</title>
<polygon fill="#ffffb3" stroke="black" points="422.65,-84.8 283.35,-84.8 283.35,-48.8 422.65,-48.8 422.65,-84.8"/>
<text text-anchor="middle" x="353" y="-62.6" font-family="Times,serif" font-size="14.00">ProfileBarComponent</text>
</g>
<!-- ProfileModule -->
<g id="node4" class="node">
<title>ProfileModule</title>
<polygon fill="#8dd3c7" stroke="black" points="401.66,-149.8 398.66,-153.8 377.66,-153.8 374.66,-149.8 304.34,-149.8 304.34,-113.8 401.66,-113.8 401.66,-149.8"/>
<text text-anchor="middle" x="353" y="-127.6" font-family="Times,serif" font-size="14.00">ProfileModule</text>
</g>
<!-- ProfileBarComponent&#45;&gt;ProfileModule -->
<g id="edge1" class="edge">
<title>ProfileBarComponent&#45;&gt;ProfileModule</title>
<path fill="none" stroke="black" d="M353,-84.91C353,-84.91 353,-103.79 353,-103.79"/>
<polygon fill="black" stroke="black" points="349.5,-103.79 353,-113.79 356.5,-103.79 349.5,-103.79"/>
</g>
<!-- ProfilePage -->
<g id="node2" class="node">
<title>ProfilePage</title>
<polygon fill="#ffffb3" stroke="black" points="265.82,-84.8 184.18,-84.8 184.18,-48.8 265.82,-48.8 265.82,-84.8"/>
<text text-anchor="middle" x="225" y="-62.6" font-family="Times,serif" font-size="14.00">ProfilePage</text>
</g>
<!-- ProfilePage&#45;&gt;ProfileModule -->
<g id="edge2" class="edge">
<title>ProfilePage&#45;&gt;ProfileModule</title>
<path fill="none" stroke="black" d="M225,-84.82C225,-102.17 225,-125.8 225,-125.8 225,-125.8 294.24,-125.8 294.24,-125.8"/>
<polygon fill="black" stroke="black" points="294.24,-129.3 304.24,-125.8 294.24,-122.3 294.24,-129.3"/>
</g>
<!-- RentedListComponent -->
<g id="node3" class="node">
<title>RentedListComponent</title>
<polygon fill="#ffffb3" stroke="black" points="166.27,-84.8 23.73,-84.8 23.73,-48.8 166.27,-48.8 166.27,-84.8"/>
<text text-anchor="middle" x="95" y="-62.6" font-family="Times,serif" font-size="14.00">RentedListComponent</text>
</g>
<!-- RentedListComponent&#45;&gt;ProfileModule -->
<g id="edge3" class="edge">
<title>RentedListComponent&#45;&gt;ProfileModule</title>
<path fill="none" stroke="black" d="M95,-85.08C95,-106.12 95,-137.8 95,-137.8 95,-137.8 294.17,-137.8 294.17,-137.8"/>
<polygon fill="black" stroke="black" points="294.17,-141.3 304.17,-137.8 294.17,-134.3 294.17,-141.3"/>
</g>
<!-- RouterLink -->
<g id="node5" class="node">
<title>RouterLink</title>
<polygon fill="#8dd3c7" stroke="black" points="643.05,-84.8 640.05,-88.8 619.05,-88.8 616.05,-84.8 562.95,-84.8 562.95,-48.8 643.05,-48.8 643.05,-84.8"/>
<text text-anchor="middle" x="603" y="-62.6" font-family="Times,serif" font-size="14.00">RouterLink</text>
</g>
<!-- RouterLink&#45;&gt;ProfileModule -->
<g id="edge4" class="edge">
<title>RouterLink&#45;&gt;ProfileModule</title>
<path fill="none" stroke="black" d="M603,-85.08C603,-106.12 603,-137.8 603,-137.8 603,-137.8 411.8,-137.8 411.8,-137.8"/>
<polygon fill="black" stroke="black" points="411.8,-134.3 401.8,-137.8 411.8,-141.3 411.8,-134.3"/>
</g>
<!-- SharedModule -->
<g id="node6" class="node">
<title>SharedModule</title>
<polygon fill="#8dd3c7" stroke="black" points="545.43,-84.8 542.43,-88.8 521.43,-88.8 518.43,-84.8 446.57,-84.8 446.57,-48.8 545.43,-48.8 545.43,-84.8"/>
<text text-anchor="middle" x="496" y="-62.6" font-family="Times,serif" font-size="14.00">SharedModule</text>
</g>
<!-- SharedModule&#45;&gt;ProfileModule -->
<g id="edge5" class="edge">
<title>SharedModule&#45;&gt;ProfileModule</title>
<path fill="none" stroke="black" d="M496,-84.82C496,-102.17 496,-125.8 496,-125.8 496,-125.8 411.81,-125.8 411.81,-125.8"/>
<polygon fill="black" stroke="black" points="411.81,-122.3 401.81,-125.8 411.81,-129.3 411.81,-122.3"/>
</g>
</g>
</svg>
