<?xml version="1.0" encoding="UTF-8" standalone="no"?>
<!DOCTYPE svg PUBLIC "-//W3C//DTD SVG 1.1//EN"
 "http://www.w3.org/Graphics/SVG/1.1/DTD/svg11.dtd">
<!-- Generated by graphviz version 5.0.0 (20220707.1540)
 -->
<!-- Title: dependencies Pages: 1 -->
<svg width="1624pt" height="247pt"
 viewBox="0.00 0.00 1624.00 246.80" xmlns="http://www.w3.org/2000/svg" xmlns:xlink="http://www.w3.org/1999/xlink">
<g id="graph0" class="graph" transform="scale(1 1) rotate(0) translate(4 242.8)">
<title>dependencies</title>
<polygon fill="white" stroke="transparent" points="-4,4 -4,-242.8 1620,-242.8 1620,4 -4,4"/>
<text text-anchor="middle" x="808" y="-8.2" font-family="sans-serif" font-size="14.00">dependencies</text>
<g id="clust1" class="cluster">
<title>cluster_SharedModule</title>
<polygon fill="none" stroke="black" stroke-dasharray="1,5" points="8,-32.8 8,-230.8 1608,-230.8 1608,-32.8 8,-32.8"/>
</g>
<g id="clust13" class="cluster">
<title>cluster_SharedModule_exports</title>
<polygon fill="none" stroke="black" points="87,-170.8 87,-222.8 1463,-222.8 1463,-170.8 87,-170.8"/>
</g>
<g id="clust12" class="cluster">
<title>cluster_SharedModule_imports</title>
<polygon fill="none" stroke="black" points="1368,-40.8 1368,-92.8 1600,-92.8 1600,-40.8 1368,-40.8"/>
</g>
<g id="clust2" class="cluster">
<title>cluster_SharedModule_declarations</title>
<polygon fill="none" stroke="black" points="16,-40.8 16,-92.8 1360,-92.8 1360,-40.8 16,-40.8"/>
</g>
<!-- BouncyHouseCardComponent -->
<g id="node1" class="node">
<title>BouncyHouseCardComponent</title>
<polygon fill="#ffffb3" stroke="black" points="1351.87,-84.8 1164.13,-84.8 1164.13,-48.8 1351.87,-48.8 1351.87,-84.8"/>
<text text-anchor="middle" x="1258" y="-62.6" font-family="Times,serif" font-size="14.00">BouncyHouseCardComponent</text>
</g>
<!-- SharedModule -->
<g id="node10" class="node">
<title>SharedModule</title>
<polygon fill="#8dd3c7" stroke="black" points="761.43,-149.8 758.43,-153.8 737.43,-153.8 734.43,-149.8 662.57,-149.8 662.57,-113.8 761.43,-113.8 761.43,-149.8"/>
<text text-anchor="middle" x="712" y="-127.6" font-family="Times,serif" font-size="14.00">SharedModule</text>
</g>
<!-- BouncyHouseCardComponent&#45;&gt;SharedModule -->
<g id="edge1" class="edge">
<title>BouncyHouseCardComponent&#45;&gt;SharedModule</title>
<path fill="none" stroke="black" d="M1204.57,-84.83C1204.57,-101.86 1204.57,-124.8 1204.57,-124.8 1204.57,-124.8 771.48,-124.8 771.48,-124.8"/>
<polygon fill="black" stroke="black" points="771.48,-121.3 761.48,-124.8 771.48,-128.3 771.48,-121.3"/>
</g>
<!-- FavouriteToggleComponent -->
<g id="node2" class="node">
<title>FavouriteToggleComponent</title>
<polygon fill="#ffffb3" stroke="black" points="1146.14,-84.8 971.86,-84.8 971.86,-48.8 1146.14,-48.8 1146.14,-84.8"/>
<text text-anchor="middle" x="1059" y="-62.6" font-family="Times,serif" font-size="14.00">FavouriteToggleComponent</text>
</g>
<!-- FavouriteToggleComponent&#45;&gt;SharedModule -->
<g id="edge2" class="edge">
<title>FavouriteToggleComponent&#45;&gt;SharedModule</title>
<path fill="none" stroke="black" d="M999.55,-84.81C999.55,-100.85 999.55,-121.8 999.55,-121.8 999.55,-121.8 771.43,-121.8 771.43,-121.8"/>
<polygon fill="black" stroke="black" points="771.43,-118.3 761.43,-121.8 771.43,-125.3 771.43,-118.3"/>
</g>
<!-- FilterPipe -->
<g id="node3" class="node">
<title>FilterPipe</title>
<polygon fill="#ffffb3" stroke="black" points="953.72,-84.8 882.28,-84.8 882.28,-48.8 953.72,-48.8 953.72,-84.8"/>
<text text-anchor="middle" x="918" y="-62.6" font-family="Times,serif" font-size="14.00">FilterPipe</text>
</g>
<!-- FilterPipe&#45;&gt;SharedModule -->
<g id="edge3" class="edge">
<title>FilterPipe&#45;&gt;SharedModule</title>
<path fill="none" stroke="black" d="M918,-84.92C918,-99.58 918,-117.8 918,-117.8 918,-117.8 771.34,-117.8 771.34,-117.8"/>
<polygon fill="black" stroke="black" points="771.34,-114.3 761.34,-117.8 771.34,-121.3 771.34,-114.3"/>
</g>
<!-- IconWithTextComponent -->
<g id="node4" class="node">
<title>IconWithTextComponent</title>
<polygon fill="#ffffb3" stroke="black" points="863.86,-84.8 704.14,-84.8 704.14,-48.8 863.86,-48.8 863.86,-84.8"/>
<text text-anchor="middle" x="784" y="-62.6" font-family="Times,serif" font-size="14.00">IconWithTextComponent</text>
</g>
<!-- IconWithTextComponent&#45;&gt;SharedModule -->
<g id="edge4" class="edge">
<title>IconWithTextComponent&#45;&gt;SharedModule</title>
<path fill="none" stroke="black" d="M732.64,-84.91C732.64,-84.91 732.64,-103.79 732.64,-103.79"/>
<polygon fill="black" stroke="black" points="729.14,-103.79 732.64,-113.79 736.14,-103.79 729.14,-103.79"/>
</g>
<!-- NavbarComponent -->
<g id="node5" class="node">
<title>NavbarComponent</title>
<polygon fill="#ffffb3" stroke="black" points="686.03,-84.8 563.97,-84.8 563.97,-48.8 686.03,-48.8 686.03,-84.8"/>
<text text-anchor="middle" x="625" y="-62.6" font-family="Times,serif" font-size="14.00">NavbarComponent</text>
</g>
<!-- NavbarComponent&#45;&gt;SharedModule -->
<g id="edge5" class="edge">
<title>NavbarComponent&#45;&gt;SharedModule</title>
<path fill="none" stroke="black" d="M674.53,-84.91C674.53,-84.91 674.53,-103.79 674.53,-103.79"/>
<polygon fill="black" stroke="black" points="671.03,-103.79 674.53,-113.79 678.03,-103.79 671.03,-103.79"/>
</g>
<!-- RatingCardComponent -->
<g id="node6" class="node">
<title>RatingCardComponent</title>
<polygon fill="#ffffb3" stroke="black" points="545.88,-84.8 400.12,-84.8 400.12,-48.8 545.88,-48.8 545.88,-84.8"/>
<text text-anchor="middle" x="473" y="-62.6" font-family="Times,serif" font-size="14.00">RatingCardComponent</text>
</g>
<!-- RatingCardComponent&#45;&gt;SharedModule -->
<g id="edge6" class="edge">
<title>RatingCardComponent&#45;&gt;SharedModule</title>
<path fill="none" stroke="black" d="M513.62,-84.92C513.62,-99.58 513.62,-117.8 513.62,-117.8 513.62,-117.8 652.71,-117.8 652.71,-117.8"/>
<polygon fill="black" stroke="black" points="652.71,-121.3 662.71,-117.8 652.71,-114.3 652.71,-121.3"/>
</g>
<!-- RentedCardComponent -->
<g id="node7" class="node">
<title>RentedCardComponent</title>
<polygon fill="#ffffb3" stroke="black" points="382.2,-84.8 233.8,-84.8 233.8,-48.8 382.2,-48.8 382.2,-84.8"/>
<text text-anchor="middle" x="308" y="-62.6" font-family="Times,serif" font-size="14.00">RentedCardComponent</text>
</g>
<!-- RentedCardComponent&#45;&gt;SharedModule -->
<g id="edge7" class="edge">
<title>RentedCardComponent&#45;&gt;SharedModule</title>
<path fill="none" stroke="black" d="M346.62,-84.81C346.62,-100.85 346.62,-121.8 346.62,-121.8 346.62,-121.8 652.72,-121.8 652.72,-121.8"/>
<polygon fill="black" stroke="black" points="652.72,-125.3 662.72,-121.8 652.72,-118.3 652.72,-125.3"/>
</g>
<!-- SearchFilterPipe -->
<g id="node8" class="node">
<title>SearchFilterPipe</title>
<polygon fill="#ffffb3" stroke="black" points="215.81,-84.8 106.19,-84.8 106.19,-48.8 215.81,-48.8 215.81,-84.8"/>
<text text-anchor="middle" x="161" y="-62.6" font-family="Times,serif" font-size="14.00">SearchFilterPipe</text>
</g>
<!-- SearchFilterPipe&#45;&gt;SharedModule -->
<g id="edge8" class="edge">
<title>SearchFilterPipe&#45;&gt;SharedModule</title>
<path fill="none" stroke="black" d="M203.97,-84.83C203.97,-101.86 203.97,-124.8 203.97,-124.8 203.97,-124.8 652.36,-124.8 652.36,-124.8"/>
<polygon fill="black" stroke="black" points="652.36,-128.3 662.36,-124.8 652.36,-121.3 652.36,-128.3"/>
</g>
<!-- SearchFilterPipe&#45;&gt;SharedModule -->
<g id="edge9" class="edge">
<title>SearchFilterPipe&#45;&gt;SharedModule</title>
<path fill="none" stroke="black" d="M192.28,-85.07C192.28,-103.36 192.28,-128.8 192.28,-128.8 192.28,-128.8 652.64,-128.8 652.64,-128.8"/>
<polygon fill="black" stroke="black" points="652.64,-132.3 662.64,-128.8 652.64,-125.3 652.64,-132.3"/>
</g>
<!-- SortPipe -->
<g id="node9" class="node">
<title>SortPipe</title>
<polygon fill="#ffffb3" stroke="black" points="88.23,-84.8 23.77,-84.8 23.77,-48.8 88.23,-48.8 88.23,-84.8"/>
<text text-anchor="middle" x="56" y="-62.6" font-family="Times,serif" font-size="14.00">SortPipe</text>
</g>
<!-- SortPipe&#45;&gt;SharedModule -->
<g id="edge10" class="edge">
<title>SortPipe&#45;&gt;SharedModule</title>
<path fill="none" stroke="black" d="M56,-84.91C56,-104.14 56,-131.8 56,-131.8 56,-131.8 652.69,-131.8 652.69,-131.8"/>
<polygon fill="black" stroke="black" points="652.69,-135.3 662.69,-131.8 652.69,-128.3 652.69,-135.3"/>
</g>
<!-- BouncyHouseCardComponent  -->
<g id="node13" class="node">
<title>BouncyHouseCardComponent </title>
<polygon fill="#fb8072" stroke="black" points="1454.87,-214.8 1263.13,-214.8 1263.13,-178.8 1454.87,-178.8 1454.87,-214.8"/>
<text text-anchor="middle" x="1359" y="-192.6" font-family="Times,serif" font-size="14.00">BouncyHouseCardComponent </text>
</g>
<!-- SharedModule&#45;&gt;BouncyHouseCardComponent  -->
<g id="edge13" class="edge">
<title>SharedModule&#45;&gt;BouncyHouseCardComponent </title>
<path fill="none" stroke="black" stroke-dasharray="5,2" d="M761.25,-135.8C903.95,-135.8 1307.62,-135.8 1307.62,-135.8 1307.62,-135.8 1307.62,-168.5 1307.62,-168.5"/>
<polygon fill="black" stroke="black" points="1304.13,-168.5 1307.62,-178.5 1311.13,-168.5 1304.13,-168.5"/>
</g>
<!-- FavouriteToggleComponent  -->
<g id="node14" class="node">
<title>FavouriteToggleComponent </title>
<polygon fill="#fb8072" stroke="black" points="1245.14,-214.8 1066.86,-214.8 1066.86,-178.8 1245.14,-178.8 1245.14,-214.8"/>
<text text-anchor="middle" x="1156" y="-192.6" font-family="Times,serif" font-size="14.00">FavouriteToggleComponent </text>
</g>
<!-- SharedModule&#45;&gt;FavouriteToggleComponent  -->
<g id="edge14" class="edge">
<title>SharedModule&#45;&gt;FavouriteToggleComponent </title>
<path fill="none" stroke="black" stroke-dasharray="5,2" d="M761.58,-139.8C867.57,-139.8 1106.62,-139.8 1106.62,-139.8 1106.62,-139.8 1106.62,-168.76 1106.62,-168.76"/>
<polygon fill="black" stroke="black" points="1103.13,-168.76 1106.62,-178.76 1110.13,-168.76 1103.13,-168.76"/>
</g>
<!-- FilterPipe  -->
<g id="node15" class="node">
<title>FilterPipe </title>
<polygon fill="#fb8072" stroke="black" points="1049.22,-214.8 974.78,-214.8 974.78,-178.8 1049.22,-178.8 1049.22,-214.8"/>
<text text-anchor="middle" x="1012" y="-192.6" font-family="Times,serif" font-size="14.00">FilterPipe </text>
</g>
<!-- SharedModule&#45;&gt;FilterPipe  -->
<g id="edge15" class="edge">
<title>SharedModule&#45;&gt;FilterPipe </title>
<path fill="none" stroke="black" stroke-dasharray="5,2" d="M761.51,-142.8C849.61,-142.8 1024.45,-142.8 1024.45,-142.8 1024.45,-142.8 1024.45,-168.52 1024.45,-168.52"/>
<polygon fill="black" stroke="black" points="1020.95,-168.52 1024.45,-178.52 1027.95,-168.52 1020.95,-168.52"/>
</g>
<!-- IconWithTextComponent  -->
<g id="node16" class="node">
<title>IconWithTextComponent </title>
<polygon fill="#fb8072" stroke="black" points="956.86,-214.8 793.14,-214.8 793.14,-178.8 956.86,-178.8 956.86,-214.8"/>
<text text-anchor="middle" x="875" y="-192.6" font-family="Times,serif" font-size="14.00">IconWithTextComponent </text>
</g>
<!-- SharedModule&#45;&gt;IconWithTextComponent  -->
<g id="edge16" class="edge">
<title>SharedModule&#45;&gt;IconWithTextComponent </title>
<path fill="none" stroke="black" stroke-dasharray="5,2" d="M761.46,-146.8C793.25,-146.8 828.62,-146.8 828.62,-146.8 828.62,-146.8 828.62,-168.75 828.62,-168.75"/>
<polygon fill="black" stroke="black" points="825.13,-168.75 828.62,-178.75 832.13,-168.75 825.13,-168.75"/>
</g>
<!-- NavbarComponent  -->
<g id="node17" class="node">
<title>NavbarComponent </title>
<polygon fill="#fb8072" stroke="black" points="775.03,-214.8 648.97,-214.8 648.97,-178.8 775.03,-178.8 775.03,-214.8"/>
<text text-anchor="middle" x="712" y="-192.6" font-family="Times,serif" font-size="14.00">NavbarComponent </text>
</g>
<!-- SharedModule&#45;&gt;NavbarComponent  -->
<g id="edge17" class="edge">
<title>SharedModule&#45;&gt;NavbarComponent </title>
<path fill="none" stroke="black" stroke-dasharray="5,2" d="M712,-149.91C712,-149.91 712,-168.79 712,-168.79"/>
<polygon fill="black" stroke="black" points="708.5,-168.79 712,-178.79 715.5,-168.79 708.5,-168.79"/>
</g>
<!-- RatingCardComponent  -->
<g id="node18" class="node">
<title>RatingCardComponent </title>
<polygon fill="#fb8072" stroke="black" points="630.88,-214.8 481.12,-214.8 481.12,-178.8 630.88,-178.8 630.88,-214.8"/>
<text text-anchor="middle" x="556" y="-192.6" font-family="Times,serif" font-size="14.00">RatingCardComponent </text>
</g>
<!-- SharedModule&#45;&gt;RatingCardComponent  -->
<g id="edge18" class="edge">
<title>SharedModule&#45;&gt;RatingCardComponent </title>
<path fill="none" stroke="black" stroke-dasharray="5,2" d="M662.65,-146.8C631.54,-146.8 597.21,-146.8 597.21,-146.8 597.21,-146.8 597.21,-168.75 597.21,-168.75"/>
<polygon fill="black" stroke="black" points="593.71,-168.75 597.21,-178.75 600.71,-168.75 593.71,-168.75"/>
</g>
<!-- RentedCardComponent  -->
<g id="node19" class="node">
<title>RentedCardComponent </title>
<polygon fill="#fb8072" stroke="black" points="462.7,-214.8 311.3,-214.8 311.3,-178.8 462.7,-178.8 462.7,-214.8"/>
<text text-anchor="middle" x="387" y="-192.6" font-family="Times,serif" font-size="14.00">RentedCardComponent </text>
</g>
<!-- SharedModule&#45;&gt;RentedCardComponent  -->
<g id="edge19" class="edge">
<title>SharedModule&#45;&gt;RentedCardComponent </title>
<path fill="none" stroke="black" stroke-dasharray="5,2" d="M662.49,-142.8C581.95,-142.8 431.46,-142.8 431.46,-142.8 431.46,-142.8 431.46,-168.52 431.46,-168.52"/>
<polygon fill="black" stroke="black" points="427.96,-168.52 431.46,-178.52 434.96,-168.52 427.96,-168.52"/>
</g>
<!-- SearchFilterPipe  -->
<g id="node20" class="node">
<title>SearchFilterPipe </title>
<polygon fill="#fb8072" stroke="black" points="293.31,-214.8 180.69,-214.8 180.69,-178.8 293.31,-178.8 293.31,-214.8"/>
<text text-anchor="middle" x="237" y="-192.6" font-family="Times,serif" font-size="14.00">SearchFilterPipe </text>
</g>
<!-- SharedModule&#45;&gt;SearchFilterPipe  -->
<g id="edge20" class="edge">
<title>SharedModule&#45;&gt;SearchFilterPipe </title>
<path fill="none" stroke="black" stroke-dasharray="5,2" d="M662.74,-139.8C546.27,-139.8 263.65,-139.8 263.65,-139.8 263.65,-139.8 263.65,-168.76 263.65,-168.76"/>
<polygon fill="black" stroke="black" points="260.15,-168.76 263.65,-178.76 267.15,-168.76 260.15,-168.76"/>
</g>
<!-- SortPipe  -->
<g id="node21" class="node">
<title>SortPipe </title>
<polygon fill="#fb8072" stroke="black" points="162.73,-214.8 95.27,-214.8 95.27,-178.8 162.73,-178.8 162.73,-214.8"/>
<text text-anchor="middle" x="129" y="-192.6" font-family="Times,serif" font-size="14.00">SortPipe </text>
</g>
<!-- SharedModule&#45;&gt;SortPipe  -->
<g id="edge21" class="edge">
<title>SharedModule&#45;&gt;SortPipe </title>
<path fill="none" stroke="black" stroke-dasharray="5,2" d="M662.77,-135.8C523.14,-135.8 134.6,-135.8 134.6,-135.8 134.6,-135.8 134.6,-168.5 134.6,-168.5"/>
<polygon fill="black" stroke="black" points="131.1,-168.5 134.6,-178.5 138.1,-168.5 131.1,-168.5"/>
</g>
<!-- RouterLink -->
<g id="node11" class="node">
<title>RouterLink</title>
<polygon fill="#8dd3c7" stroke="black" points="1592.05,-84.8 1589.05,-88.8 1568.05,-88.8 1565.05,-84.8 1511.95,-84.8 1511.95,-48.8 1592.05,-48.8 1592.05,-84.8"/>
<text text-anchor="middle" x="1552" y="-62.6" font-family="Times,serif" font-size="14.00">RouterLink</text>
</g>
<!-- RouterLink&#45;&gt;SharedModule -->
<g id="edge11" class="edge">
<title>RouterLink&#45;&gt;SharedModule</title>
<path fill="none" stroke="black" d="M1552,-84.91C1552,-104.14 1552,-131.8 1552,-131.8 1552,-131.8 771.41,-131.8 771.41,-131.8"/>
<polygon fill="black" stroke="black" points="771.41,-128.3 761.41,-131.8 771.41,-135.3 771.41,-128.3"/>
</g>
<!-- RouterLinkActive -->
<g id="node12" class="node">
<title>RouterLinkActive</title>
<polygon fill="#8dd3c7" stroke="black" points="1493.86,-84.8 1490.86,-88.8 1469.86,-88.8 1466.86,-84.8 1376.14,-84.8 1376.14,-48.8 1493.86,-48.8 1493.86,-84.8"/>
<text text-anchor="middle" x="1435" y="-62.6" font-family="Times,serif" font-size="14.00">RouterLinkActive</text>
</g>
<!-- RouterLinkActive&#45;&gt;SharedModule -->
<g id="edge12" class="edge">
<title>RouterLinkActive&#45;&gt;SharedModule</title>
<path fill="none" stroke="black" d="M1415.38,-85.07C1415.38,-103.36 1415.38,-128.8 1415.38,-128.8 1415.38,-128.8 771.46,-128.8 771.46,-128.8"/>
<polygon fill="black" stroke="black" points="771.46,-125.3 761.46,-128.8 771.46,-132.3 771.46,-125.3"/>
</g>
</g>
</svg>
