<?xml version="1.0" encoding="UTF-8" standalone="no"?>
<!DOCTYPE svg PUBLIC "-//W3C//DTD SVG 1.1//EN"
 "http://www.w3.org/Graphics/SVG/1.1/DTD/svg11.dtd">
<!-- Generated by graphviz version 5.0.0 (20220707.1540)
 -->
<!-- Title: dependencies Pages: 1 -->
<svg width="562pt" height="174pt"
 viewBox="0.00 0.00 562.00 173.80" xmlns="http://www.w3.org/2000/svg" xmlns:xlink="http://www.w3.org/1999/xlink">
<g id="graph0" class="graph" transform="scale(1 1) rotate(0) translate(4 169.8)">
<title>dependencies</title>
<polygon fill="white" stroke="transparent" points="-4,4 -4,-169.8 558,-169.8 558,4 -4,4"/>
<text text-anchor="middle" x="277" y="-8.2" font-family="sans-serif" font-size="14.00">dependencies</text>
<g id="clust1" class="cluster">
<title>cluster_UserModule</title>
<polygon fill="none" stroke="black" stroke-dasharray="1,5" points="8,-32.8 8,-157.8 546,-157.8 546,-32.8 8,-32.8"/>
</g>
<g id="clust6" class="cluster">
<title>cluster_UserModule_imports</title>
<polygon fill="none" stroke="black" points="424,-40.8 424,-92.8 538,-92.8 538,-40.8 424,-40.8"/>
</g>
<g id="clust2" class="cluster">
<title>cluster_UserModule_declarations</title>
<polygon fill="none" stroke="black" points="16,-40.8 16,-92.8 416,-92.8 416,-40.8 16,-40.8"/>
</g>
<!-- UserFormComponent -->
<g id="node1" class="node">
<title>UserFormComponent</title>
<polygon fill="#ffffb3" stroke="black" points="408.1,-84.8 269.9,-84.8 269.9,-48.8 408.1,-48.8 408.1,-84.8"/>
<text text-anchor="middle" x="339" y="-62.6" font-family="Times,serif" font-size="14.00">UserFormComponent</text>
</g>
<!-- UserModule -->
<g id="node4" class="node">
<title>UserModule</title>
<polygon fill="#8dd3c7" stroke="black" points="320.99,-149.8 317.99,-153.8 296.99,-153.8 293.99,-149.8 235.01,-149.8 235.01,-113.8 320.99,-113.8 320.99,-149.8"/>
<text text-anchor="middle" x="278" y="-127.6" font-family="Times,serif" font-size="14.00">UserModule</text>
</g>
<!-- UserFormComponent&#45;&gt;UserModule -->
<g id="edge1" class="edge">
<title>UserFormComponent&#45;&gt;UserModule</title>
<path fill="none" stroke="black" d="M295.47,-84.91C295.47,-84.91 295.47,-103.79 295.47,-103.79"/>
<polygon fill="black" stroke="black" points="291.97,-103.79 295.47,-113.79 298.97,-103.79 291.97,-103.79"/>
</g>
<!-- UserPage -->
<g id="node2" class="node">
<title>UserPage</title>
<polygon fill="#ffffb3" stroke="black" points="251.65,-84.8 182.35,-84.8 182.35,-48.8 251.65,-48.8 251.65,-84.8"/>
<text text-anchor="middle" x="217" y="-62.6" font-family="Times,serif" font-size="14.00">UserPage</text>
</g>
<!-- UserPage&#45;&gt;UserModule -->
<g id="edge2" class="edge">
<title>UserPage&#45;&gt;UserModule</title>
<path fill="none" stroke="black" d="M243.42,-84.91C243.42,-84.91 243.42,-103.79 243.42,-103.79"/>
<polygon fill="black" stroke="black" points="239.92,-103.79 243.42,-113.79 246.92,-103.79 239.92,-103.79"/>
</g>
<!-- UserTableComponent -->
<g id="node3" class="node">
<title>UserTableComponent</title>
<polygon fill="#ffffb3" stroke="black" points="163.64,-84.8 24.36,-84.8 24.36,-48.8 163.64,-48.8 163.64,-84.8"/>
<text text-anchor="middle" x="94" y="-62.6" font-family="Times,serif" font-size="14.00">UserTableComponent</text>
</g>
<!-- UserTableComponent&#45;&gt;UserModule -->
<g id="edge3" class="edge">
<title>UserTableComponent&#45;&gt;UserModule</title>
<path fill="none" stroke="black" d="M94,-84.91C94,-104.14 94,-131.8 94,-131.8 94,-131.8 224.86,-131.8 224.86,-131.8"/>
<polygon fill="black" stroke="black" points="224.86,-135.3 234.86,-131.8 224.86,-128.3 224.86,-135.3"/>
</g>
<!-- SharedModule -->
<g id="node5" class="node">
<title>SharedModule</title>
<polygon fill="#8dd3c7" stroke="black" points="530.43,-84.8 527.43,-88.8 506.43,-88.8 503.43,-84.8 431.57,-84.8 431.57,-48.8 530.43,-48.8 530.43,-84.8"/>
<text text-anchor="middle" x="481" y="-62.6" font-family="Times,serif" font-size="14.00">SharedModule</text>
</g>
<!-- SharedModule&#45;&gt;UserModule -->
<g id="edge4" class="edge">
<title>SharedModule&#45;&gt;UserModule</title>
<path fill="none" stroke="black" d="M481,-84.91C481,-104.14 481,-131.8 481,-131.8 481,-131.8 331.05,-131.8 331.05,-131.8"/>
<polygon fill="black" stroke="black" points="331.05,-128.3 321.05,-131.8 331.05,-135.3 331.05,-128.3"/>
</g>
</g>
</svg>
