<?xml version="1.0" encoding="UTF-8" standalone="no"?>
<!DOCTYPE svg PUBLIC "-//W3C//DTD SVG 1.1//EN"
 "http://www.w3.org/Graphics/SVG/1.1/DTD/svg11.dtd">
<!-- Generated by graphviz version 5.0.0 (20220707.1540)
 -->
<!-- Title: dependencies Pages: 1 -->
<svg width="406pt" height="174pt"
 viewBox="0.00 0.00 406.00 173.80" xmlns="http://www.w3.org/2000/svg" xmlns:xlink="http://www.w3.org/1999/xlink">
<g id="graph0" class="graph" transform="scale(1 1) rotate(0) translate(4 169.8)">
<title>dependencies</title>
<polygon fill="white" stroke="transparent" points="-4,4 -4,-169.8 402,-169.8 402,4 -4,4"/>
<text text-anchor="middle" x="199" y="-8.2" font-family="sans-serif" font-size="14.00">dependencies</text>
<g id="clust1" class="cluster">
<title>cluster_UserModule</title>
<polygon fill="none" stroke="black" stroke-dasharray="1,5" points="8,-32.8 8,-157.8 390,-157.8 390,-32.8 8,-32.8"/>
</g>
<g id="clust5" class="cluster">
<title>cluster_UserModule_imports</title>
<polygon fill="none" stroke="black" points="268,-40.8 268,-92.8 382,-92.8 382,-40.8 268,-40.8"/>
</g>
<g id="clust2" class="cluster">
<title>cluster_UserModule_declarations</title>
<polygon fill="none" stroke="black" points="16,-40.8 16,-92.8 260,-92.8 260,-40.8 16,-40.8"/>
</g>
<!-- UserPage -->
<g id="node1" class="node">
<title>UserPage</title>
<polygon fill="#ffffb3" stroke="black" points="251.65,-84.8 182.35,-84.8 182.35,-48.8 251.65,-48.8 251.65,-84.8"/>
<text text-anchor="middle" x="217" y="-62.6" font-family="Times,serif" font-size="14.00">UserPage</text>
</g>
<!-- UserModule -->
<g id="node3" class="node">
<title>UserModule</title>
<polygon fill="#8dd3c7" stroke="black" points="259.99,-149.8 256.99,-153.8 235.99,-153.8 232.99,-149.8 174.01,-149.8 174.01,-113.8 259.99,-113.8 259.99,-149.8"/>
<text text-anchor="middle" x="217" y="-127.6" font-family="Times,serif" font-size="14.00">UserModule</text>
</g>
<!-- UserPage&#45;&gt;UserModule -->
<g id="edge1" class="edge">
<title>UserPage&#45;&gt;UserModule</title>
<path fill="none" stroke="black" d="M217,-84.91C217,-84.91 217,-103.79 217,-103.79"/>
<polygon fill="black" stroke="black" points="213.5,-103.79 217,-113.79 220.5,-103.79 213.5,-103.79"/>
</g>
<!-- UserTableComponent -->
<g id="node2" class="node">
<title>UserTableComponent</title>
<polygon fill="#ffffb3" stroke="black" points="163.64,-84.8 24.36,-84.8 24.36,-48.8 163.64,-48.8 163.64,-84.8"/>
<text text-anchor="middle" x="94" y="-62.6" font-family="Times,serif" font-size="14.00">UserTableComponent</text>
</g>
<!-- UserTableComponent&#45;&gt;UserModule -->
<g id="edge2" class="edge">
<title>UserTableComponent&#45;&gt;UserModule</title>
<path fill="none" stroke="black" d="M163.83,-66.8C172.33,-66.8 178.09,-66.8 178.09,-66.8 178.09,-66.8 178.09,-103.69 178.09,-103.69"/>
<polygon fill="black" stroke="black" points="174.59,-103.69 178.09,-113.69 181.59,-103.69 174.59,-103.69"/>
</g>
<!-- SharedModule -->
<g id="node4" class="node">
<title>SharedModule</title>
<polygon fill="#8dd3c7" stroke="black" points="374.43,-84.8 371.43,-88.8 350.43,-88.8 347.43,-84.8 275.57,-84.8 275.57,-48.8 374.43,-48.8 374.43,-84.8"/>
<text text-anchor="middle" x="325" y="-62.6" font-family="Times,serif" font-size="14.00">SharedModule</text>
</g>
<!-- SharedModule&#45;&gt;UserModule -->
<g id="edge3" class="edge">
<title>SharedModule&#45;&gt;UserModule</title>
<path fill="none" stroke="black" d="M275.52,-66.8C264.45,-66.8 255.91,-66.8 255.91,-66.8 255.91,-66.8 255.91,-103.69 255.91,-103.69"/>
<polygon fill="black" stroke="black" points="252.41,-103.69 255.91,-113.69 259.41,-103.69 252.41,-103.69"/>
</g>
</g>
</svg>
