<?xml version="1.0" encoding="UTF-8" standalone="no"?>
<!DOCTYPE svg PUBLIC "-//W3C//DTD SVG 1.1//EN"
 "http://www.w3.org/Graphics/SVG/1.1/DTD/svg11.dtd">
<!-- Generated by graphviz version 5.0.0 (20220707.1540)
 -->
<!-- Title: dependencies Pages: 1 -->
<svg width="951pt" height="174pt"
 viewBox="0.00 0.00 951.00 173.80" xmlns="http://www.w3.org/2000/svg" xmlns:xlink="http://www.w3.org/1999/xlink">
<g id="graph0" class="graph" transform="scale(1 1) rotate(0) translate(4 169.8)">
<title>dependencies</title>
<polygon fill="white" stroke="transparent" points="-4,4 -4,-169.8 947,-169.8 947,4 -4,4"/>
<text text-anchor="middle" x="471.5" y="-8.2" font-family="sans-serif" font-size="14.00">dependencies</text>
<g id="clust1" class="cluster">
<title>cluster_BouncyHouseModule</title>
<polygon fill="none" stroke="black" stroke-dasharray="1,5" points="8,-32.8 8,-157.8 935,-157.8 935,-32.8 8,-32.8"/>
</g>
<g id="clust2" class="cluster">
<title>cluster_BouncyHouseModule_declarations</title>
<polygon fill="none" stroke="black" points="236,-40.8 236,-92.8 927,-92.8 927,-40.8 236,-40.8"/>
</g>
<g id="clust7" class="cluster">
<title>cluster_BouncyHouseModule_imports</title>
<polygon fill="none" stroke="black" points="16,-40.8 16,-92.8 228,-92.8 228,-40.8 16,-40.8"/>
</g>
<!-- BouncyHouseDetailComponent -->
<g id="node1" class="node">
<title>BouncyHouseDetailComponent</title>
<polygon fill="#ffffb3" stroke="black" points="919.36,-84.8 724.64,-84.8 724.64,-48.8 919.36,-48.8 919.36,-84.8"/>
<text text-anchor="middle" x="822" y="-62.6" font-family="Times,serif" font-size="14.00">BouncyHouseDetailComponent</text>
</g>
<!-- BouncyHouseModule -->
<g id="node5" class="node">
<title>BouncyHouseModule</title>
<polygon fill="#8dd3c7" stroke="black" points="480.38,-149.8 477.38,-153.8 456.38,-153.8 453.38,-149.8 341.62,-149.8 341.62,-113.8 480.38,-113.8 480.38,-149.8"/>
<text text-anchor="middle" x="411" y="-127.6" font-family="Times,serif" font-size="14.00">BouncyHouseModule</text>
</g>
<!-- BouncyHouseDetailComponent&#45;&gt;BouncyHouseModule -->
<g id="edge1" class="edge">
<title>BouncyHouseDetailComponent&#45;&gt;BouncyHouseModule</title>
<path fill="none" stroke="black" d="M822,-85.08C822,-106.12 822,-137.8 822,-137.8 822,-137.8 490.72,-137.8 490.72,-137.8"/>
<polygon fill="black" stroke="black" points="490.72,-134.3 480.72,-137.8 490.72,-141.3 490.72,-134.3"/>
</g>
<!-- BouncyHousePage -->
<g id="node2" class="node">
<title>BouncyHousePage</title>
<polygon fill="#ffffb3" stroke="black" points="706.04,-84.8 583.96,-84.8 583.96,-48.8 706.04,-48.8 706.04,-84.8"/>
<text text-anchor="middle" x="645" y="-62.6" font-family="Times,serif" font-size="14.00">BouncyHousePage</text>
</g>
<!-- BouncyHousePage&#45;&gt;BouncyHouseModule -->
<g id="edge2" class="edge">
<title>BouncyHousePage&#45;&gt;BouncyHouseModule</title>
<path fill="none" stroke="black" d="M645,-84.82C645,-102.17 645,-125.8 645,-125.8 645,-125.8 490.57,-125.8 490.57,-125.8"/>
<polygon fill="black" stroke="black" points="490.57,-122.3 480.57,-125.8 490.57,-129.3 490.57,-122.3"/>
</g>
<!-- RatingListComponent -->
<g id="node3" class="node">
<title>RatingListComponent</title>
<polygon fill="#ffffb3" stroke="black" points="566.44,-84.8 425.56,-84.8 425.56,-48.8 566.44,-48.8 566.44,-84.8"/>
<text text-anchor="middle" x="496" y="-62.6" font-family="Times,serif" font-size="14.00">RatingListComponent</text>
</g>
<!-- RatingListComponent&#45;&gt;BouncyHouseModule -->
<g id="edge3" class="edge">
<title>RatingListComponent&#45;&gt;BouncyHouseModule</title>
<path fill="none" stroke="black" d="M453.11,-84.91C453.11,-84.91 453.11,-103.79 453.11,-103.79"/>
<polygon fill="black" stroke="black" points="449.61,-103.79 453.11,-113.79 456.61,-103.79 449.61,-103.79"/>
</g>
<!-- RatingPreviewComponent -->
<g id="node4" class="node">
<title>RatingPreviewComponent</title>
<polygon fill="#ffffb3" stroke="black" points="408.04,-84.8 243.96,-84.8 243.96,-48.8 408.04,-48.8 408.04,-84.8"/>
<text text-anchor="middle" x="326" y="-62.6" font-family="Times,serif" font-size="14.00">RatingPreviewComponent</text>
</g>
<!-- RatingPreviewComponent&#45;&gt;BouncyHouseModule -->
<g id="edge4" class="edge">
<title>RatingPreviewComponent&#45;&gt;BouncyHouseModule</title>
<path fill="none" stroke="black" d="M374.92,-84.91C374.92,-84.91 374.92,-103.79 374.92,-103.79"/>
<polygon fill="black" stroke="black" points="371.42,-103.79 374.92,-113.79 378.42,-103.79 371.42,-103.79"/>
</g>
<!-- RouterLink -->
<g id="node6" class="node">
<title>RouterLink</title>
<polygon fill="#8dd3c7" stroke="black" points="220.05,-84.8 217.05,-88.8 196.05,-88.8 193.05,-84.8 139.95,-84.8 139.95,-48.8 220.05,-48.8 220.05,-84.8"/>
<text text-anchor="middle" x="180" y="-62.6" font-family="Times,serif" font-size="14.00">RouterLink</text>
</g>
<!-- RouterLink&#45;&gt;BouncyHouseModule -->
<g id="edge5" class="edge">
<title>RouterLink&#45;&gt;BouncyHouseModule</title>
<path fill="none" stroke="black" d="M180,-84.82C180,-102.17 180,-125.8 180,-125.8 180,-125.8 331.38,-125.8 331.38,-125.8"/>
<polygon fill="black" stroke="black" points="331.38,-129.3 341.38,-125.8 331.38,-122.3 331.38,-129.3"/>
</g>
<!-- SharedModule -->
<g id="node7" class="node">
<title>SharedModule</title>
<polygon fill="#8dd3c7" stroke="black" points="122.43,-84.8 119.43,-88.8 98.43,-88.8 95.43,-84.8 23.57,-84.8 23.57,-48.8 122.43,-48.8 122.43,-84.8"/>
<text text-anchor="middle" x="73" y="-62.6" font-family="Times,serif" font-size="14.00">SharedModule</text>
</g>
<!-- SharedModule&#45;&gt;BouncyHouseModule -->
<g id="edge6" class="edge">
<title>SharedModule&#45;&gt;BouncyHouseModule</title>
<path fill="none" stroke="black" d="M73,-85.08C73,-106.12 73,-137.8 73,-137.8 73,-137.8 331.38,-137.8 331.38,-137.8"/>
<polygon fill="black" stroke="black" points="331.38,-141.3 341.38,-137.8 331.38,-134.3 331.38,-141.3"/>
</g>
</g>
</svg>
