<?xml version="1.0" encoding="UTF-8" standalone="no"?>
<!DOCTYPE svg PUBLIC "-//W3C//DTD SVG 1.1//EN"
 "http://www.w3.org/Graphics/SVG/1.1/DTD/svg11.dtd">
<!-- Generated by graphviz version 5.0.0 (20220707.1540)
 -->
<!-- Title: dependencies Pages: 1 -->
<svg width="1267pt" height="174pt"
 viewBox="0.00 0.00 1267.00 173.80" xmlns="http://www.w3.org/2000/svg" xmlns:xlink="http://www.w3.org/1999/xlink">
<g id="graph0" class="graph" transform="scale(1 1) rotate(0) translate(4 169.8)">
<title>dependencies</title>
<polygon fill="white" stroke="transparent" points="-4,4 -4,-169.8 1263,-169.8 1263,4 -4,4"/>
<text text-anchor="middle" x="629.5" y="-8.2" font-family="sans-serif" font-size="14.00">dependencies</text>
<g id="clust1" class="cluster">
<title>cluster_RentedModule</title>
<polygon fill="none" stroke="black" stroke-dasharray="1,5" points="8,-32.8 8,-157.8 1251,-157.8 1251,-32.8 8,-32.8"/>
</g>
<g id="clust10" class="cluster">
<title>cluster_RentedModule_imports</title>
<polygon fill="none" stroke="black" points="1129,-40.8 1129,-92.8 1243,-92.8 1243,-40.8 1129,-40.8"/>
</g>
<g id="clust2" class="cluster">
<title>cluster_RentedModule_declarations</title>
<polygon fill="none" stroke="black" points="16,-40.8 16,-92.8 1121,-92.8 1121,-40.8 16,-40.8"/>
</g>
<!-- BouncyHouseDetailComponent -->
<g id="node1" class="node">
<title>BouncyHouseDetailComponent</title>
<polygon fill="#ffffb3" stroke="black" points="1113.36,-84.8 918.64,-84.8 918.64,-48.8 1113.36,-48.8 1113.36,-84.8"/>
<text text-anchor="middle" x="1016" y="-62.6" font-family="Times,serif" font-size="14.00">BouncyHouseDetailComponent</text>
</g>
<!-- RentedModule -->
<g id="node8" class="node">
<title>RentedModule</title>
<polygon fill="#8dd3c7" stroke="black" points="686.71,-149.8 683.71,-153.8 662.71,-153.8 659.71,-149.8 587.29,-149.8 587.29,-113.8 686.71,-113.8 686.71,-149.8"/>
<text text-anchor="middle" x="637" y="-127.6" font-family="Times,serif" font-size="14.00">RentedModule</text>
</g>
<!-- BouncyHouseDetailComponent&#45;&gt;RentedModule -->
<g id="edge1" class="edge">
<title>BouncyHouseDetailComponent&#45;&gt;RentedModule</title>
<path fill="none" stroke="black" d="M1016,-84.91C1016,-104.14 1016,-131.8 1016,-131.8 1016,-131.8 696.94,-131.8 696.94,-131.8"/>
<polygon fill="black" stroke="black" points="696.94,-128.3 686.94,-131.8 696.94,-135.3 696.94,-128.3"/>
</g>
<!-- RentedActivePage -->
<g id="node2" class="node">
<title>RentedActivePage</title>
<polygon fill="#ffffb3" stroke="black" points="900.19,-84.8 779.81,-84.8 779.81,-48.8 900.19,-48.8 900.19,-84.8"/>
<text text-anchor="middle" x="840" y="-62.6" font-family="Times,serif" font-size="14.00">RentedActivePage</text>
</g>
<!-- RentedActivePage&#45;&gt;RentedModule -->
<g id="edge2" class="edge">
<title>RentedActivePage&#45;&gt;RentedModule</title>
<path fill="none" stroke="black" d="M840,-84.83C840,-101.2 840,-122.8 840,-122.8 840,-122.8 696.66,-122.8 696.66,-122.8"/>
<polygon fill="black" stroke="black" points="696.66,-119.3 686.66,-122.8 696.66,-126.3 696.66,-119.3"/>
</g>
<!-- RentedAllPage -->
<g id="node3" class="node">
<title>RentedAllPage</title>
<polygon fill="#ffffb3" stroke="black" points="762.26,-84.8 661.74,-84.8 661.74,-48.8 762.26,-48.8 762.26,-84.8"/>
<text text-anchor="middle" x="712" y="-62.6" font-family="Times,serif" font-size="14.00">RentedAllPage</text>
</g>
<!-- RentedAllPage&#45;&gt;RentedModule -->
<g id="edge3" class="edge">
<title>RentedAllPage&#45;&gt;RentedModule</title>
<path fill="none" stroke="black" d="M674.11,-84.91C674.11,-84.91 674.11,-103.79 674.11,-103.79"/>
<polygon fill="black" stroke="black" points="670.61,-103.79 674.11,-113.79 677.61,-103.79 670.61,-103.79"/>
</g>
<!-- RentedBouncyHousePage -->
<g id="node4" class="node">
<title>RentedBouncyHousePage</title>
<polygon fill="#ffffb3" stroke="black" points="644.19,-84.8 481.81,-84.8 481.81,-48.8 644.19,-48.8 644.19,-84.8"/>
<text text-anchor="middle" x="563" y="-62.6" font-family="Times,serif" font-size="14.00">RentedBouncyHousePage</text>
</g>
<!-- RentedBouncyHousePage&#45;&gt;RentedModule -->
<g id="edge4" class="edge">
<title>RentedBouncyHousePage&#45;&gt;RentedModule</title>
<path fill="none" stroke="black" d="M615.75,-84.91C615.75,-84.91 615.75,-103.79 615.75,-103.79"/>
<polygon fill="black" stroke="black" points="612.25,-103.79 615.75,-113.79 619.25,-103.79 612.25,-103.79"/>
</g>
<!-- RentedNewPage -->
<g id="node5" class="node">
<title>RentedNewPage</title>
<polygon fill="#ffffb3" stroke="black" points="463.8,-84.8 354.2,-84.8 354.2,-48.8 463.8,-48.8 463.8,-84.8"/>
<text text-anchor="middle" x="409" y="-62.6" font-family="Times,serif" font-size="14.00">RentedNewPage</text>
</g>
<!-- RentedNewPage&#45;&gt;RentedModule -->
<g id="edge5" class="edge">
<title>RentedNewPage&#45;&gt;RentedModule</title>
<path fill="none" stroke="black" d="M409,-84.83C409,-101.2 409,-122.8 409,-122.8 409,-122.8 577.25,-122.8 577.25,-122.8"/>
<polygon fill="black" stroke="black" points="577.25,-126.3 587.25,-122.8 577.25,-119.3 577.25,-126.3"/>
</g>
<!-- RentedTableComponent -->
<g id="node6" class="node">
<title>RentedTableComponent</title>
<polygon fill="#ffffb3" stroke="black" points="336.36,-84.8 183.64,-84.8 183.64,-48.8 336.36,-48.8 336.36,-84.8"/>
<text text-anchor="middle" x="260" y="-62.6" font-family="Times,serif" font-size="14.00">RentedTableComponent</text>
</g>
<!-- RentedTableComponent&#45;&gt;RentedModule -->
<g id="edge6" class="edge">
<title>RentedTableComponent&#45;&gt;RentedModule</title>
<path fill="none" stroke="black" d="M260,-84.91C260,-104.14 260,-131.8 260,-131.8 260,-131.8 577.33,-131.8 577.33,-131.8"/>
<polygon fill="black" stroke="black" points="577.33,-135.3 587.33,-131.8 577.33,-128.3 577.33,-135.3"/>
</g>
<!-- UserDetailComponent -->
<g id="node7" class="node">
<title>UserDetailComponent</title>
<polygon fill="#ffffb3" stroke="black" points="165.97,-84.8 24.03,-84.8 24.03,-48.8 165.97,-48.8 165.97,-84.8"/>
<text text-anchor="middle" x="95" y="-62.6" font-family="Times,serif" font-size="14.00">UserDetailComponent</text>
</g>
<!-- UserDetailComponent&#45;&gt;RentedModule -->
<g id="edge7" class="edge">
<title>UserDetailComponent&#45;&gt;RentedModule</title>
<path fill="none" stroke="black" d="M95,-85.09C95,-107.01 95,-140.8 95,-140.8 95,-140.8 576.98,-140.8 576.98,-140.8"/>
<polygon fill="black" stroke="black" points="576.98,-144.3 586.98,-140.8 576.98,-137.3 576.98,-144.3"/>
</g>
<!-- SharedModule -->
<g id="node9" class="node">
<title>SharedModule</title>
<polygon fill="#8dd3c7" stroke="black" points="1235.43,-84.8 1232.43,-88.8 1211.43,-88.8 1208.43,-84.8 1136.57,-84.8 1136.57,-48.8 1235.43,-48.8 1235.43,-84.8"/>
<text text-anchor="middle" x="1186" y="-62.6" font-family="Times,serif" font-size="14.00">SharedModule</text>
</g>
<!-- SharedModule&#45;&gt;RentedModule -->
<g id="edge8" class="edge">
<title>SharedModule&#45;&gt;RentedModule</title>
<path fill="none" stroke="black" d="M1186,-85.09C1186,-107.01 1186,-140.8 1186,-140.8 1186,-140.8 696.69,-140.8 696.69,-140.8"/>
<polygon fill="black" stroke="black" points="696.69,-137.3 686.69,-140.8 696.69,-144.3 696.69,-137.3"/>
</g>
</g>
</svg>
