<?xml version="1.0" encoding="UTF-8" standalone="no"?>
<!DOCTYPE svg PUBLIC "-//W3C//DTD SVG 1.1//EN"
 "http://www.w3.org/Graphics/SVG/1.1/DTD/svg11.dtd">
<!-- Generated by graphviz version 5.0.0 (20220707.1540)
 -->
<!-- Title: dependencies Pages: 1 -->
<svg width="716pt" height="174pt"
 viewBox="0.00 0.00 716.00 173.80" xmlns="http://www.w3.org/2000/svg" xmlns:xlink="http://www.w3.org/1999/xlink">
<g id="graph0" class="graph" transform="scale(1 1) rotate(0) translate(4 169.8)">
<title>dependencies</title>
<polygon fill="white" stroke="transparent" points="-4,4 -4,-169.8 712,-169.8 712,4 -4,4"/>
<text text-anchor="middle" x="354" y="-8.2" font-family="sans-serif" font-size="14.00">dependencies</text>
<g id="clust1" class="cluster">
<title>cluster_RentingModule</title>
<polygon fill="none" stroke="black" stroke-dasharray="1,5" points="8,-32.8 8,-157.8 700,-157.8 700,-32.8 8,-32.8"/>
</g>
<g id="clust6" class="cluster">
<title>cluster_RentingModule_imports</title>
<polygon fill="none" stroke="black" points="480,-40.8 480,-92.8 692,-92.8 692,-40.8 480,-40.8"/>
</g>
<g id="clust2" class="cluster">
<title>cluster_RentingModule_declarations</title>
<polygon fill="none" stroke="black" points="16,-40.8 16,-92.8 472,-92.8 472,-40.8 16,-40.8"/>
</g>
<!-- RentingDetailComponent -->
<g id="node1" class="node">
<title>RentingDetailComponent</title>
<polygon fill="#ffffb3" stroke="black" points="463.87,-84.8 304.13,-84.8 304.13,-48.8 463.87,-48.8 463.87,-84.8"/>
<text text-anchor="middle" x="384" y="-62.6" font-family="Times,serif" font-size="14.00">RentingDetailComponent</text>
</g>
<!-- RentingModule -->
<g id="node4" class="node">
<title>RentingModule</title>
<polygon fill="#8dd3c7" stroke="black" points="435.88,-149.8 432.88,-153.8 411.88,-153.8 408.88,-149.8 332.12,-149.8 332.12,-113.8 435.88,-113.8 435.88,-149.8"/>
<text text-anchor="middle" x="384" y="-127.6" font-family="Times,serif" font-size="14.00">RentingModule</text>
</g>
<!-- RentingDetailComponent&#45;&gt;RentingModule -->
<g id="edge1" class="edge">
<title>RentingDetailComponent&#45;&gt;RentingModule</title>
<path fill="none" stroke="black" d="M384,-84.91C384,-84.91 384,-103.79 384,-103.79"/>
<polygon fill="black" stroke="black" points="380.5,-103.79 384,-113.79 387.5,-103.79 380.5,-103.79"/>
</g>
<!-- RentingFormComponent -->
<g id="node2" class="node">
<title>RentingFormComponent</title>
<polygon fill="#ffffb3" stroke="black" points="286,-84.8 130,-84.8 130,-48.8 286,-48.8 286,-84.8"/>
<text text-anchor="middle" x="208" y="-62.6" font-family="Times,serif" font-size="14.00">RentingFormComponent</text>
</g>
<!-- RentingFormComponent&#45;&gt;RentingModule -->
<g id="edge2" class="edge">
<title>RentingFormComponent&#45;&gt;RentingModule</title>
<path fill="none" stroke="black" d="M208,-84.82C208,-102.17 208,-125.8 208,-125.8 208,-125.8 321.67,-125.8 321.67,-125.8"/>
<polygon fill="black" stroke="black" points="321.67,-129.3 331.67,-125.8 321.67,-122.3 321.67,-129.3"/>
</g>
<!-- RentingPage -->
<g id="node3" class="node">
<title>RentingPage</title>
<polygon fill="#ffffb3" stroke="black" points="111.55,-84.8 24.45,-84.8 24.45,-48.8 111.55,-48.8 111.55,-84.8"/>
<text text-anchor="middle" x="68" y="-62.6" font-family="Times,serif" font-size="14.00">RentingPage</text>
</g>
<!-- RentingPage&#45;&gt;RentingModule -->
<g id="edge3" class="edge">
<title>RentingPage&#45;&gt;RentingModule</title>
<path fill="none" stroke="black" d="M68,-85.08C68,-106.12 68,-137.8 68,-137.8 68,-137.8 321.82,-137.8 321.82,-137.8"/>
<polygon fill="black" stroke="black" points="321.82,-141.3 331.82,-137.8 321.82,-134.3 321.82,-141.3"/>
</g>
<!-- RouterLink -->
<g id="node5" class="node">
<title>RouterLink</title>
<polygon fill="#8dd3c7" stroke="black" points="684.05,-84.8 681.05,-88.8 660.05,-88.8 657.05,-84.8 603.95,-84.8 603.95,-48.8 684.05,-48.8 684.05,-84.8"/>
<text text-anchor="middle" x="644" y="-62.6" font-family="Times,serif" font-size="14.00">RouterLink</text>
</g>
<!-- RouterLink&#45;&gt;RentingModule -->
<g id="edge4" class="edge">
<title>RouterLink&#45;&gt;RentingModule</title>
<path fill="none" stroke="black" d="M644,-85.08C644,-106.12 644,-137.8 644,-137.8 644,-137.8 445.99,-137.8 445.99,-137.8"/>
<polygon fill="black" stroke="black" points="445.99,-134.3 435.99,-137.8 445.99,-141.3 445.99,-134.3"/>
</g>
<!-- SharedModule -->
<g id="node6" class="node">
<title>SharedModule</title>
<polygon fill="#8dd3c7" stroke="black" points="586.43,-84.8 583.43,-88.8 562.43,-88.8 559.43,-84.8 487.57,-84.8 487.57,-48.8 586.43,-48.8 586.43,-84.8"/>
<text text-anchor="middle" x="537" y="-62.6" font-family="Times,serif" font-size="14.00">SharedModule</text>
</g>
<!-- SharedModule&#45;&gt;RentingModule -->
<g id="edge5" class="edge">
<title>SharedModule&#45;&gt;RentingModule</title>
<path fill="none" stroke="black" d="M537,-84.82C537,-102.17 537,-125.8 537,-125.8 537,-125.8 446.23,-125.8 446.23,-125.8"/>
<polygon fill="black" stroke="black" points="446.23,-122.3 436.23,-125.8 446.23,-129.3 446.23,-122.3"/>
</g>
</g>
</svg>
