<?xml version="1.0" encoding="UTF-8" standalone="no"?>
<!DOCTYPE svg PUBLIC "-//W3C//DTD SVG 1.1//EN"
 "http://www.w3.org/Graphics/SVG/1.1/DTD/svg11.dtd">
<!-- Generated by graphviz version 5.0.0 (20220707.1540)
 -->
<!-- Title: dependencies Pages: 1 -->
<svg width="348pt" height="247pt"
 viewBox="0.00 0.00 348.00 246.80" xmlns="http://www.w3.org/2000/svg" xmlns:xlink="http://www.w3.org/1999/xlink">
<g id="graph0" class="graph" transform="scale(1 1) rotate(0) translate(4 242.8)">
<title>dependencies</title>
<polygon fill="white" stroke="transparent" points="-4,4 -4,-242.8 344,-242.8 344,4 -4,4"/>
<text text-anchor="middle" x="170" y="-8.2" font-family="sans-serif" font-size="14.00">dependencies</text>
<g id="clust1" class="cluster">
<title>cluster_SharedModule</title>
<polygon fill="none" stroke="black" stroke-dasharray="1,5" points="8,-32.8 8,-230.8 332,-230.8 332,-32.8 8,-32.8"/>
</g>
<g id="clust2" class="cluster">
<title>cluster_SharedModule_declarations</title>
<polygon fill="none" stroke="black" points="20,-40.8 20,-92.8 320,-92.8 320,-40.8 20,-40.8"/>
</g>
<g id="clust6" class="cluster">
<title>cluster_SharedModule_exports</title>
<polygon fill="none" stroke="black" points="16,-170.8 16,-222.8 324,-222.8 324,-170.8 16,-170.8"/>
</g>
<!-- DeleteButtonComponent -->
<g id="node1" class="node">
<title>DeleteButtonComponent</title>
<polygon fill="#ffffb3" stroke="black" points="311.98,-84.8 156.02,-84.8 156.02,-48.8 311.98,-48.8 311.98,-84.8"/>
<text text-anchor="middle" x="234" y="-62.6" font-family="Times,serif" font-size="14.00">DeleteButtonComponent</text>
</g>
<!-- SharedModule -->
<g id="node3" class="node">
<title>SharedModule</title>
<polygon fill="#8dd3c7" stroke="black" points="133.43,-149.8 130.43,-153.8 109.43,-153.8 106.43,-149.8 34.57,-149.8 34.57,-113.8 133.43,-113.8 133.43,-149.8"/>
<text text-anchor="middle" x="84" y="-127.6" font-family="Times,serif" font-size="14.00">SharedModule</text>
</g>
<!-- DeleteButtonComponent&#45;&gt;SharedModule -->
<g id="edge1" class="edge">
<title>DeleteButtonComponent&#45;&gt;SharedModule</title>
<path fill="none" stroke="black" d="M260.08,-84.82C260.08,-102.17 260.08,-125.8 260.08,-125.8 260.08,-125.8 143.52,-125.8 143.52,-125.8"/>
<polygon fill="black" stroke="black" points="143.52,-122.3 133.52,-125.8 143.52,-129.3 143.52,-122.3"/>
</g>
<!-- ShellComponent -->
<g id="node2" class="node">
<title>ShellComponent</title>
<polygon fill="#ffffb3" stroke="black" points="138.11,-84.8 27.89,-84.8 27.89,-48.8 138.11,-48.8 138.11,-84.8"/>
<text text-anchor="middle" x="83" y="-62.6" font-family="Times,serif" font-size="14.00">ShellComponent</text>
</g>
<!-- ShellComponent&#45;&gt;SharedModule -->
<g id="edge2" class="edge">
<title>ShellComponent&#45;&gt;SharedModule</title>
<path fill="none" stroke="black" d="M84,-84.91C84,-84.91 84,-103.79 84,-103.79"/>
<polygon fill="black" stroke="black" points="80.5,-103.79 84,-113.79 87.5,-103.79 80.5,-103.79"/>
</g>
<!-- DeleteButtonComponent  -->
<g id="node4" class="node">
<title>DeleteButtonComponent </title>
<polygon fill="#fb8072" stroke="black" points="315.98,-214.8 156.02,-214.8 156.02,-178.8 315.98,-178.8 315.98,-214.8"/>
<text text-anchor="middle" x="236" y="-192.6" font-family="Times,serif" font-size="14.00">DeleteButtonComponent </text>
</g>
<!-- SharedModule&#45;&gt;DeleteButtonComponent  -->
<g id="edge3" class="edge">
<title>SharedModule&#45;&gt;DeleteButtonComponent </title>
<path fill="none" stroke="black" stroke-dasharray="5,2" d="M133.43,-137.8C168.06,-137.8 208.17,-137.8 208.17,-137.8 208.17,-137.8 208.17,-168.78 208.17,-168.78"/>
<polygon fill="black" stroke="black" points="204.67,-168.78 208.17,-178.78 211.67,-168.78 204.67,-168.78"/>
</g>
<!-- ShellComponent  -->
<g id="node5" class="node">
<title>ShellComponent </title>
<polygon fill="#fb8072" stroke="black" points="137.61,-214.8 24.39,-214.8 24.39,-178.8 137.61,-178.8 137.61,-214.8"/>
<text text-anchor="middle" x="81" y="-192.6" font-family="Times,serif" font-size="14.00">ShellComponent </text>
</g>
<!-- SharedModule&#45;&gt;ShellComponent  -->
<g id="edge4" class="edge">
<title>SharedModule&#45;&gt;ShellComponent </title>
<path fill="none" stroke="black" stroke-dasharray="5,2" d="M84,-149.91C84,-149.91 84,-168.79 84,-168.79"/>
<polygon fill="black" stroke="black" points="80.5,-168.79 84,-178.79 87.5,-168.79 80.5,-168.79"/>
</g>
</g>
</svg>
