<?xml version="1.0" encoding="UTF-8" standalone="no"?>
<!DOCTYPE svg PUBLIC "-//W3C//DTD SVG 1.1//EN"
 "http://www.w3.org/Graphics/SVG/1.1/DTD/svg11.dtd">
<!-- Generated by graphviz version 5.0.0 (20220707.1540)
 -->
<!-- Title: dependencies Pages: 1 -->
<svg width="3733pt" height="323pt"
 viewBox="0.00 0.00 3733.00 322.80" xmlns="http://www.w3.org/2000/svg" xmlns:xlink="http://www.w3.org/1999/xlink">
<g id="graph0" class="graph" transform="scale(1 1) rotate(0) translate(4 318.8)">
<title>dependencies</title>
<polygon fill="white" stroke="transparent" points="-4,4 -4,-318.8 3729,-318.8 3729,4 -4,4"/>
<text text-anchor="middle" x="1862.5" y="-8.2" font-family="sans-serif" font-size="14.00">dependencies</text>
<g id="clust1" class="cluster">
<title>cluster_AppModule</title>
<polygon fill="none" stroke="black" stroke-dasharray="1,5" points="2415,-32.8 2415,-306.8 3077,-306.8 3077,-32.8 2415,-32.8"/>
</g>
<g id="clust2" class="cluster">
<title>cluster_AppModule_declarations</title>
<polygon fill="none" stroke="black" points="2947,-116.8 2947,-168.8 3069,-168.8 3069,-116.8 2947,-116.8"/>
</g>
<g id="clust4" class="cluster">
<title>cluster_AppModule_imports</title>
<polygon fill="none" stroke="black" points="2423,-40.8 2423,-168.8 2905,-168.8 2905,-40.8 2423,-40.8"/>
</g>
<g id="clust6" class="cluster">
<title>cluster_AppModule_bootstrap</title>
<polygon fill="none" stroke="black" points="2792,-246.8 2792,-298.8 2916,-298.8 2916,-246.8 2792,-246.8"/>
</g>
<g id="clust14" class="cluster">
<title>cluster_AuthModule</title>
<polygon fill="none" stroke="black" stroke-dasharray="1,5" points="8,-32.8 8,-100.8 116,-100.8 116,-32.8 8,-32.8"/>
</g>
<g id="clust15" class="cluster">
<title>cluster_AuthModule_declarations</title>
<polygon fill="none" stroke="black" points="16,-40.8 16,-92.8 108,-92.8 108,-40.8 16,-40.8"/>
</g>
<g id="clust21" class="cluster">
<title>cluster_BouncyHouseModule</title>
<polygon fill="none" stroke="black" stroke-dasharray="1,5" points="124,-32.8 124,-100.8 1011,-100.8 1011,-32.8 124,-32.8"/>
</g>
<g id="clust22" class="cluster">
<title>cluster_BouncyHouseModule_declarations</title>
<polygon fill="none" stroke="black" points="236,-40.8 236,-92.8 1003,-92.8 1003,-40.8 236,-40.8"/>
</g>
<g id="clust27" class="cluster">
<title>cluster_BouncyHouseModule_imports</title>
<polygon fill="none" stroke="black" points="132,-40.8 132,-92.8 228,-92.8 228,-40.8 132,-40.8"/>
</g>
<g id="clust37" class="cluster">
<title>cluster_RentedModule</title>
<polygon fill="none" stroke="black" stroke-dasharray="1,5" points="1019,-32.8 1019,-100.8 2139,-100.8 2139,-32.8 1019,-32.8"/>
</g>
<g id="clust38" class="cluster">
<title>cluster_RentedModule_declarations</title>
<polygon fill="none" stroke="black" points="1027,-40.8 1027,-92.8 2131,-92.8 2131,-40.8 1027,-40.8"/>
</g>
<g id="clust50" class="cluster">
<title>cluster_SharedModule</title>
<polygon fill="none" stroke="black" stroke-dasharray="1,5" points="3085,-108.8 3085,-176.8 3717,-176.8 3717,-108.8 3085,-108.8"/>
</g>
<g id="clust51" class="cluster">
<title>cluster_SharedModule_declarations</title>
<polygon fill="none" stroke="black" points="3409,-116.8 3409,-168.8 3709,-168.8 3709,-116.8 3409,-116.8"/>
</g>
<g id="clust55" class="cluster">
<title>cluster_SharedModule_exports</title>
<polygon fill="none" stroke="black" points="3093,-116.8 3093,-168.8 3401,-168.8 3401,-116.8 3093,-116.8"/>
</g>
<g id="clust58" class="cluster">
<title>cluster_UserModule</title>
<polygon fill="none" stroke="black" stroke-dasharray="1,5" points="2147,-32.8 2147,-100.8 2407,-100.8 2407,-32.8 2147,-32.8"/>
</g>
<g id="clust59" class="cluster">
<title>cluster_UserModule_declarations</title>
<polygon fill="none" stroke="black" points="2155,-40.8 2155,-92.8 2399,-92.8 2399,-40.8 2155,-40.8"/>
</g>
<!-- AppComponent -->
<g id="node1" class="node">
<title>AppComponent</title>
<polygon fill="#ffffb3" stroke="black" points="3060.94,-160.8 2955.06,-160.8 2955.06,-124.8 3060.94,-124.8 3060.94,-160.8"/>
<text text-anchor="middle" x="3008" y="-138.6" font-family="Times,serif" font-size="14.00">AppComponent</text>
</g>
<!-- AppModule -->
<g id="node2" class="node">
<title>AppModule</title>
<polygon fill="#8dd3c7" stroke="black" points="2895.66,-225.8 2892.66,-229.8 2871.66,-229.8 2868.66,-225.8 2812.34,-225.8 2812.34,-189.8 2895.66,-189.8 2895.66,-225.8"/>
<text text-anchor="middle" x="2854" y="-203.6" font-family="Times,serif" font-size="14.00">AppModule</text>
</g>
<!-- AppComponent&#45;&gt;AppModule -->
<g id="edge1" class="edge">
<title>AppComponent&#45;&gt;AppModule</title>
<path fill="none" stroke="black" d="M3008,-160.91C3008,-180.14 3008,-207.8 3008,-207.8 3008,-207.8 2905.67,-207.8 2905.67,-207.8"/>
<polygon fill="black" stroke="black" points="2905.67,-204.3 2895.67,-207.8 2905.67,-211.3 2905.67,-204.3"/>
</g>
<!-- AppComponent  -->
<g id="node9" class="node">
<title>AppComponent </title>
<polygon fill="#80b1d3" stroke="black" points="2908.44,-290.8 2799.56,-290.8 2799.56,-254.8 2908.44,-254.8 2908.44,-290.8"/>
<text text-anchor="middle" x="2854" y="-268.6" font-family="Times,serif" font-size="14.00">AppComponent </text>
</g>
<!-- AppModule&#45;&gt;AppComponent  -->
<g id="edge8" class="edge">
<title>AppModule&#45;&gt;AppComponent </title>
<path fill="none" stroke="black" stroke-dasharray="1,5" d="M2854,-225.91C2854,-225.91 2854,-244.79 2854,-244.79"/>
<polygon fill="black" stroke="black" points="2850.5,-244.79 2854,-254.79 2857.5,-244.79 2850.5,-244.79"/>
</g>
<!-- AppRoutingModule -->
<g id="node3" class="node">
<title>AppRoutingModule</title>
<polygon fill="#8dd3c7" stroke="black" points="2780.28,-84.8 2777.28,-88.8 2756.28,-88.8 2753.28,-84.8 2651.72,-84.8 2651.72,-48.8 2780.28,-48.8 2780.28,-84.8"/>
<text text-anchor="middle" x="2716" y="-62.6" font-family="Times,serif" font-size="14.00">AppRoutingModule</text>
</g>
<!-- AppRoutingModule&#45;&gt;AppModule -->
<g id="edge2" class="edge">
<title>AppRoutingModule&#45;&gt;AppModule</title>
<path fill="none" stroke="black" d="M2684.42,-84.94C2684.42,-123.03 2684.42,-207.8 2684.42,-207.8 2684.42,-207.8 2802.08,-207.8 2802.08,-207.8"/>
<polygon fill="black" stroke="black" points="2802.08,-211.3 2812.08,-207.8 2802.08,-204.3 2802.08,-211.3"/>
</g>
<!-- AuthModule -->
<g id="node4" class="node">
<title>AuthModule</title>
<polygon fill="#8dd3c7" stroke="black" points="2518.55,-160.8 2515.55,-164.8 2494.55,-164.8 2491.55,-160.8 2431.45,-160.8 2431.45,-124.8 2518.55,-124.8 2518.55,-160.8"/>
<text text-anchor="middle" x="2475" y="-138.6" font-family="Times,serif" font-size="14.00">AuthModule</text>
</g>
<!-- AuthModule&#45;&gt;AppModule -->
<g id="edge3" class="edge">
<title>AuthModule&#45;&gt;AppModule</title>
<path fill="none" stroke="black" d="M2475,-161.05C2475,-183.82 2475,-219.8 2475,-219.8 2475,-219.8 2801.99,-219.8 2801.99,-219.8"/>
<polygon fill="black" stroke="black" points="2801.99,-223.3 2811.99,-219.8 2801.99,-216.3 2801.99,-223.3"/>
</g>
<!-- BouncyHouseModule -->
<g id="node5" class="node">
<title>BouncyHouseModule</title>
<polygon fill="#8dd3c7" stroke="black" points="2675.38,-160.8 2672.38,-164.8 2651.38,-164.8 2648.38,-160.8 2536.62,-160.8 2536.62,-124.8 2675.38,-124.8 2675.38,-160.8"/>
<text text-anchor="middle" x="2606" y="-138.6" font-family="Times,serif" font-size="14.00">BouncyHouseModule</text>
</g>
<!-- BouncyHouseModule&#45;&gt;AppModule -->
<g id="edge4" class="edge">
<title>BouncyHouseModule&#45;&gt;AppModule</title>
<path fill="none" stroke="black" d="M2606,-161.08C2606,-182.12 2606,-213.8 2606,-213.8 2606,-213.8 2802.21,-213.8 2802.21,-213.8"/>
<polygon fill="black" stroke="black" points="2802.21,-217.3 2812.21,-213.8 2802.21,-210.3 2802.21,-217.3"/>
</g>
<!-- RentedModule -->
<g id="node6" class="node">
<title>RentedModule</title>
<polygon fill="#8dd3c7" stroke="black" points="2792.71,-160.8 2789.71,-164.8 2768.71,-164.8 2765.71,-160.8 2693.29,-160.8 2693.29,-124.8 2792.71,-124.8 2792.71,-160.8"/>
<text text-anchor="middle" x="2743" y="-138.6" font-family="Times,serif" font-size="14.00">RentedModule</text>
</g>
<!-- RentedModule&#45;&gt;AppModule -->
<g id="edge5" class="edge">
<title>RentedModule&#45;&gt;AppModule</title>
<path fill="none" stroke="black" d="M2743,-160.82C2743,-178.17 2743,-201.8 2743,-201.8 2743,-201.8 2802.04,-201.8 2802.04,-201.8"/>
<polygon fill="black" stroke="black" points="2802.04,-205.3 2812.04,-201.8 2802.04,-198.3 2802.04,-205.3"/>
</g>
<!-- SharedModule -->
<g id="node7" class="node">
<title>SharedModule</title>
<polygon fill="#8dd3c7" stroke="black" points="2897.43,-84.8 2894.43,-88.8 2873.43,-88.8 2870.43,-84.8 2798.57,-84.8 2798.57,-48.8 2897.43,-48.8 2897.43,-84.8"/>
<text text-anchor="middle" x="2848" y="-62.6" font-family="Times,serif" font-size="14.00">SharedModule</text>
</g>
<!-- SharedModule&#45;&gt;AppModule -->
<g id="edge6" class="edge">
<title>SharedModule&#45;&gt;AppModule</title>
<path fill="none" stroke="black" d="M2808.71,-85.01C2808.71,-120.57 2808.71,-195.8 2808.71,-195.8 2808.71,-195.8 2809.07,-195.8 2809.07,-195.8"/>
<polygon fill="black" stroke="black" points="2802.27,-199.3 2812.27,-195.8 2802.26,-192.3 2802.27,-199.3"/>
</g>
<!-- SharedModule&#45;&gt;AuthModule -->
<g id="edge10" class="edge">
<title>SharedModule&#45;&gt;AuthModule</title>
<path fill="none" stroke="black" d="M2801.82,-85.08C2801.82,-100.75 2801.82,-120.8 2801.82,-120.8 2801.82,-120.8 2475,-120.8 2475,-120.8 2475,-120.8 2475,-121.18 2475,-121.18"/>
<polygon fill="black" stroke="black" points="2471.5,-114.63 2475,-124.63 2478.5,-114.63 2471.5,-114.63"/>
</g>
<!-- SharedModule&#45;&gt;BouncyHouseModule -->
<g id="edge16" class="edge">
<title>SharedModule&#45;&gt;BouncyHouseModule</title>
<path fill="none" stroke="black" d="M2804.12,-84.83C2804.12,-101.2 2804.12,-122.8 2804.12,-122.8 2804.12,-122.8 2663.52,-122.8 2663.52,-122.8 2663.52,-122.8 2663.52,-122.98 2663.52,-122.98"/>
<polygon fill="black" stroke="black" points="2660.02,-114.65 2663.52,-124.65 2667.02,-114.65 2660.02,-114.65"/>
</g>
<!-- SharedModule&#45;&gt;RentedModule -->
<g id="edge24" class="edge">
<title>SharedModule&#45;&gt;RentedModule</title>
<path fill="none" stroke="black" d="M2806.42,-84.81C2806.42,-107.29 2806.42,-142.8 2806.42,-142.8 2806.42,-142.8 2802.66,-142.8 2802.66,-142.8"/>
<polygon fill="black" stroke="black" points="2802.66,-139.3 2792.66,-142.8 2802.66,-146.3 2802.66,-139.3"/>
</g>
<!-- UserModule -->
<g id="node8" class="node">
<title>UserModule</title>
<polygon fill="#8dd3c7" stroke="black" points="2896.99,-160.8 2893.99,-164.8 2872.99,-164.8 2869.99,-160.8 2811.01,-160.8 2811.01,-124.8 2896.99,-124.8 2896.99,-160.8"/>
<text text-anchor="middle" x="2854" y="-138.6" font-family="Times,serif" font-size="14.00">UserModule</text>
</g>
<!-- SharedModule&#45;&gt;UserModule -->
<g id="edge31" class="edge">
<title>SharedModule&#45;&gt;UserModule</title>
<path fill="none" stroke="black" d="M2875.5,-84.81C2875.5,-84.81 2875.5,-114.65 2875.5,-114.65"/>
<polygon fill="black" stroke="black" points="2872,-114.65 2875.5,-124.65 2879,-114.65 2872,-114.65"/>
</g>
<!-- DeleteButtonComponent  -->
<g id="node25" class="node">
<title>DeleteButtonComponent </title>
<polygon fill="#fb8072" stroke="black" points="3392.98,-160.8 3233.02,-160.8 3233.02,-124.8 3392.98,-124.8 3392.98,-160.8"/>
<text text-anchor="middle" x="3313" y="-138.6" font-family="Times,serif" font-size="14.00">DeleteButtonComponent </text>
</g>
<!-- SharedModule&#45;&gt;DeleteButtonComponent  -->
<g id="edge27" class="edge">
<title>SharedModule&#45;&gt;DeleteButtonComponent </title>
<path fill="none" stroke="black" stroke-dasharray="5,2" d="M2897.32,-70.8C3017,-70.8 3313,-70.8 3313,-70.8 3313,-70.8 3313,-114.63 3313,-114.63"/>
<polygon fill="black" stroke="black" points="3309.5,-114.63 3313,-124.63 3316.5,-114.63 3309.5,-114.63"/>
</g>
<!-- ShellComponent  -->
<g id="node26" class="node">
<title>ShellComponent </title>
<polygon fill="#fb8072" stroke="black" points="3214.61,-160.8 3101.39,-160.8 3101.39,-124.8 3214.61,-124.8 3214.61,-160.8"/>
<text text-anchor="middle" x="3158" y="-138.6" font-family="Times,serif" font-size="14.00">ShellComponent </text>
</g>
<!-- SharedModule&#45;&gt;ShellComponent  -->
<g id="edge28" class="edge">
<title>SharedModule&#45;&gt;ShellComponent </title>
<path fill="none" stroke="black" stroke-dasharray="5,2" d="M2897.46,-77.8C2984.98,-77.8 3158,-77.8 3158,-77.8 3158,-77.8 3158,-114.69 3158,-114.69"/>
<polygon fill="black" stroke="black" points="3154.5,-114.69 3158,-124.69 3161.5,-114.69 3154.5,-114.69"/>
</g>
<!-- UserModule&#45;&gt;AppModule -->
<g id="edge7" class="edge">
<title>UserModule&#45;&gt;AppModule</title>
<path fill="none" stroke="black" d="M2854,-160.91C2854,-160.91 2854,-179.79 2854,-179.79"/>
<polygon fill="black" stroke="black" points="2850.5,-179.79 2854,-189.79 2857.5,-179.79 2850.5,-179.79"/>
</g>
<!-- LoginPage -->
<g id="node10" class="node">
<title>LoginPage</title>
<polygon fill="#ffffb3" stroke="black" points="100.16,-84.8 23.84,-84.8 23.84,-48.8 100.16,-48.8 100.16,-84.8"/>
<text text-anchor="middle" x="62" y="-62.6" font-family="Times,serif" font-size="14.00">LoginPage</text>
</g>
<!-- LoginPage&#45;&gt;AuthModule -->
<g id="edge9" class="edge">
<title>LoginPage&#45;&gt;AuthModule</title>
<path fill="none" stroke="black" d="M62,-84.81C62,-107.29 62,-142.8 62,-142.8 62,-142.8 2421.32,-142.8 2421.32,-142.8"/>
<polygon fill="black" stroke="black" points="2421.32,-146.3 2431.32,-142.8 2421.32,-139.3 2421.32,-146.3"/>
</g>
<!-- BouncyHouseFilterComponent -->
<g id="node11" class="node">
<title>BouncyHouseFilterComponent</title>
<polygon fill="#ffffb3" stroke="black" points="643.49,-84.8 452.51,-84.8 452.51,-48.8 643.49,-48.8 643.49,-84.8"/>
<text text-anchor="middle" x="548" y="-62.6" font-family="Times,serif" font-size="14.00">BouncyHouseFilterComponent</text>
</g>
<!-- BouncyHouseFilterComponent&#45;&gt;BouncyHouseModule -->
<g id="edge11" class="edge">
<title>BouncyHouseFilterComponent&#45;&gt;BouncyHouseModule</title>
<path fill="none" stroke="black" d="M548,-84.84C548,-98.09 548,-113.8 548,-113.8 548,-113.8 2594.09,-113.8 2594.09,-113.8 2594.09,-113.8 2594.09,-114.88 2594.09,-114.88"/>
<polygon fill="black" stroke="black" points="2590.59,-114.6 2594.09,-124.6 2597.59,-114.6 2590.59,-114.6"/>
</g>
<!-- BouncyHouseFormComponent -->
<g id="node12" class="node">
<title>BouncyHouseFormComponent</title>
<polygon fill="#ffffb3" stroke="black" points="434.49,-84.8 243.51,-84.8 243.51,-48.8 434.49,-48.8 434.49,-84.8"/>
<text text-anchor="middle" x="339" y="-62.6" font-family="Times,serif" font-size="14.00">BouncyHouseFormComponent</text>
</g>
<!-- BouncyHouseFormComponent&#45;&gt;BouncyHouseModule -->
<g id="edge12" class="edge">
<title>BouncyHouseFormComponent&#45;&gt;BouncyHouseModule</title>
<path fill="none" stroke="black" d="M339,-85.05C339,-98.98 339,-115.8 339,-115.8 339,-115.8 2574.91,-115.8 2574.91,-115.8 2574.91,-115.8 2574.91,-116.68 2574.91,-116.68"/>
<polygon fill="black" stroke="black" points="2571.41,-114.64 2574.91,-124.64 2578.41,-114.64 2571.41,-114.64"/>
</g>
<!-- BouncyHousePage -->
<g id="node13" class="node">
<title>BouncyHousePage</title>
<polygon fill="#ffffb3" stroke="black" points="995.04,-84.8 872.96,-84.8 872.96,-48.8 995.04,-48.8 995.04,-84.8"/>
<text text-anchor="middle" x="934" y="-62.6" font-family="Times,serif" font-size="14.00">BouncyHousePage</text>
</g>
<!-- BouncyHousePage&#45;&gt;BouncyHouseModule -->
<g id="edge13" class="edge">
<title>BouncyHousePage&#45;&gt;BouncyHouseModule</title>
<path fill="none" stroke="black" d="M934,-84.86C934,-96.24 934,-108.8 934,-108.8 934,-108.8 2632.44,-108.8 2632.44,-108.8 2632.44,-108.8 2632.44,-114.61 2632.44,-114.61"/>
<polygon fill="black" stroke="black" points="2628.94,-114.61 2632.44,-124.61 2635.94,-114.61 2628.94,-114.61"/>
</g>
<!-- BouncyHouseTableComponent -->
<g id="node14" class="node">
<title>BouncyHouseTableComponent</title>
<polygon fill="#ffffb3" stroke="black" points="854.03,-84.8 661.97,-84.8 661.97,-48.8 854.03,-48.8 854.03,-84.8"/>
<text text-anchor="middle" x="758" y="-62.6" font-family="Times,serif" font-size="14.00">BouncyHouseTableComponent</text>
</g>
<!-- BouncyHouseTableComponent&#45;&gt;BouncyHouseModule -->
<g id="edge14" class="edge">
<title>BouncyHouseTableComponent&#45;&gt;BouncyHouseModule</title>
<path fill="none" stroke="black" d="M758,-84.95C758,-97.07 758,-110.8 758,-110.8 758,-110.8 2613.26,-110.8 2613.26,-110.8 2613.26,-110.8 2613.26,-114.56 2613.26,-114.56"/>
<polygon fill="black" stroke="black" points="2609.76,-114.56 2613.26,-124.56 2616.76,-114.56 2609.76,-114.56"/>
</g>
<!-- RouterLink -->
<g id="node15" class="node">
<title>RouterLink</title>
<polygon fill="#8dd3c7" stroke="black" points="220.05,-84.8 217.05,-88.8 196.05,-88.8 193.05,-84.8 139.95,-84.8 139.95,-48.8 220.05,-48.8 220.05,-84.8"/>
<text text-anchor="middle" x="180" y="-62.6" font-family="Times,serif" font-size="14.00">RouterLink</text>
</g>
<!-- RouterLink&#45;&gt;BouncyHouseModule -->
<g id="edge15" class="edge">
<title>RouterLink&#45;&gt;BouncyHouseModule</title>
<path fill="none" stroke="black" d="M180,-84.92C180,-99.58 180,-117.8 180,-117.8 180,-117.8 2555.74,-117.8 2555.74,-117.8 2555.74,-117.8 2555.74,-118.48 2555.74,-118.48"/>
<polygon fill="black" stroke="black" points="2552.24,-114.63 2555.74,-124.63 2559.24,-114.63 2552.24,-114.63"/>
</g>
<!-- BouncyHouseDetailComponent -->
<g id="node16" class="node">
<title>BouncyHouseDetailComponent</title>
<polygon fill="#ffffb3" stroke="black" points="1229.36,-84.8 1034.64,-84.8 1034.64,-48.8 1229.36,-48.8 1229.36,-84.8"/>
<text text-anchor="middle" x="1132" y="-62.6" font-family="Times,serif" font-size="14.00">BouncyHouseDetailComponent</text>
</g>
<!-- BouncyHouseDetailComponent&#45;&gt;RentedModule -->
<g id="edge17" class="edge">
<title>BouncyHouseDetailComponent&#45;&gt;RentedModule</title>
<path fill="none" stroke="black" d="M1132,-84.93C1132,-95.51 1132,-106.8 1132,-106.8 1132,-106.8 2704.27,-106.8 2704.27,-106.8 2704.27,-106.8 2704.27,-114.38 2704.27,-114.38"/>
<polygon fill="black" stroke="black" points="2700.77,-114.38 2704.27,-124.38 2707.77,-114.38 2700.77,-114.38"/>
</g>
<!-- RentedActivePage -->
<g id="node17" class="node">
<title>RentedActivePage</title>
<polygon fill="#ffffb3" stroke="black" points="2123.19,-84.8 2002.81,-84.8 2002.81,-48.8 2123.19,-48.8 2123.19,-84.8"/>
<text text-anchor="middle" x="2063" y="-62.6" font-family="Times,serif" font-size="14.00">RentedActivePage</text>
</g>
<!-- RentedActivePage&#45;&gt;RentedModule -->
<g id="edge18" class="edge">
<title>RentedActivePage&#45;&gt;RentedModule</title>
<path fill="none" stroke="black" d="M2063,-84.86C2063,-89.29 2063,-92.8 2063,-92.8 2063,-92.8 2769.52,-92.8 2769.52,-92.8 2769.52,-92.8 2769.52,-114.75 2769.52,-114.75"/>
<polygon fill="black" stroke="black" points="2766.02,-114.75 2769.52,-124.75 2773.02,-114.75 2766.02,-114.75"/>
</g>
<!-- RentedAllPage -->
<g id="node18" class="node">
<title>RentedAllPage</title>
<polygon fill="#ffffb3" stroke="black" points="1985.26,-84.8 1884.74,-84.8 1884.74,-48.8 1985.26,-48.8 1985.26,-84.8"/>
<text text-anchor="middle" x="1935" y="-62.6" font-family="Times,serif" font-size="14.00">RentedAllPage</text>
</g>
<!-- RentedAllPage&#45;&gt;RentedModule -->
<g id="edge19" class="edge">
<title>RentedAllPage&#45;&gt;RentedModule</title>
<path fill="none" stroke="black" d="M1935,-85.01C1935,-90.35 1935,-94.8 1935,-94.8 1935,-94.8 2758.64,-94.8 2758.64,-94.8 2758.64,-94.8 2758.64,-114.65 2758.64,-114.65"/>
<polygon fill="black" stroke="black" points="2755.14,-114.65 2758.64,-124.65 2762.14,-114.65 2755.14,-114.65"/>
</g>
<!-- RentedBouncyHousePage -->
<g id="node19" class="node">
<title>RentedBouncyHousePage</title>
<polygon fill="#ffffb3" stroke="black" points="1867.19,-84.8 1704.81,-84.8 1704.81,-48.8 1867.19,-48.8 1867.19,-84.8"/>
<text text-anchor="middle" x="1786" y="-62.6" font-family="Times,serif" font-size="14.00">RentedBouncyHousePage</text>
</g>
<!-- RentedBouncyHousePage&#45;&gt;RentedModule -->
<g id="edge20" class="edge">
<title>RentedBouncyHousePage&#45;&gt;RentedModule</title>
<path fill="none" stroke="black" d="M1786,-84.94C1786,-91.26 1786,-96.8 1786,-96.8 1786,-96.8 2747.77,-96.8 2747.77,-96.8 2747.77,-96.8 2747.77,-114.62 2747.77,-114.62"/>
<polygon fill="black" stroke="black" points="2744.27,-114.62 2747.77,-124.62 2751.27,-114.62 2744.27,-114.62"/>
</g>
<!-- RentedNewPage -->
<g id="node20" class="node">
<title>RentedNewPage</title>
<polygon fill="#ffffb3" stroke="black" points="1686.8,-84.8 1577.2,-84.8 1577.2,-48.8 1686.8,-48.8 1686.8,-84.8"/>
<text text-anchor="middle" x="1632" y="-62.6" font-family="Times,serif" font-size="14.00">RentedNewPage</text>
</g>
<!-- RentedNewPage&#45;&gt;RentedModule -->
<g id="edge21" class="edge">
<title>RentedNewPage&#45;&gt;RentedModule</title>
<path fill="none" stroke="black" d="M1632,-84.84C1632,-92.55 1632,-99.8 1632,-99.8 1632,-99.8 2736.89,-99.8 2736.89,-99.8 2736.89,-99.8 2736.89,-114.31 2736.89,-114.31"/>
<polygon fill="black" stroke="black" points="2733.39,-114.31 2736.89,-124.31 2740.39,-114.31 2733.39,-114.31"/>
</g>
<!-- RentedTableComponent -->
<g id="node21" class="node">
<title>RentedTableComponent</title>
<polygon fill="#ffffb3" stroke="black" points="1559.36,-84.8 1406.64,-84.8 1406.64,-48.8 1559.36,-48.8 1559.36,-84.8"/>
<text text-anchor="middle" x="1483" y="-62.6" font-family="Times,serif" font-size="14.00">RentedTableComponent</text>
</g>
<!-- RentedTableComponent&#45;&gt;RentedModule -->
<g id="edge22" class="edge">
<title>RentedTableComponent&#45;&gt;RentedModule</title>
<path fill="none" stroke="black" d="M1483,-85.12C1483,-93.59 1483,-101.8 1483,-101.8 1483,-101.8 2726.02,-101.8 2726.02,-101.8 2726.02,-101.8 2726.02,-114.7 2726.02,-114.7"/>
<polygon fill="black" stroke="black" points="2722.52,-114.7 2726.02,-124.7 2729.52,-114.7 2722.52,-114.7"/>
</g>
<!-- UserDetailComponent -->
<g id="node22" class="node">
<title>UserDetailComponent</title>
<polygon fill="#ffffb3" stroke="black" points="1388.97,-84.8 1247.03,-84.8 1247.03,-48.8 1388.97,-48.8 1388.97,-84.8"/>
<text text-anchor="middle" x="1318" y="-62.6" font-family="Times,serif" font-size="14.00">UserDetailComponent</text>
</g>
<!-- UserDetailComponent&#45;&gt;RentedModule -->
<g id="edge23" class="edge">
<title>UserDetailComponent&#45;&gt;RentedModule</title>
<path fill="none" stroke="black" d="M1318,-84.87C1318,-94.26 1318,-103.8 1318,-103.8 1318,-103.8 2715.14,-103.8 2715.14,-103.8 2715.14,-103.8 2715.14,-114.67 2715.14,-114.67"/>
<polygon fill="black" stroke="black" points="2711.64,-114.67 2715.14,-124.67 2718.64,-114.67 2711.64,-114.67"/>
</g>
<!-- DeleteButtonComponent -->
<g id="node23" class="node">
<title>DeleteButtonComponent</title>
<polygon fill="#ffffb3" stroke="black" points="3700.98,-160.8 3545.02,-160.8 3545.02,-124.8 3700.98,-124.8 3700.98,-160.8"/>
<text text-anchor="middle" x="3623" y="-138.6" font-family="Times,serif" font-size="14.00">DeleteButtonComponent</text>
</g>
<!-- DeleteButtonComponent&#45;&gt;SharedModule -->
<g id="edge25" class="edge">
<title>DeleteButtonComponent&#45;&gt;SharedModule</title>
<path fill="none" stroke="black" d="M3623,-124.56C3623,-99.32 3623,-56.8 3623,-56.8 3623,-56.8 2907.36,-56.8 2907.36,-56.8"/>
<polygon fill="black" stroke="black" points="2907.36,-53.3 2897.36,-56.8 2907.36,-60.3 2907.36,-53.3"/>
</g>
<!-- ShellComponent -->
<g id="node24" class="node">
<title>ShellComponent</title>
<polygon fill="#ffffb3" stroke="black" points="3527.11,-160.8 3416.89,-160.8 3416.89,-124.8 3527.11,-124.8 3527.11,-160.8"/>
<text text-anchor="middle" x="3472" y="-138.6" font-family="Times,serif" font-size="14.00">ShellComponent</text>
</g>
<!-- ShellComponent&#45;&gt;SharedModule -->
<g id="edge26" class="edge">
<title>ShellComponent&#45;&gt;SharedModule</title>
<path fill="none" stroke="black" d="M3472,-124.48C3472,-101.14 3472,-63.8 3472,-63.8 3472,-63.8 2907.22,-63.8 2907.22,-63.8"/>
<polygon fill="black" stroke="black" points="2907.22,-60.3 2897.22,-63.8 2907.22,-67.3 2907.22,-60.3"/>
</g>
<!-- UserPage -->
<g id="node27" class="node">
<title>UserPage</title>
<polygon fill="#ffffb3" stroke="black" points="2390.65,-84.8 2321.35,-84.8 2321.35,-48.8 2390.65,-48.8 2390.65,-84.8"/>
<text text-anchor="middle" x="2356" y="-62.6" font-family="Times,serif" font-size="14.00">UserPage</text>
</g>
<!-- UserPage&#45;&gt;UserModule -->
<g id="edge29" class="edge">
<title>UserPage&#45;&gt;UserModule</title>
<path fill="none" stroke="black" d="M2356,-84.88C2356,-86.65 2356,-87.8 2356,-87.8 2356,-87.8 2854,-87.8 2854,-87.8 2854,-87.8 2854,-114.79 2854,-114.79"/>
<polygon fill="black" stroke="black" points="2850.5,-114.79 2854,-124.79 2857.5,-114.79 2850.5,-114.79"/>
</g>
<!-- UserTableComponent -->
<g id="node28" class="node">
<title>UserTableComponent</title>
<polygon fill="#ffffb3" stroke="black" points="2302.64,-84.8 2163.36,-84.8 2163.36,-48.8 2302.64,-48.8 2302.64,-84.8"/>
<text text-anchor="middle" x="2233" y="-62.6" font-family="Times,serif" font-size="14.00">UserTableComponent</text>
</g>
<!-- UserTableComponent&#45;&gt;UserModule -->
<g id="edge30" class="edge">
<title>UserTableComponent&#45;&gt;UserModule</title>
<path fill="none" stroke="black" d="M2233,-84.92C2233,-87.77 2233,-89.8 2233,-89.8 2233,-89.8 2832.5,-89.8 2832.5,-89.8 2832.5,-89.8 2832.5,-114.56 2832.5,-114.56"/>
<polygon fill="black" stroke="black" points="2829,-114.56 2832.5,-124.56 2836,-114.56 2829,-114.56"/>
</g>
</g>
</svg>
