<?xml version="1.0" encoding="UTF-8" standalone="no"?>
<!DOCTYPE svg PUBLIC "-//W3C//DTD SVG 1.1//EN"
 "http://www.w3.org/Graphics/SVG/1.1/DTD/svg11.dtd">
<!-- Generated by graphviz version 5.0.0 (20220707.1540)
 -->
<!-- Title: dependencies Pages: 1 -->
<svg width="3890pt" height="323pt"
 viewBox="0.00 0.00 3890.00 322.80" xmlns="http://www.w3.org/2000/svg" xmlns:xlink="http://www.w3.org/1999/xlink">
<g id="graph0" class="graph" transform="scale(1 1) rotate(0) translate(4 318.8)">
<title>dependencies</title>
<polygon fill="white" stroke="transparent" points="-4,4 -4,-318.8 3886,-318.8 3886,4 -4,4"/>
<text text-anchor="middle" x="1941" y="-8.2" font-family="sans-serif" font-size="14.00">dependencies</text>
<g id="clust1" class="cluster">
<title>cluster_AppModule</title>
<polygon fill="none" stroke="black" stroke-dasharray="1,5" points="2572,-32.8 2572,-306.8 3234,-306.8 3234,-32.8 2572,-32.8"/>
</g>
<g id="clust2" class="cluster">
<title>cluster_AppModule_declarations</title>
<polygon fill="none" stroke="black" points="3104,-116.8 3104,-168.8 3226,-168.8 3226,-116.8 3104,-116.8"/>
</g>
<g id="clust4" class="cluster">
<title>cluster_AppModule_imports</title>
<polygon fill="none" stroke="black" points="2580,-40.8 2580,-168.8 3062,-168.8 3062,-40.8 2580,-40.8"/>
</g>
<g id="clust6" class="cluster">
<title>cluster_AppModule_bootstrap</title>
<polygon fill="none" stroke="black" points="2949,-246.8 2949,-298.8 3073,-298.8 3073,-246.8 2949,-246.8"/>
</g>
<g id="clust14" class="cluster">
<title>cluster_AuthModule</title>
<polygon fill="none" stroke="black" stroke-dasharray="1,5" points="8,-32.8 8,-100.8 116,-100.8 116,-32.8 8,-32.8"/>
</g>
<g id="clust15" class="cluster">
<title>cluster_AuthModule_declarations</title>
<polygon fill="none" stroke="black" points="16,-40.8 16,-92.8 108,-92.8 108,-40.8 16,-40.8"/>
</g>
<g id="clust21" class="cluster">
<title>cluster_BouncyHouseModule</title>
<polygon fill="none" stroke="black" stroke-dasharray="1,5" points="124,-32.8 124,-100.8 1011,-100.8 1011,-32.8 124,-32.8"/>
</g>
<g id="clust22" class="cluster">
<title>cluster_BouncyHouseModule_declarations</title>
<polygon fill="none" stroke="black" points="236,-40.8 236,-92.8 1003,-92.8 1003,-40.8 236,-40.8"/>
</g>
<g id="clust27" class="cluster">
<title>cluster_BouncyHouseModule_imports</title>
<polygon fill="none" stroke="black" points="132,-40.8 132,-92.8 228,-92.8 228,-40.8 132,-40.8"/>
</g>
<g id="clust37" class="cluster">
<title>cluster_RentedModule</title>
<polygon fill="none" stroke="black" stroke-dasharray="1,5" points="1019,-32.8 1019,-100.8 2140,-100.8 2140,-32.8 1019,-32.8"/>
</g>
<g id="clust38" class="cluster">
<title>cluster_RentedModule_declarations</title>
<polygon fill="none" stroke="black" points="1027,-40.8 1027,-92.8 2132,-92.8 2132,-40.8 1027,-40.8"/>
</g>
<g id="clust50" class="cluster">
<title>cluster_SharedModule</title>
<polygon fill="none" stroke="black" stroke-dasharray="1,5" points="3242,-108.8 3242,-176.8 3874,-176.8 3874,-108.8 3242,-108.8"/>
</g>
<g id="clust51" class="cluster">
<title>cluster_SharedModule_declarations</title>
<polygon fill="none" stroke="black" points="3566,-116.8 3566,-168.8 3866,-168.8 3866,-116.8 3566,-116.8"/>
</g>
<g id="clust55" class="cluster">
<title>cluster_SharedModule_exports</title>
<polygon fill="none" stroke="black" points="3250,-116.8 3250,-168.8 3558,-168.8 3558,-116.8 3250,-116.8"/>
</g>
<g id="clust58" class="cluster">
<title>cluster_UserModule</title>
<polygon fill="none" stroke="black" stroke-dasharray="1,5" points="2148,-32.8 2148,-100.8 2564,-100.8 2564,-32.8 2148,-32.8"/>
</g>
<g id="clust59" class="cluster">
<title>cluster_UserModule_declarations</title>
<polygon fill="none" stroke="black" points="2156,-40.8 2156,-92.8 2556,-92.8 2556,-40.8 2156,-40.8"/>
</g>
<!-- AppComponent -->
<g id="node1" class="node">
<title>AppComponent</title>
<polygon fill="#ffffb3" stroke="black" points="3217.94,-160.8 3112.06,-160.8 3112.06,-124.8 3217.94,-124.8 3217.94,-160.8"/>
<text text-anchor="middle" x="3165" y="-138.6" font-family="Times,serif" font-size="14.00">AppComponent</text>
</g>
<!-- AppModule -->
<g id="node2" class="node">
<title>AppModule</title>
<polygon fill="#8dd3c7" stroke="black" points="3052.66,-225.8 3049.66,-229.8 3028.66,-229.8 3025.66,-225.8 2969.34,-225.8 2969.34,-189.8 3052.66,-189.8 3052.66,-225.8"/>
<text text-anchor="middle" x="3011" y="-203.6" font-family="Times,serif" font-size="14.00">AppModule</text>
</g>
<!-- AppComponent&#45;&gt;AppModule -->
<g id="edge1" class="edge">
<title>AppComponent&#45;&gt;AppModule</title>
<path fill="none" stroke="black" d="M3165,-160.91C3165,-180.14 3165,-207.8 3165,-207.8 3165,-207.8 3062.67,-207.8 3062.67,-207.8"/>
<polygon fill="black" stroke="black" points="3062.67,-204.3 3052.67,-207.8 3062.67,-211.3 3062.67,-204.3"/>
</g>
<!-- AppComponent  -->
<g id="node9" class="node">
<title>AppComponent </title>
<polygon fill="#80b1d3" stroke="black" points="3065.44,-290.8 2956.56,-290.8 2956.56,-254.8 3065.44,-254.8 3065.44,-290.8"/>
<text text-anchor="middle" x="3011" y="-268.6" font-family="Times,serif" font-size="14.00">AppComponent </text>
</g>
<!-- AppModule&#45;&gt;AppComponent  -->
<g id="edge8" class="edge">
<title>AppModule&#45;&gt;AppComponent </title>
<path fill="none" stroke="black" stroke-dasharray="1,5" d="M3011,-225.91C3011,-225.91 3011,-244.79 3011,-244.79"/>
<polygon fill="black" stroke="black" points="3007.5,-244.79 3011,-254.79 3014.5,-244.79 3007.5,-244.79"/>
</g>
<!-- AppRoutingModule -->
<g id="node3" class="node">
<title>AppRoutingModule</title>
<polygon fill="#8dd3c7" stroke="black" points="2937.28,-84.8 2934.28,-88.8 2913.28,-88.8 2910.28,-84.8 2808.72,-84.8 2808.72,-48.8 2937.28,-48.8 2937.28,-84.8"/>
<text text-anchor="middle" x="2873" y="-62.6" font-family="Times,serif" font-size="14.00">AppRoutingModule</text>
</g>
<!-- AppRoutingModule&#45;&gt;AppModule -->
<g id="edge2" class="edge">
<title>AppRoutingModule&#45;&gt;AppModule</title>
<path fill="none" stroke="black" d="M2841.42,-84.94C2841.42,-123.03 2841.42,-207.8 2841.42,-207.8 2841.42,-207.8 2959.08,-207.8 2959.08,-207.8"/>
<polygon fill="black" stroke="black" points="2959.08,-211.3 2969.08,-207.8 2959.08,-204.3 2959.08,-211.3"/>
</g>
<!-- AuthModule -->
<g id="node4" class="node">
<title>AuthModule</title>
<polygon fill="#8dd3c7" stroke="black" points="2675.55,-160.8 2672.55,-164.8 2651.55,-164.8 2648.55,-160.8 2588.45,-160.8 2588.45,-124.8 2675.55,-124.8 2675.55,-160.8"/>
<text text-anchor="middle" x="2632" y="-138.6" font-family="Times,serif" font-size="14.00">AuthModule</text>
</g>
<!-- AuthModule&#45;&gt;AppModule -->
<g id="edge3" class="edge">
<title>AuthModule&#45;&gt;AppModule</title>
<path fill="none" stroke="black" d="M2632,-161.05C2632,-183.82 2632,-219.8 2632,-219.8 2632,-219.8 2958.99,-219.8 2958.99,-219.8"/>
<polygon fill="black" stroke="black" points="2958.99,-223.3 2968.99,-219.8 2958.99,-216.3 2958.99,-223.3"/>
</g>
<!-- BouncyHouseModule -->
<g id="node5" class="node">
<title>BouncyHouseModule</title>
<polygon fill="#8dd3c7" stroke="black" points="2832.38,-160.8 2829.38,-164.8 2808.38,-164.8 2805.38,-160.8 2693.62,-160.8 2693.62,-124.8 2832.38,-124.8 2832.38,-160.8"/>
<text text-anchor="middle" x="2763" y="-138.6" font-family="Times,serif" font-size="14.00">BouncyHouseModule</text>
</g>
<!-- BouncyHouseModule&#45;&gt;AppModule -->
<g id="edge4" class="edge">
<title>BouncyHouseModule&#45;&gt;AppModule</title>
<path fill="none" stroke="black" d="M2763,-161.08C2763,-182.12 2763,-213.8 2763,-213.8 2763,-213.8 2959.21,-213.8 2959.21,-213.8"/>
<polygon fill="black" stroke="black" points="2959.21,-217.3 2969.21,-213.8 2959.21,-210.3 2959.21,-217.3"/>
</g>
<!-- RentedModule -->
<g id="node6" class="node">
<title>RentedModule</title>
<polygon fill="#8dd3c7" stroke="black" points="2949.71,-160.8 2946.71,-164.8 2925.71,-164.8 2922.71,-160.8 2850.29,-160.8 2850.29,-124.8 2949.71,-124.8 2949.71,-160.8"/>
<text text-anchor="middle" x="2900" y="-138.6" font-family="Times,serif" font-size="14.00">RentedModule</text>
</g>
<!-- RentedModule&#45;&gt;AppModule -->
<g id="edge5" class="edge">
<title>RentedModule&#45;&gt;AppModule</title>
<path fill="none" stroke="black" d="M2900,-160.82C2900,-178.17 2900,-201.8 2900,-201.8 2900,-201.8 2959.04,-201.8 2959.04,-201.8"/>
<polygon fill="black" stroke="black" points="2959.04,-205.3 2969.04,-201.8 2959.04,-198.3 2959.04,-205.3"/>
</g>
<!-- SharedModule -->
<g id="node7" class="node">
<title>SharedModule</title>
<polygon fill="#8dd3c7" stroke="black" points="3054.43,-84.8 3051.43,-88.8 3030.43,-88.8 3027.43,-84.8 2955.57,-84.8 2955.57,-48.8 3054.43,-48.8 3054.43,-84.8"/>
<text text-anchor="middle" x="3005" y="-62.6" font-family="Times,serif" font-size="14.00">SharedModule</text>
</g>
<!-- SharedModule&#45;&gt;AppModule -->
<g id="edge6" class="edge">
<title>SharedModule&#45;&gt;AppModule</title>
<path fill="none" stroke="black" d="M2965.71,-85.01C2965.71,-120.57 2965.71,-195.8 2965.71,-195.8 2965.71,-195.8 2966.07,-195.8 2966.07,-195.8"/>
<polygon fill="black" stroke="black" points="2959.27,-199.3 2969.27,-195.8 2959.26,-192.3 2959.27,-199.3"/>
</g>
<!-- SharedModule&#45;&gt;AuthModule -->
<g id="edge10" class="edge">
<title>SharedModule&#45;&gt;AuthModule</title>
<path fill="none" stroke="black" d="M2958.82,-85.08C2958.82,-100.75 2958.82,-120.8 2958.82,-120.8 2958.82,-120.8 2632,-120.8 2632,-120.8 2632,-120.8 2632,-121.18 2632,-121.18"/>
<polygon fill="black" stroke="black" points="2628.5,-114.63 2632,-124.63 2635.5,-114.63 2628.5,-114.63"/>
</g>
<!-- SharedModule&#45;&gt;BouncyHouseModule -->
<g id="edge16" class="edge">
<title>SharedModule&#45;&gt;BouncyHouseModule</title>
<path fill="none" stroke="black" d="M2961.12,-84.83C2961.12,-101.2 2961.12,-122.8 2961.12,-122.8 2961.12,-122.8 2820.52,-122.8 2820.52,-122.8 2820.52,-122.8 2820.52,-122.98 2820.52,-122.98"/>
<polygon fill="black" stroke="black" points="2817.02,-114.65 2820.52,-124.65 2824.02,-114.65 2817.02,-114.65"/>
</g>
<!-- SharedModule&#45;&gt;RentedModule -->
<g id="edge24" class="edge">
<title>SharedModule&#45;&gt;RentedModule</title>
<path fill="none" stroke="black" d="M2963.42,-84.81C2963.42,-107.29 2963.42,-142.8 2963.42,-142.8 2963.42,-142.8 2959.66,-142.8 2959.66,-142.8"/>
<polygon fill="black" stroke="black" points="2959.66,-139.3 2949.66,-142.8 2959.66,-146.3 2959.66,-139.3"/>
</g>
<!-- UserModule -->
<g id="node8" class="node">
<title>UserModule</title>
<polygon fill="#8dd3c7" stroke="black" points="3053.99,-160.8 3050.99,-164.8 3029.99,-164.8 3026.99,-160.8 2968.01,-160.8 2968.01,-124.8 3053.99,-124.8 3053.99,-160.8"/>
<text text-anchor="middle" x="3011" y="-138.6" font-family="Times,serif" font-size="14.00">UserModule</text>
</g>
<!-- SharedModule&#45;&gt;UserModule -->
<g id="edge32" class="edge">
<title>SharedModule&#45;&gt;UserModule</title>
<path fill="none" stroke="black" d="M3036.8,-84.81C3036.8,-84.81 3036.8,-114.65 3036.8,-114.65"/>
<polygon fill="black" stroke="black" points="3033.3,-114.65 3036.8,-124.65 3040.3,-114.65 3033.3,-114.65"/>
</g>
<!-- DeleteButtonComponent  -->
<g id="node25" class="node">
<title>DeleteButtonComponent </title>
<polygon fill="#fb8072" stroke="black" points="3549.98,-160.8 3390.02,-160.8 3390.02,-124.8 3549.98,-124.8 3549.98,-160.8"/>
<text text-anchor="middle" x="3470" y="-138.6" font-family="Times,serif" font-size="14.00">DeleteButtonComponent </text>
</g>
<!-- SharedModule&#45;&gt;DeleteButtonComponent  -->
<g id="edge27" class="edge">
<title>SharedModule&#45;&gt;DeleteButtonComponent </title>
<path fill="none" stroke="black" stroke-dasharray="5,2" d="M3054.32,-70.8C3174,-70.8 3470,-70.8 3470,-70.8 3470,-70.8 3470,-114.63 3470,-114.63"/>
<polygon fill="black" stroke="black" points="3466.5,-114.63 3470,-124.63 3473.5,-114.63 3466.5,-114.63"/>
</g>
<!-- ShellComponent  -->
<g id="node26" class="node">
<title>ShellComponent </title>
<polygon fill="#fb8072" stroke="black" points="3371.61,-160.8 3258.39,-160.8 3258.39,-124.8 3371.61,-124.8 3371.61,-160.8"/>
<text text-anchor="middle" x="3315" y="-138.6" font-family="Times,serif" font-size="14.00">ShellComponent </text>
</g>
<!-- SharedModule&#45;&gt;ShellComponent  -->
<g id="edge28" class="edge">
<title>SharedModule&#45;&gt;ShellComponent </title>
<path fill="none" stroke="black" stroke-dasharray="5,2" d="M3054.46,-77.8C3141.98,-77.8 3315,-77.8 3315,-77.8 3315,-77.8 3315,-114.69 3315,-114.69"/>
<polygon fill="black" stroke="black" points="3311.5,-114.69 3315,-124.69 3318.5,-114.69 3311.5,-114.69"/>
</g>
<!-- UserModule&#45;&gt;AppModule -->
<g id="edge7" class="edge">
<title>UserModule&#45;&gt;AppModule</title>
<path fill="none" stroke="black" d="M3011,-160.91C3011,-160.91 3011,-179.79 3011,-179.79"/>
<polygon fill="black" stroke="black" points="3007.5,-179.79 3011,-189.79 3014.5,-179.79 3007.5,-179.79"/>
</g>
<!-- LoginPage -->
<g id="node10" class="node">
<title>LoginPage</title>
<polygon fill="#ffffb3" stroke="black" points="100.16,-84.8 23.84,-84.8 23.84,-48.8 100.16,-48.8 100.16,-84.8"/>
<text text-anchor="middle" x="62" y="-62.6" font-family="Times,serif" font-size="14.00">LoginPage</text>
</g>
<!-- LoginPage&#45;&gt;AuthModule -->
<g id="edge9" class="edge">
<title>LoginPage&#45;&gt;AuthModule</title>
<path fill="none" stroke="black" d="M62,-84.81C62,-107.29 62,-142.8 62,-142.8 62,-142.8 2578.2,-142.8 2578.2,-142.8"/>
<polygon fill="black" stroke="black" points="2578.2,-146.3 2588.2,-142.8 2578.2,-139.3 2578.2,-146.3"/>
</g>
<!-- BouncyHouseFilterComponent -->
<g id="node11" class="node">
<title>BouncyHouseFilterComponent</title>
<polygon fill="#ffffb3" stroke="black" points="995.49,-84.8 804.51,-84.8 804.51,-48.8 995.49,-48.8 995.49,-84.8"/>
<text text-anchor="middle" x="900" y="-62.6" font-family="Times,serif" font-size="14.00">BouncyHouseFilterComponent</text>
</g>
<!-- BouncyHouseFilterComponent&#45;&gt;BouncyHouseModule -->
<g id="edge11" class="edge">
<title>BouncyHouseFilterComponent&#45;&gt;BouncyHouseModule</title>
<path fill="none" stroke="black" d="M900,-85.29C900,-96.94 900,-109.8 900,-109.8 900,-109.8 2789.44,-109.8 2789.44,-109.8 2789.44,-109.8 2789.44,-114.76 2789.44,-114.76"/>
<polygon fill="black" stroke="black" points="2785.94,-114.76 2789.44,-124.76 2792.94,-114.76 2785.94,-114.76"/>
</g>
<!-- BouncyHouseFormComponent -->
<g id="node12" class="node">
<title>BouncyHouseFormComponent</title>
<polygon fill="#ffffb3" stroke="black" points="786.49,-84.8 595.51,-84.8 595.51,-48.8 786.49,-48.8 786.49,-84.8"/>
<text text-anchor="middle" x="691" y="-62.6" font-family="Times,serif" font-size="14.00">BouncyHouseFormComponent</text>
</g>
<!-- BouncyHouseFormComponent&#45;&gt;BouncyHouseModule -->
<g id="edge12" class="edge">
<title>BouncyHouseFormComponent&#45;&gt;BouncyHouseModule</title>
<path fill="none" stroke="black" d="M691,-84.84C691,-97.36 691,-111.8 691,-111.8 691,-111.8 2770.26,-111.8 2770.26,-111.8 2770.26,-111.8 2770.26,-114.77 2770.26,-114.77"/>
<polygon fill="black" stroke="black" points="2766.76,-114.77 2770.26,-124.77 2773.76,-114.77 2766.76,-114.77"/>
</g>
<!-- BouncyHousePage -->
<g id="node13" class="node">
<title>BouncyHousePage</title>
<polygon fill="#ffffb3" stroke="black" points="577.04,-84.8 454.96,-84.8 454.96,-48.8 577.04,-48.8 577.04,-84.8"/>
<text text-anchor="middle" x="516" y="-62.6" font-family="Times,serif" font-size="14.00">BouncyHousePage</text>
</g>
<!-- BouncyHousePage&#45;&gt;BouncyHouseModule -->
<g id="edge13" class="edge">
<title>BouncyHousePage&#45;&gt;BouncyHouseModule</title>
<path fill="none" stroke="black" d="M516,-84.84C516,-98.09 516,-113.8 516,-113.8 516,-113.8 2751.09,-113.8 2751.09,-113.8 2751.09,-113.8 2751.09,-114.88 2751.09,-114.88"/>
<polygon fill="black" stroke="black" points="2747.59,-114.6 2751.09,-124.6 2754.59,-114.6 2747.59,-114.6"/>
</g>
<!-- BouncyHouseTableComponent -->
<g id="node14" class="node">
<title>BouncyHouseTableComponent</title>
<polygon fill="#ffffb3" stroke="black" points="436.03,-84.8 243.97,-84.8 243.97,-48.8 436.03,-48.8 436.03,-84.8"/>
<text text-anchor="middle" x="340" y="-62.6" font-family="Times,serif" font-size="14.00">BouncyHouseTableComponent</text>
</g>
<!-- BouncyHouseTableComponent&#45;&gt;BouncyHouseModule -->
<g id="edge14" class="edge">
<title>BouncyHouseTableComponent&#45;&gt;BouncyHouseModule</title>
<path fill="none" stroke="black" d="M340,-84.85C340,-99.17 340,-116.8 340,-116.8 340,-116.8 2731.91,-116.8 2731.91,-116.8 2731.91,-116.8 2731.91,-117.59 2731.91,-117.59"/>
<polygon fill="black" stroke="black" points="2728.41,-114.74 2731.91,-124.74 2735.41,-114.74 2728.41,-114.74"/>
</g>
<!-- RouterLink -->
<g id="node15" class="node">
<title>RouterLink</title>
<polygon fill="#8dd3c7" stroke="black" points="220.05,-84.8 217.05,-88.8 196.05,-88.8 193.05,-84.8 139.95,-84.8 139.95,-48.8 220.05,-48.8 220.05,-84.8"/>
<text text-anchor="middle" x="180" y="-62.6" font-family="Times,serif" font-size="14.00">RouterLink</text>
</g>
<!-- RouterLink&#45;&gt;BouncyHouseModule -->
<g id="edge15" class="edge">
<title>RouterLink&#45;&gt;BouncyHouseModule</title>
<path fill="none" stroke="black" d="M180,-84.99C180,-99.98 180,-118.8 180,-118.8 180,-118.8 2712.74,-118.8 2712.74,-118.8 2712.74,-118.8 2712.74,-119.38 2712.74,-119.38"/>
<polygon fill="black" stroke="black" points="2709.24,-114.61 2712.74,-124.61 2716.24,-114.61 2709.24,-114.61"/>
</g>
<!-- BouncyHouseDetailComponent -->
<g id="node16" class="node">
<title>BouncyHouseDetailComponent</title>
<polygon fill="#ffffb3" stroke="black" points="1964.36,-84.8 1769.64,-84.8 1769.64,-48.8 1964.36,-48.8 1964.36,-84.8"/>
<text text-anchor="middle" x="1867" y="-62.6" font-family="Times,serif" font-size="14.00">BouncyHouseDetailComponent</text>
</g>
<!-- BouncyHouseDetailComponent&#45;&gt;RentedModule -->
<g id="edge17" class="edge">
<title>BouncyHouseDetailComponent&#45;&gt;RentedModule</title>
<path fill="none" stroke="black" d="M1867,-84.94C1867,-91.26 1867,-96.8 1867,-96.8 1867,-96.8 2915.64,-96.8 2915.64,-96.8 2915.64,-96.8 2915.64,-114.62 2915.64,-114.62"/>
<polygon fill="black" stroke="black" points="2912.14,-114.62 2915.64,-124.62 2919.14,-114.62 2912.14,-114.62"/>
</g>
<!-- RentedActivePage -->
<g id="node17" class="node">
<title>RentedActivePage</title>
<polygon fill="#ffffb3" stroke="black" points="1751.19,-84.8 1630.81,-84.8 1630.81,-48.8 1751.19,-48.8 1751.19,-84.8"/>
<text text-anchor="middle" x="1691" y="-62.6" font-family="Times,serif" font-size="14.00">RentedActivePage</text>
</g>
<!-- RentedActivePage&#45;&gt;RentedModule -->
<g id="edge18" class="edge">
<title>RentedActivePage&#45;&gt;RentedModule</title>
<path fill="none" stroke="black" d="M1691,-85.04C1691,-92.23 1691,-98.8 1691,-98.8 1691,-98.8 2904.77,-98.8 2904.77,-98.8 2904.77,-98.8 2904.77,-114.65 2904.77,-114.65"/>
<polygon fill="black" stroke="black" points="2901.27,-114.65 2904.77,-124.65 2908.27,-114.65 2901.27,-114.65"/>
</g>
<!-- RentedAllPage -->
<g id="node18" class="node">
<title>RentedAllPage</title>
<polygon fill="#ffffb3" stroke="black" points="1613.26,-84.8 1512.74,-84.8 1512.74,-48.8 1613.26,-48.8 1613.26,-84.8"/>
<text text-anchor="middle" x="1563" y="-62.6" font-family="Times,serif" font-size="14.00">RentedAllPage</text>
</g>
<!-- RentedAllPage&#45;&gt;RentedModule -->
<g id="edge19" class="edge">
<title>RentedAllPage&#45;&gt;RentedModule</title>
<path fill="none" stroke="black" d="M1563,-84.99C1563,-93.08 1563,-100.8 1563,-100.8 1563,-100.8 2893.89,-100.8 2893.89,-100.8 2893.89,-100.8 2893.89,-114.74 2893.89,-114.74"/>
<polygon fill="black" stroke="black" points="2890.39,-114.74 2893.89,-124.74 2897.39,-114.74 2890.39,-114.74"/>
</g>
<!-- RentedBouncyHousePage -->
<g id="node19" class="node">
<title>RentedBouncyHousePage</title>
<polygon fill="#ffffb3" stroke="black" points="1495.19,-84.8 1332.81,-84.8 1332.81,-48.8 1495.19,-48.8 1495.19,-84.8"/>
<text text-anchor="middle" x="1414" y="-62.6" font-family="Times,serif" font-size="14.00">RentedBouncyHousePage</text>
</g>
<!-- RentedBouncyHousePage&#45;&gt;RentedModule -->
<g id="edge20" class="edge">
<title>RentedBouncyHousePage&#45;&gt;RentedModule</title>
<path fill="none" stroke="black" d="M1414,-85.22C1414,-94.08 1414,-102.8 1414,-102.8 1414,-102.8 2883.02,-102.8 2883.02,-102.8 2883.02,-102.8 2883.02,-114.67 2883.02,-114.67"/>
<polygon fill="black" stroke="black" points="2879.52,-114.67 2883.02,-124.67 2886.52,-114.67 2879.52,-114.67"/>
</g>
<!-- RentedNewPage -->
<g id="node20" class="node">
<title>RentedNewPage</title>
<polygon fill="#ffffb3" stroke="black" points="1314.8,-84.8 1205.2,-84.8 1205.2,-48.8 1314.8,-48.8 1314.8,-84.8"/>
<text text-anchor="middle" x="1260" y="-62.6" font-family="Times,serif" font-size="14.00">RentedNewPage</text>
</g>
<!-- RentedNewPage&#45;&gt;RentedModule -->
<g id="edge21" class="edge">
<title>RentedNewPage&#45;&gt;RentedModule</title>
<path fill="none" stroke="black" d="M1260,-84.91C1260,-94.7 1260,-104.8 1260,-104.8 1260,-104.8 2872.14,-104.8 2872.14,-104.8 2872.14,-104.8 2872.14,-114.69 2872.14,-114.69"/>
<polygon fill="black" stroke="black" points="2868.64,-114.69 2872.14,-124.69 2875.64,-114.69 2868.64,-114.69"/>
</g>
<!-- RentedTableComponent -->
<g id="node21" class="node">
<title>RentedTableComponent</title>
<polygon fill="#ffffb3" stroke="black" points="1187.36,-84.8 1034.64,-84.8 1034.64,-48.8 1187.36,-48.8 1187.36,-84.8"/>
<text text-anchor="middle" x="1111" y="-62.6" font-family="Times,serif" font-size="14.00">RentedTableComponent</text>
</g>
<!-- RentedTableComponent&#45;&gt;RentedModule -->
<g id="edge22" class="edge">
<title>RentedTableComponent&#45;&gt;RentedModule</title>
<path fill="none" stroke="black" d="M1111,-84.9C1111,-95.89 1111,-107.8 1111,-107.8 1111,-107.8 2861.27,-107.8 2861.27,-107.8 2861.27,-107.8 2861.27,-114.48 2861.27,-114.48"/>
<polygon fill="black" stroke="black" points="2857.77,-114.48 2861.27,-124.48 2864.77,-114.48 2857.77,-114.48"/>
</g>
<!-- UserDetailComponent -->
<g id="node22" class="node">
<title>UserDetailComponent</title>
<polygon fill="#ffffb3" stroke="black" points="2123.97,-84.8 1982.03,-84.8 1982.03,-48.8 2123.97,-48.8 2123.97,-84.8"/>
<text text-anchor="middle" x="2053" y="-62.6" font-family="Times,serif" font-size="14.00">UserDetailComponent</text>
</g>
<!-- UserDetailComponent&#45;&gt;RentedModule -->
<g id="edge23" class="edge">
<title>UserDetailComponent&#45;&gt;RentedModule</title>
<path fill="none" stroke="black" d="M2053,-84.96C2053,-89.84 2053,-93.8 2053,-93.8 2053,-93.8 2926.52,-93.8 2926.52,-93.8 2926.52,-93.8 2926.52,-114.55 2926.52,-114.55"/>
<polygon fill="black" stroke="black" points="2923.02,-114.55 2926.52,-124.55 2930.02,-114.55 2923.02,-114.55"/>
</g>
<!-- DeleteButtonComponent -->
<g id="node23" class="node">
<title>DeleteButtonComponent</title>
<polygon fill="#ffffb3" stroke="black" points="3857.98,-160.8 3702.02,-160.8 3702.02,-124.8 3857.98,-124.8 3857.98,-160.8"/>
<text text-anchor="middle" x="3780" y="-138.6" font-family="Times,serif" font-size="14.00">DeleteButtonComponent</text>
</g>
<!-- DeleteButtonComponent&#45;&gt;SharedModule -->
<g id="edge25" class="edge">
<title>DeleteButtonComponent&#45;&gt;SharedModule</title>
<path fill="none" stroke="black" d="M3780,-124.56C3780,-99.32 3780,-56.8 3780,-56.8 3780,-56.8 3064.36,-56.8 3064.36,-56.8"/>
<polygon fill="black" stroke="black" points="3064.36,-53.3 3054.36,-56.8 3064.36,-60.3 3064.36,-53.3"/>
</g>
<!-- ShellComponent -->
<g id="node24" class="node">
<title>ShellComponent</title>
<polygon fill="#ffffb3" stroke="black" points="3684.11,-160.8 3573.89,-160.8 3573.89,-124.8 3684.11,-124.8 3684.11,-160.8"/>
<text text-anchor="middle" x="3629" y="-138.6" font-family="Times,serif" font-size="14.00">ShellComponent</text>
</g>
<!-- ShellComponent&#45;&gt;SharedModule -->
<g id="edge26" class="edge">
<title>ShellComponent&#45;&gt;SharedModule</title>
<path fill="none" stroke="black" d="M3629,-124.48C3629,-101.14 3629,-63.8 3629,-63.8 3629,-63.8 3064.22,-63.8 3064.22,-63.8"/>
<polygon fill="black" stroke="black" points="3064.22,-60.3 3054.22,-63.8 3064.22,-67.3 3064.22,-60.3"/>
</g>
<!-- UserFormComponent -->
<g id="node27" class="node">
<title>UserFormComponent</title>
<polygon fill="#ffffb3" stroke="black" points="2548.1,-84.8 2409.9,-84.8 2409.9,-48.8 2548.1,-48.8 2548.1,-84.8"/>
<text text-anchor="middle" x="2479" y="-62.6" font-family="Times,serif" font-size="14.00">UserFormComponent</text>
</g>
<!-- UserFormComponent&#45;&gt;UserModule -->
<g id="edge29" class="edge">
<title>UserFormComponent&#45;&gt;UserModule</title>
<path fill="none" stroke="black" d="M2479,-84.88C2479,-86.65 2479,-87.8 2479,-87.8 2479,-87.8 3019.6,-87.8 3019.6,-87.8 3019.6,-87.8 3019.6,-114.79 3019.6,-114.79"/>
<polygon fill="black" stroke="black" points="3016.1,-114.79 3019.6,-124.79 3023.1,-114.79 3016.1,-114.79"/>
</g>
<!-- UserPage -->
<g id="node28" class="node">
<title>UserPage</title>
<polygon fill="#ffffb3" stroke="black" points="2391.65,-84.8 2322.35,-84.8 2322.35,-48.8 2391.65,-48.8 2391.65,-84.8"/>
<text text-anchor="middle" x="2357" y="-62.6" font-family="Times,serif" font-size="14.00">UserPage</text>
</g>
<!-- UserPage&#45;&gt;UserModule -->
<g id="edge30" class="edge">
<title>UserPage&#45;&gt;UserModule</title>
<path fill="none" stroke="black" d="M2357,-84.92C2357,-87.77 2357,-89.8 2357,-89.8 2357,-89.8 3002.4,-89.8 3002.4,-89.8 3002.4,-89.8 3002.4,-114.56 3002.4,-114.56"/>
<polygon fill="black" stroke="black" points="2998.9,-114.56 3002.4,-124.56 3005.9,-114.56 2998.9,-114.56"/>
</g>
<!-- UserTableComponent -->
<g id="node29" class="node">
<title>UserTableComponent</title>
<polygon fill="#ffffb3" stroke="black" points="2303.64,-84.8 2164.36,-84.8 2164.36,-48.8 2303.64,-48.8 2303.64,-84.8"/>
<text text-anchor="middle" x="2234" y="-62.6" font-family="Times,serif" font-size="14.00">UserTableComponent</text>
</g>
<!-- UserTableComponent&#45;&gt;UserModule -->
<g id="edge31" class="edge">
<title>UserTableComponent&#45;&gt;UserModule</title>
<path fill="none" stroke="black" d="M2234,-84.97C2234,-88.85 2234,-91.8 2234,-91.8 2234,-91.8 2985.2,-91.8 2985.2,-91.8 2985.2,-91.8 2985.2,-114.68 2985.2,-114.68"/>
<polygon fill="black" stroke="black" points="2981.7,-114.68 2985.2,-124.68 2988.7,-114.68 2981.7,-114.68"/>
</g>
</g>
</svg>
