<?xml version="1.0" encoding="UTF-8" standalone="no"?>
<!DOCTYPE svg PUBLIC "-//W3C//DTD SVG 1.1//EN"
 "http://www.w3.org/Graphics/SVG/1.1/DTD/svg11.dtd">
<!-- Generated by graphviz version 5.0.0 (20220707.1540)
 -->
<!-- Title: dependencies Pages: 1 -->
<svg width="941pt" height="174pt"
 viewBox="0.00 0.00 941.00 173.80" xmlns="http://www.w3.org/2000/svg" xmlns:xlink="http://www.w3.org/1999/xlink">
<g id="graph0" class="graph" transform="scale(1 1) rotate(0) translate(4 169.8)">
<title>dependencies</title>
<polygon fill="white" stroke="transparent" points="-4,4 -4,-169.8 937,-169.8 937,4 -4,4"/>
<text text-anchor="middle" x="466.5" y="-8.2" font-family="sans-serif" font-size="14.00">dependencies</text>
<g id="clust1" class="cluster">
<title>cluster_FavouriteModule</title>
<polygon fill="none" stroke="black" stroke-dasharray="1,5" points="8,-32.8 8,-157.8 925,-157.8 925,-32.8 8,-32.8"/>
</g>
<g id="clust2" class="cluster">
<title>cluster_FavouriteModule_declarations</title>
<polygon fill="none" stroke="black" points="236,-40.8 236,-92.8 917,-92.8 917,-40.8 236,-40.8"/>
</g>
<g id="clust7" class="cluster">
<title>cluster_FavouriteModule_imports</title>
<polygon fill="none" stroke="black" points="16,-40.8 16,-92.8 228,-92.8 228,-40.8 16,-40.8"/>
</g>
<!-- BouncyHouseListComponent -->
<g id="node1" class="node">
<title>BouncyHouseListComponent</title>
<polygon fill="#ffffb3" stroke="black" points="909.44,-84.8 726.56,-84.8 726.56,-48.8 909.44,-48.8 909.44,-84.8"/>
<text text-anchor="middle" x="818" y="-62.6" font-family="Times,serif" font-size="14.00">BouncyHouseListComponent</text>
</g>
<!-- FavouriteModule -->
<g id="node5" class="node">
<title>FavouriteModule</title>
<polygon fill="#8dd3c7" stroke="black" points="348.71,-149.8 345.71,-153.8 324.71,-153.8 321.71,-149.8 235.29,-149.8 235.29,-113.8 348.71,-113.8 348.71,-149.8"/>
<text text-anchor="middle" x="292" y="-127.6" font-family="Times,serif" font-size="14.00">FavouriteModule</text>
</g>
<!-- BouncyHouseListComponent&#45;&gt;FavouriteModule -->
<g id="edge1" class="edge">
<title>BouncyHouseListComponent&#45;&gt;FavouriteModule</title>
<path fill="none" stroke="black" d="M818,-85.08C818,-106.12 818,-137.8 818,-137.8 818,-137.8 358.79,-137.8 358.79,-137.8"/>
<polygon fill="black" stroke="black" points="358.79,-134.3 348.79,-137.8 358.79,-141.3 358.79,-134.3"/>
</g>
<!-- EmptyFavouritesComponent -->
<g id="node2" class="node">
<title>EmptyFavouritesComponent</title>
<polygon fill="#ffffb3" stroke="black" points="708.77,-84.8 531.23,-84.8 531.23,-48.8 708.77,-48.8 708.77,-84.8"/>
<text text-anchor="middle" x="620" y="-62.6" font-family="Times,serif" font-size="14.00">EmptyFavouritesComponent</text>
</g>
<!-- EmptyFavouritesComponent&#45;&gt;FavouriteModule -->
<g id="edge2" class="edge">
<title>EmptyFavouritesComponent&#45;&gt;FavouriteModule</title>
<path fill="none" stroke="black" d="M620,-84.82C620,-102.17 620,-125.8 620,-125.8 620,-125.8 358.76,-125.8 358.76,-125.8"/>
<polygon fill="black" stroke="black" points="358.76,-122.3 348.76,-125.8 358.76,-129.3 358.76,-122.3"/>
</g>
<!-- FavouriteBarComponent -->
<g id="node3" class="node">
<title>FavouriteBarComponent</title>
<polygon fill="#ffffb3" stroke="black" points="513.7,-84.8 358.3,-84.8 358.3,-48.8 513.7,-48.8 513.7,-84.8"/>
<text text-anchor="middle" x="436" y="-62.6" font-family="Times,serif" font-size="14.00">FavouriteBarComponent</text>
</g>
<!-- FavouriteBarComponent&#45;&gt;FavouriteModule -->
<g id="edge3" class="edge">
<title>FavouriteBarComponent&#45;&gt;FavouriteModule</title>
<path fill="none" stroke="black" d="M358.02,-66.8C349.88,-66.8 344.52,-66.8 344.52,-66.8 344.52,-66.8 344.52,-103.69 344.52,-103.69"/>
<polygon fill="black" stroke="black" points="341.02,-103.69 344.52,-113.69 348.02,-103.69 341.02,-103.69"/>
</g>
<!-- FavouritePage -->
<g id="node4" class="node">
<title>FavouritePage</title>
<polygon fill="#ffffb3" stroke="black" points="340.37,-84.8 243.63,-84.8 243.63,-48.8 340.37,-48.8 340.37,-84.8"/>
<text text-anchor="middle" x="292" y="-62.6" font-family="Times,serif" font-size="14.00">FavouritePage</text>
</g>
<!-- FavouritePage&#45;&gt;FavouriteModule -->
<g id="edge4" class="edge">
<title>FavouritePage&#45;&gt;FavouriteModule</title>
<path fill="none" stroke="black" d="M292,-84.91C292,-84.91 292,-103.79 292,-103.79"/>
<polygon fill="black" stroke="black" points="288.5,-103.79 292,-113.79 295.5,-103.79 288.5,-103.79"/>
</g>
<!-- RouterLink -->
<g id="node6" class="node">
<title>RouterLink</title>
<polygon fill="#8dd3c7" stroke="black" points="220.05,-84.8 217.05,-88.8 196.05,-88.8 193.05,-84.8 139.95,-84.8 139.95,-48.8 220.05,-48.8 220.05,-84.8"/>
<text text-anchor="middle" x="180" y="-62.6" font-family="Times,serif" font-size="14.00">RouterLink</text>
</g>
<!-- RouterLink&#45;&gt;FavouriteModule -->
<g id="edge5" class="edge">
<title>RouterLink&#45;&gt;FavouriteModule</title>
<path fill="none" stroke="black" d="M220.33,-66.8C230.94,-66.8 239.48,-66.8 239.48,-66.8 239.48,-66.8 239.48,-103.69 239.48,-103.69"/>
<polygon fill="black" stroke="black" points="235.98,-103.69 239.48,-113.69 242.98,-103.69 235.98,-103.69"/>
</g>
<!-- SharedModule -->
<g id="node7" class="node">
<title>SharedModule</title>
<polygon fill="#8dd3c7" stroke="black" points="122.43,-84.8 119.43,-88.8 98.43,-88.8 95.43,-84.8 23.57,-84.8 23.57,-48.8 122.43,-48.8 122.43,-84.8"/>
<text text-anchor="middle" x="73" y="-62.6" font-family="Times,serif" font-size="14.00">SharedModule</text>
</g>
<!-- SharedModule&#45;&gt;FavouriteModule -->
<g id="edge6" class="edge">
<title>SharedModule&#45;&gt;FavouriteModule</title>
<path fill="none" stroke="black" d="M89.4,-84.82C89.4,-102.17 89.4,-125.8 89.4,-125.8 89.4,-125.8 225.3,-125.8 225.3,-125.8"/>
<polygon fill="black" stroke="black" points="225.3,-129.3 235.3,-125.8 225.3,-122.3 225.3,-129.3"/>
</g>
<!-- SharedModule&#45;&gt;FavouriteModule -->
<g id="edge7" class="edge">
<title>SharedModule&#45;&gt;FavouriteModule</title>
<path fill="none" stroke="black" d="M56.6,-85.08C56.6,-106.12 56.6,-137.8 56.6,-137.8 56.6,-137.8 225.32,-137.8 225.32,-137.8"/>
<polygon fill="black" stroke="black" points="225.32,-141.3 235.32,-137.8 225.32,-134.3 225.32,-141.3"/>
</g>
</g>
</svg>
