<?xml version="1.0" encoding="UTF-8" standalone="no"?>
<!DOCTYPE svg PUBLIC "-//W3C//DTD SVG 1.1//EN"
 "http://www.w3.org/Graphics/SVG/1.1/DTD/svg11.dtd">
<!-- Generated by graphviz version 5.0.0 (20220707.1540)
 -->
<!-- Title: dependencies Pages: 1 -->
<svg width="1173pt" height="247pt"
 viewBox="0.00 0.00 1173.00 246.80" xmlns="http://www.w3.org/2000/svg" xmlns:xlink="http://www.w3.org/1999/xlink">
<g id="graph0" class="graph" transform="scale(1 1) rotate(0) translate(4 242.8)">
<title>dependencies</title>
<polygon fill="white" stroke="transparent" points="-4,4 -4,-242.8 1169,-242.8 1169,4 -4,4"/>
<text text-anchor="middle" x="582.5" y="-8.2" font-family="sans-serif" font-size="14.00">dependencies</text>
<g id="clust1" class="cluster">
<title>cluster_AppModule</title>
<polygon fill="none" stroke="black" stroke-dasharray="1,5" points="8,-32.8 8,-230.8 1157,-230.8 1157,-32.8 8,-32.8"/>
</g>
<g id="clust2" class="cluster">
<title>cluster_AppModule_declarations</title>
<polygon fill="none" stroke="black" points="1027,-40.8 1027,-92.8 1149,-92.8 1149,-40.8 1027,-40.8"/>
</g>
<g id="clust4" class="cluster">
<title>cluster_AppModule_imports</title>
<polygon fill="none" stroke="black" points="16,-40.8 16,-92.8 1019,-92.8 1019,-40.8 16,-40.8"/>
</g>
<g id="clust6" class="cluster">
<title>cluster_AppModule_bootstrap</title>
<polygon fill="none" stroke="black" points="484,-170.8 484,-222.8 608,-222.8 608,-170.8 484,-170.8"/>
</g>
<!-- AppComponent -->
<g id="node1" class="node">
<title>AppComponent</title>
<polygon fill="#ffffb3" stroke="black" points="1140.94,-84.8 1035.06,-84.8 1035.06,-48.8 1140.94,-48.8 1140.94,-84.8"/>
<text text-anchor="middle" x="1088" y="-62.6" font-family="Times,serif" font-size="14.00">AppComponent</text>
</g>
<!-- AppModule -->
<g id="node2" class="node">
<title>AppModule</title>
<polygon fill="#8dd3c7" stroke="black" points="587.66,-149.8 584.66,-153.8 563.66,-153.8 560.66,-149.8 504.34,-149.8 504.34,-113.8 587.66,-113.8 587.66,-149.8"/>
<text text-anchor="middle" x="546" y="-127.6" font-family="Times,serif" font-size="14.00">AppModule</text>
</g>
<!-- AppComponent&#45;&gt;AppModule -->
<g id="edge1" class="edge">
<title>AppComponent&#45;&gt;AppModule</title>
<path fill="none" stroke="black" d="M1088,-84.81C1088,-107.29 1088,-142.8 1088,-142.8 1088,-142.8 598.08,-142.8 598.08,-142.8"/>
<polygon fill="black" stroke="black" points="598.08,-139.3 588.08,-142.8 598.08,-146.3 598.08,-139.3"/>
</g>
<!-- AppComponent  -->
<g id="node11" class="node">
<title>AppComponent </title>
<polygon fill="#80b1d3" stroke="black" points="600.44,-214.8 491.56,-214.8 491.56,-178.8 600.44,-178.8 600.44,-214.8"/>
<text text-anchor="middle" x="546" y="-192.6" font-family="Times,serif" font-size="14.00">AppComponent </text>
</g>
<!-- AppModule&#45;&gt;AppComponent  -->
<g id="edge10" class="edge">
<title>AppModule&#45;&gt;AppComponent </title>
<path fill="none" stroke="black" stroke-dasharray="1,5" d="M546,-149.91C546,-149.91 546,-168.79 546,-168.79"/>
<polygon fill="black" stroke="black" points="542.5,-168.79 546,-178.79 549.5,-168.79 542.5,-168.79"/>
</g>
<!-- AppRoutingModule -->
<g id="node3" class="node">
<title>AppRoutingModule</title>
<polygon fill="#8dd3c7" stroke="black" points="1011.28,-84.8 1008.28,-88.8 987.28,-88.8 984.28,-84.8 882.72,-84.8 882.72,-48.8 1011.28,-48.8 1011.28,-84.8"/>
<text text-anchor="middle" x="947" y="-62.6" font-family="Times,serif" font-size="14.00">AppRoutingModule</text>
</g>
<!-- AppRoutingModule&#45;&gt;AppModule -->
<g id="edge2" class="edge">
<title>AppRoutingModule&#45;&gt;AppModule</title>
<path fill="none" stroke="black" d="M947,-84.93C947,-105.37 947,-135.8 947,-135.8 947,-135.8 597.78,-135.8 597.78,-135.8"/>
<polygon fill="black" stroke="black" points="597.78,-132.3 587.78,-135.8 597.78,-139.3 597.78,-132.3"/>
</g>
<!-- AuthModule -->
<g id="node4" class="node">
<title>AuthModule</title>
<polygon fill="#8dd3c7" stroke="black" points="864.55,-84.8 861.55,-88.8 840.55,-88.8 837.55,-84.8 777.45,-84.8 777.45,-48.8 864.55,-48.8 864.55,-84.8"/>
<text text-anchor="middle" x="821" y="-62.6" font-family="Times,serif" font-size="14.00">AuthModule</text>
</g>
<!-- AuthModule&#45;&gt;AppModule -->
<g id="edge3" class="edge">
<title>AuthModule&#45;&gt;AppModule</title>
<path fill="none" stroke="black" d="M821,-85.07C821,-103.36 821,-128.8 821,-128.8 821,-128.8 597.77,-128.8 597.77,-128.8"/>
<polygon fill="black" stroke="black" points="597.77,-125.3 587.77,-128.8 597.77,-132.3 597.77,-125.3"/>
</g>
<!-- BouncyHouseModule -->
<g id="node5" class="node">
<title>BouncyHouseModule</title>
<polygon fill="#8dd3c7" stroke="black" points="759.38,-84.8 756.38,-88.8 735.38,-88.8 732.38,-84.8 620.62,-84.8 620.62,-48.8 759.38,-48.8 759.38,-84.8"/>
<text text-anchor="middle" x="690" y="-62.6" font-family="Times,serif" font-size="14.00">BouncyHouseModule</text>
</g>
<!-- BouncyHouseModule&#45;&gt;AppModule -->
<g id="edge4" class="edge">
<title>BouncyHouseModule&#45;&gt;AppModule</title>
<path fill="none" stroke="black" d="M690,-84.81C690,-100.85 690,-121.8 690,-121.8 690,-121.8 598.04,-121.8 598.04,-121.8"/>
<polygon fill="black" stroke="black" points="598.04,-118.3 588.04,-121.8 598.04,-125.3 598.04,-118.3"/>
</g>
<!-- FavouriteModule -->
<g id="node6" class="node">
<title>FavouriteModule</title>
<polygon fill="#8dd3c7" stroke="black" points="602.71,-84.8 599.71,-88.8 578.71,-88.8 575.71,-84.8 489.29,-84.8 489.29,-48.8 602.71,-48.8 602.71,-84.8"/>
<text text-anchor="middle" x="546" y="-62.6" font-family="Times,serif" font-size="14.00">FavouriteModule</text>
</g>
<!-- FavouriteModule&#45;&gt;AppModule -->
<g id="edge5" class="edge">
<title>FavouriteModule&#45;&gt;AppModule</title>
<path fill="none" stroke="black" d="M546,-84.91C546,-84.91 546,-103.79 546,-103.79"/>
<polygon fill="black" stroke="black" points="542.5,-103.79 546,-113.79 549.5,-103.79 542.5,-103.79"/>
</g>
<!-- HomeModule -->
<g id="node7" class="node">
<title>HomeModule</title>
<polygon fill="#8dd3c7" stroke="black" points="471.77,-84.8 468.77,-88.8 447.77,-88.8 444.77,-84.8 378.23,-84.8 378.23,-48.8 471.77,-48.8 471.77,-84.8"/>
<text text-anchor="middle" x="425" y="-62.6" font-family="Times,serif" font-size="14.00">HomeModule</text>
</g>
<!-- HomeModule&#45;&gt;AppModule -->
<g id="edge6" class="edge">
<title>HomeModule&#45;&gt;AppModule</title>
<path fill="none" stroke="black" d="M425,-84.81C425,-100.85 425,-121.8 425,-121.8 425,-121.8 494.02,-121.8 494.02,-121.8"/>
<polygon fill="black" stroke="black" points="494.02,-125.3 504.02,-121.8 494.02,-118.3 494.02,-125.3"/>
</g>
<!-- ProfileModule -->
<g id="node8" class="node">
<title>ProfileModule</title>
<polygon fill="#8dd3c7" stroke="black" points="359.66,-84.8 356.66,-88.8 335.66,-88.8 332.66,-84.8 262.34,-84.8 262.34,-48.8 359.66,-48.8 359.66,-84.8"/>
<text text-anchor="middle" x="311" y="-62.6" font-family="Times,serif" font-size="14.00">ProfileModule</text>
</g>
<!-- ProfileModule&#45;&gt;AppModule -->
<g id="edge7" class="edge">
<title>ProfileModule&#45;&gt;AppModule</title>
<path fill="none" stroke="black" d="M311,-85.07C311,-103.36 311,-128.8 311,-128.8 311,-128.8 494.26,-128.8 494.26,-128.8"/>
<polygon fill="black" stroke="black" points="494.26,-132.3 504.26,-128.8 494.26,-125.3 494.26,-132.3"/>
</g>
<!-- RentingModule -->
<g id="node9" class="node">
<title>RentingModule</title>
<polygon fill="#8dd3c7" stroke="black" points="243.88,-84.8 240.88,-88.8 219.88,-88.8 216.88,-84.8 140.12,-84.8 140.12,-48.8 243.88,-48.8 243.88,-84.8"/>
<text text-anchor="middle" x="192" y="-62.6" font-family="Times,serif" font-size="14.00">RentingModule</text>
</g>
<!-- RentingModule&#45;&gt;AppModule -->
<g id="edge8" class="edge">
<title>RentingModule&#45;&gt;AppModule</title>
<path fill="none" stroke="black" d="M192,-84.93C192,-105.37 192,-135.8 192,-135.8 192,-135.8 494,-135.8 494,-135.8"/>
<polygon fill="black" stroke="black" points="494,-139.3 504,-135.8 494,-132.3 494,-139.3"/>
</g>
<!-- SharedModule -->
<g id="node10" class="node">
<title>SharedModule</title>
<polygon fill="#8dd3c7" stroke="black" points="122.43,-84.8 119.43,-88.8 98.43,-88.8 95.43,-84.8 23.57,-84.8 23.57,-48.8 122.43,-48.8 122.43,-84.8"/>
<text text-anchor="middle" x="73" y="-62.6" font-family="Times,serif" font-size="14.00">SharedModule</text>
</g>
<!-- SharedModule&#45;&gt;AppModule -->
<g id="edge9" class="edge">
<title>SharedModule&#45;&gt;AppModule</title>
<path fill="none" stroke="black" d="M73,-84.81C73,-107.29 73,-142.8 73,-142.8 73,-142.8 494.02,-142.8 494.02,-142.8"/>
<polygon fill="black" stroke="black" points="494.02,-146.3 504.02,-142.8 494.02,-139.3 494.02,-146.3"/>
</g>
</g>
</svg>
