<?xml version="1.0" encoding="UTF-8" standalone="no"?>
<!DOCTYPE svg PUBLIC "-//W3C//DTD SVG 1.1//EN"
 "http://www.w3.org/Graphics/SVG/1.1/DTD/svg11.dtd">
<!-- Generated by graphviz version 5.0.0 (20220707.1540)
 -->
<!-- Title: dependencies Pages: 1 -->
<svg width="254pt" height="174pt"
 viewBox="0.00 0.00 254.00 173.80" xmlns="http://www.w3.org/2000/svg" xmlns:xlink="http://www.w3.org/1999/xlink">
<g id="graph0" class="graph" transform="scale(1 1) rotate(0) translate(4 169.8)">
<title>dependencies</title>
<polygon fill="white" stroke="transparent" points="-4,4 -4,-169.8 250,-169.8 250,4 -4,4"/>
<text text-anchor="middle" x="123" y="-8.2" font-family="sans-serif" font-size="14.00">dependencies</text>
<g id="clust1" class="cluster">
<title>cluster_AuthModule</title>
<polygon fill="none" stroke="black" stroke-dasharray="1,5" points="8,-32.8 8,-157.8 238,-157.8 238,-32.8 8,-32.8"/>
</g>
<g id="clust2" class="cluster">
<title>cluster_AuthModule_declarations</title>
<polygon fill="none" stroke="black" points="138,-40.8 138,-92.8 230,-92.8 230,-40.8 138,-40.8"/>
</g>
<g id="clust4" class="cluster">
<title>cluster_AuthModule_imports</title>
<polygon fill="none" stroke="black" points="16,-40.8 16,-92.8 130,-92.8 130,-40.8 16,-40.8"/>
</g>
<!-- LoginPage -->
<g id="node1" class="node">
<title>LoginPage</title>
<polygon fill="#ffffb3" stroke="black" points="222.16,-84.8 145.84,-84.8 145.84,-48.8 222.16,-48.8 222.16,-84.8"/>
<text text-anchor="middle" x="184" y="-62.6" font-family="Times,serif" font-size="14.00">LoginPage</text>
</g>
<!-- AuthModule -->
<g id="node2" class="node">
<title>AuthModule</title>
<polygon fill="#8dd3c7" stroke="black" points="171.55,-149.8 168.55,-153.8 147.55,-153.8 144.55,-149.8 84.45,-149.8 84.45,-113.8 171.55,-113.8 171.55,-149.8"/>
<text text-anchor="middle" x="128" y="-127.6" font-family="Times,serif" font-size="14.00">AuthModule</text>
</g>
<!-- LoginPage&#45;&gt;AuthModule -->
<g id="edge1" class="edge">
<title>LoginPage&#45;&gt;AuthModule</title>
<path fill="none" stroke="black" d="M158.72,-84.91C158.72,-84.91 158.72,-103.79 158.72,-103.79"/>
<polygon fill="black" stroke="black" points="155.22,-103.79 158.72,-113.79 162.22,-103.79 155.22,-103.79"/>
</g>
<!-- SharedModule -->
<g id="node3" class="node">
<title>SharedModule</title>
<polygon fill="#8dd3c7" stroke="black" points="122.43,-84.8 119.43,-88.8 98.43,-88.8 95.43,-84.8 23.57,-84.8 23.57,-48.8 122.43,-48.8 122.43,-84.8"/>
<text text-anchor="middle" x="73" y="-62.6" font-family="Times,serif" font-size="14.00">SharedModule</text>
</g>
<!-- SharedModule&#45;&gt;AuthModule -->
<g id="edge2" class="edge">
<title>SharedModule&#45;&gt;AuthModule</title>
<path fill="none" stroke="black" d="M103.22,-84.91C103.22,-84.91 103.22,-103.79 103.22,-103.79"/>
<polygon fill="black" stroke="black" points="99.72,-103.79 103.22,-113.79 106.72,-103.79 99.72,-103.79"/>
</g>
</g>
</svg>
