<?xml version="1.0" encoding="UTF-8" standalone="no"?>
<!DOCTYPE svg PUBLIC "-//W3C//DTD SVG 1.1//EN"
 "http://www.w3.org/Graphics/SVG/1.1/DTD/svg11.dtd">
<!-- Generated by graphviz version 5.0.0 (20220707.1540)
 -->
<!-- Title: dependencies Pages: 1 -->
<svg width="914pt" height="247pt"
 viewBox="0.00 0.00 914.00 246.80" xmlns="http://www.w3.org/2000/svg" xmlns:xlink="http://www.w3.org/1999/xlink">
<g id="graph0" class="graph" transform="scale(1 1) rotate(0) translate(4 242.8)">
<title>dependencies</title>
<polygon fill="white" stroke="transparent" points="-4,4 -4,-242.8 910,-242.8 910,4 -4,4"/>
<text text-anchor="middle" x="453" y="-8.2" font-family="sans-serif" font-size="14.00">dependencies</text>
<g id="clust1" class="cluster">
<title>cluster_AppModule</title>
<polygon fill="none" stroke="black" stroke-dasharray="1,5" points="8,-32.8 8,-230.8 898,-230.8 898,-32.8 8,-32.8"/>
</g>
<g id="clust2" class="cluster">
<title>cluster_AppModule_declarations</title>
<polygon fill="none" stroke="black" points="768,-40.8 768,-92.8 890,-92.8 890,-40.8 768,-40.8"/>
</g>
<g id="clust4" class="cluster">
<title>cluster_AppModule_imports</title>
<polygon fill="none" stroke="black" points="16,-40.8 16,-92.8 760,-92.8 760,-40.8 16,-40.8"/>
</g>
<g id="clust6" class="cluster">
<title>cluster_AppModule_bootstrap</title>
<polygon fill="none" stroke="black" points="369,-170.8 369,-222.8 493,-222.8 493,-170.8 369,-170.8"/>
</g>
<!-- AppComponent -->
<g id="node1" class="node">
<title>AppComponent</title>
<polygon fill="#ffffb3" stroke="black" points="881.94,-84.8 776.06,-84.8 776.06,-48.8 881.94,-48.8 881.94,-84.8"/>
<text text-anchor="middle" x="829" y="-62.6" font-family="Times,serif" font-size="14.00">AppComponent</text>
</g>
<!-- AppModule -->
<g id="node2" class="node">
<title>AppModule</title>
<polygon fill="#8dd3c7" stroke="black" points="472.66,-149.8 469.66,-153.8 448.66,-153.8 445.66,-149.8 389.34,-149.8 389.34,-113.8 472.66,-113.8 472.66,-149.8"/>
<text text-anchor="middle" x="431" y="-127.6" font-family="Times,serif" font-size="14.00">AppModule</text>
</g>
<!-- AppComponent&#45;&gt;AppModule -->
<g id="edge1" class="edge">
<title>AppComponent&#45;&gt;AppModule</title>
<path fill="none" stroke="black" d="M829,-85.09C829,-107.01 829,-140.8 829,-140.8 829,-140.8 482.84,-140.8 482.84,-140.8"/>
<polygon fill="black" stroke="black" points="482.84,-137.3 472.84,-140.8 482.84,-144.3 482.84,-137.3"/>
</g>
<!-- AppComponent  -->
<g id="node9" class="node">
<title>AppComponent </title>
<polygon fill="#80b1d3" stroke="black" points="485.44,-214.8 376.56,-214.8 376.56,-178.8 485.44,-178.8 485.44,-214.8"/>
<text text-anchor="middle" x="431" y="-192.6" font-family="Times,serif" font-size="14.00">AppComponent </text>
</g>
<!-- AppModule&#45;&gt;AppComponent  -->
<g id="edge8" class="edge">
<title>AppModule&#45;&gt;AppComponent </title>
<path fill="none" stroke="black" stroke-dasharray="1,5" d="M431,-149.91C431,-149.91 431,-168.79 431,-168.79"/>
<polygon fill="black" stroke="black" points="427.5,-168.79 431,-178.79 434.5,-168.79 427.5,-168.79"/>
</g>
<!-- AppRoutingModule -->
<g id="node3" class="node">
<title>AppRoutingModule</title>
<polygon fill="#8dd3c7" stroke="black" points="752.28,-84.8 749.28,-88.8 728.28,-88.8 725.28,-84.8 623.72,-84.8 623.72,-48.8 752.28,-48.8 752.28,-84.8"/>
<text text-anchor="middle" x="688" y="-62.6" font-family="Times,serif" font-size="14.00">AppRoutingModule</text>
</g>
<!-- AppRoutingModule&#45;&gt;AppModule -->
<g id="edge2" class="edge">
<title>AppRoutingModule&#45;&gt;AppModule</title>
<path fill="none" stroke="black" d="M688,-84.91C688,-104.14 688,-131.8 688,-131.8 688,-131.8 482.86,-131.8 482.86,-131.8"/>
<polygon fill="black" stroke="black" points="482.86,-128.3 472.86,-131.8 482.86,-135.3 482.86,-128.3"/>
</g>
<!-- AuthModule -->
<g id="node4" class="node">
<title>AuthModule</title>
<polygon fill="#8dd3c7" stroke="black" points="605.55,-84.8 602.55,-88.8 581.55,-88.8 578.55,-84.8 518.45,-84.8 518.45,-48.8 605.55,-48.8 605.55,-84.8"/>
<text text-anchor="middle" x="562" y="-62.6" font-family="Times,serif" font-size="14.00">AuthModule</text>
</g>
<!-- AuthModule&#45;&gt;AppModule -->
<g id="edge3" class="edge">
<title>AuthModule&#45;&gt;AppModule</title>
<path fill="none" stroke="black" d="M562,-84.83C562,-101.2 562,-122.8 562,-122.8 562,-122.8 482.81,-122.8 482.81,-122.8"/>
<polygon fill="black" stroke="black" points="482.81,-119.3 472.81,-122.8 482.81,-126.3 482.81,-119.3"/>
</g>
<!-- BouncyHouseModule -->
<g id="node5" class="node">
<title>BouncyHouseModule</title>
<polygon fill="#8dd3c7" stroke="black" points="500.38,-84.8 497.38,-88.8 476.38,-88.8 473.38,-84.8 361.62,-84.8 361.62,-48.8 500.38,-48.8 500.38,-84.8"/>
<text text-anchor="middle" x="431" y="-62.6" font-family="Times,serif" font-size="14.00">BouncyHouseModule</text>
</g>
<!-- BouncyHouseModule&#45;&gt;AppModule -->
<g id="edge4" class="edge">
<title>BouncyHouseModule&#45;&gt;AppModule</title>
<path fill="none" stroke="black" d="M431,-84.91C431,-84.91 431,-103.79 431,-103.79"/>
<polygon fill="black" stroke="black" points="427.5,-103.79 431,-113.79 434.5,-103.79 427.5,-103.79"/>
</g>
<!-- RentedModule -->
<g id="node6" class="node">
<title>RentedModule</title>
<polygon fill="#8dd3c7" stroke="black" points="343.71,-84.8 340.71,-88.8 319.71,-88.8 316.71,-84.8 244.29,-84.8 244.29,-48.8 343.71,-48.8 343.71,-84.8"/>
<text text-anchor="middle" x="294" y="-62.6" font-family="Times,serif" font-size="14.00">RentedModule</text>
</g>
<!-- RentedModule&#45;&gt;AppModule -->
<g id="edge5" class="edge">
<title>RentedModule&#45;&gt;AppModule</title>
<path fill="none" stroke="black" d="M294,-84.83C294,-101.2 294,-122.8 294,-122.8 294,-122.8 379.15,-122.8 379.15,-122.8"/>
<polygon fill="black" stroke="black" points="379.15,-126.3 389.15,-122.8 379.15,-119.3 379.15,-126.3"/>
</g>
<!-- SharedModule -->
<g id="node7" class="node">
<title>SharedModule</title>
<polygon fill="#8dd3c7" stroke="black" points="226.43,-84.8 223.43,-88.8 202.43,-88.8 199.43,-84.8 127.57,-84.8 127.57,-48.8 226.43,-48.8 226.43,-84.8"/>
<text text-anchor="middle" x="177" y="-62.6" font-family="Times,serif" font-size="14.00">SharedModule</text>
</g>
<!-- SharedModule&#45;&gt;AppModule -->
<g id="edge6" class="edge">
<title>SharedModule&#45;&gt;AppModule</title>
<path fill="none" stroke="black" d="M177,-84.91C177,-104.14 177,-131.8 177,-131.8 177,-131.8 379.06,-131.8 379.06,-131.8"/>
<polygon fill="black" stroke="black" points="379.06,-135.3 389.06,-131.8 379.06,-128.3 379.06,-135.3"/>
</g>
<!-- UserModule -->
<g id="node8" class="node">
<title>UserModule</title>
<polygon fill="#8dd3c7" stroke="black" points="109.99,-84.8 106.99,-88.8 85.99,-88.8 82.99,-84.8 24.01,-84.8 24.01,-48.8 109.99,-48.8 109.99,-84.8"/>
<text text-anchor="middle" x="67" y="-62.6" font-family="Times,serif" font-size="14.00">UserModule</text>
</g>
<!-- UserModule&#45;&gt;AppModule -->
<g id="edge7" class="edge">
<title>UserModule&#45;&gt;AppModule</title>
<path fill="none" stroke="black" d="M67,-85.09C67,-107.01 67,-140.8 67,-140.8 67,-140.8 379.24,-140.8 379.24,-140.8"/>
<polygon fill="black" stroke="black" points="379.24,-144.3 389.24,-140.8 379.24,-137.3 379.24,-144.3"/>
</g>
</g>
</svg>
