<?xml version="1.0" encoding="UTF-8" standalone="no"?>
<!DOCTYPE svg PUBLIC "-//W3C//DTD SVG 1.1//EN"
 "http://www.w3.org/Graphics/SVG/1.1/DTD/svg11.dtd">
<!-- Generated by graphviz version 5.0.0 (20220707.1540)
 -->
<!-- Title: dependencies Pages: 1 -->
<svg width="914pt" height="247pt"
 viewBox="0.00 0.00 914.00 246.80" xmlns="http://www.w3.org/2000/svg" xmlns:xlink="http://www.w3.org/1999/xlink">
<g id="graph0" class="graph" transform="scale(1 1) rotate(0) translate(4 242.8)">
<title>dependencies</title>
<polygon fill="white" stroke="transparent" points="-4,4 -4,-242.8 910,-242.8 910,4 -4,4"/>
<text text-anchor="middle" x="453" y="-8.2" font-family="sans-serif" font-size="14.00">dependencies</text>
<g id="clust1" class="cluster">
<title>cluster_AppModule</title>
<polygon fill="none" stroke="black" stroke-dasharray="1,5" points="8,-32.8 8,-230.8 898,-230.8 898,-32.8 8,-32.8"/>
</g>
<g id="clust4" class="cluster">
<title>cluster_AppModule_imports</title>
<polygon fill="none" stroke="black" points="146,-40.8 146,-92.8 890,-92.8 890,-40.8 146,-40.8"/>
</g>
<g id="clust6" class="cluster">
<title>cluster_AppModule_bootstrap</title>
<polygon fill="none" stroke="black" points="362,-170.8 362,-222.8 486,-222.8 486,-170.8 362,-170.8"/>
</g>
<g id="clust2" class="cluster">
<title>cluster_AppModule_declarations</title>
<polygon fill="none" stroke="black" points="16,-40.8 16,-92.8 138,-92.8 138,-40.8 16,-40.8"/>
</g>
<!-- AppComponent -->
<g id="node1" class="node">
<title>AppComponent</title>
<polygon fill="#ffffb3" stroke="black" points="129.94,-84.8 24.06,-84.8 24.06,-48.8 129.94,-48.8 129.94,-84.8"/>
<text text-anchor="middle" x="77" y="-62.6" font-family="Times,serif" font-size="14.00">AppComponent</text>
</g>
<!-- AppModule -->
<g id="node2" class="node">
<title>AppModule</title>
<polygon fill="#8dd3c7" stroke="black" points="465.66,-149.8 462.66,-153.8 441.66,-153.8 438.66,-149.8 382.34,-149.8 382.34,-113.8 465.66,-113.8 465.66,-149.8"/>
<text text-anchor="middle" x="424" y="-127.6" font-family="Times,serif" font-size="14.00">AppModule</text>
</g>
<!-- AppComponent&#45;&gt;AppModule -->
<g id="edge1" class="edge">
<title>AppComponent&#45;&gt;AppModule</title>
<path fill="none" stroke="black" d="M77,-85.09C77,-107.01 77,-140.8 77,-140.8 77,-140.8 372.14,-140.8 372.14,-140.8"/>
<polygon fill="black" stroke="black" points="372.14,-144.3 382.14,-140.8 372.14,-137.3 372.14,-144.3"/>
</g>
<!-- AppComponent  -->
<g id="node9" class="node">
<title>AppComponent </title>
<polygon fill="#80b1d3" stroke="black" points="478.44,-214.8 369.56,-214.8 369.56,-178.8 478.44,-178.8 478.44,-214.8"/>
<text text-anchor="middle" x="424" y="-192.6" font-family="Times,serif" font-size="14.00">AppComponent </text>
</g>
<!-- AppModule&#45;&gt;AppComponent  -->
<g id="edge8" class="edge">
<title>AppModule&#45;&gt;AppComponent </title>
<path fill="none" stroke="black" stroke-dasharray="1,5" d="M424,-149.91C424,-149.91 424,-168.79 424,-168.79"/>
<polygon fill="black" stroke="black" points="420.5,-168.79 424,-178.79 427.5,-168.79 420.5,-168.79"/>
</g>
<!-- AppRoutingModule -->
<g id="node3" class="node">
<title>AppRoutingModule</title>
<polygon fill="#8dd3c7" stroke="black" points="882.28,-84.8 879.28,-88.8 858.28,-88.8 855.28,-84.8 753.72,-84.8 753.72,-48.8 882.28,-48.8 882.28,-84.8"/>
<text text-anchor="middle" x="818" y="-62.6" font-family="Times,serif" font-size="14.00">AppRoutingModule</text>
</g>
<!-- AppRoutingModule&#45;&gt;AppModule -->
<g id="edge2" class="edge">
<title>AppRoutingModule&#45;&gt;AppModule</title>
<path fill="none" stroke="black" d="M818,-85.09C818,-107.01 818,-140.8 818,-140.8 818,-140.8 475.79,-140.8 475.79,-140.8"/>
<polygon fill="black" stroke="black" points="475.79,-137.3 465.79,-140.8 475.79,-144.3 475.79,-137.3"/>
</g>
<!-- AuthModule -->
<g id="node4" class="node">
<title>AuthModule</title>
<polygon fill="#8dd3c7" stroke="black" points="735.55,-84.8 732.55,-88.8 711.55,-88.8 708.55,-84.8 648.45,-84.8 648.45,-48.8 735.55,-48.8 735.55,-84.8"/>
<text text-anchor="middle" x="692" y="-62.6" font-family="Times,serif" font-size="14.00">AuthModule</text>
</g>
<!-- AuthModule&#45;&gt;AppModule -->
<g id="edge3" class="edge">
<title>AuthModule&#45;&gt;AppModule</title>
<path fill="none" stroke="black" d="M692,-84.91C692,-104.14 692,-131.8 692,-131.8 692,-131.8 475.88,-131.8 475.88,-131.8"/>
<polygon fill="black" stroke="black" points="475.88,-128.3 465.88,-131.8 475.87,-135.3 475.88,-128.3"/>
</g>
<!-- BouncyHouseModule -->
<g id="node5" class="node">
<title>BouncyHouseModule</title>
<polygon fill="#8dd3c7" stroke="black" points="630.38,-84.8 627.38,-88.8 606.38,-88.8 603.38,-84.8 491.62,-84.8 491.62,-48.8 630.38,-48.8 630.38,-84.8"/>
<text text-anchor="middle" x="561" y="-62.6" font-family="Times,serif" font-size="14.00">BouncyHouseModule</text>
</g>
<!-- BouncyHouseModule&#45;&gt;AppModule -->
<g id="edge4" class="edge">
<title>BouncyHouseModule&#45;&gt;AppModule</title>
<path fill="none" stroke="black" d="M561,-84.83C561,-101.2 561,-122.8 561,-122.8 561,-122.8 475.85,-122.8 475.85,-122.8"/>
<polygon fill="black" stroke="black" points="475.85,-119.3 465.85,-122.8 475.85,-126.3 475.85,-119.3"/>
</g>
<!-- RentedModule -->
<g id="node6" class="node">
<title>RentedModule</title>
<polygon fill="#8dd3c7" stroke="black" points="473.71,-84.8 470.71,-88.8 449.71,-88.8 446.71,-84.8 374.29,-84.8 374.29,-48.8 473.71,-48.8 473.71,-84.8"/>
<text text-anchor="middle" x="424" y="-62.6" font-family="Times,serif" font-size="14.00">RentedModule</text>
</g>
<!-- RentedModule&#45;&gt;AppModule -->
<g id="edge5" class="edge">
<title>RentedModule&#45;&gt;AppModule</title>
<path fill="none" stroke="black" d="M424,-84.91C424,-84.91 424,-103.79 424,-103.79"/>
<polygon fill="black" stroke="black" points="420.5,-103.79 424,-113.79 427.5,-103.79 420.5,-103.79"/>
</g>
<!-- SharedModule -->
<g id="node7" class="node">
<title>SharedModule</title>
<polygon fill="#8dd3c7" stroke="black" points="356.43,-84.8 353.43,-88.8 332.43,-88.8 329.43,-84.8 257.57,-84.8 257.57,-48.8 356.43,-48.8 356.43,-84.8"/>
<text text-anchor="middle" x="307" y="-62.6" font-family="Times,serif" font-size="14.00">SharedModule</text>
</g>
<!-- SharedModule&#45;&gt;AppModule -->
<g id="edge6" class="edge">
<title>SharedModule&#45;&gt;AppModule</title>
<path fill="none" stroke="black" d="M307,-84.83C307,-101.2 307,-122.8 307,-122.8 307,-122.8 372.09,-122.8 372.09,-122.8"/>
<polygon fill="black" stroke="black" points="372.09,-126.3 382.09,-122.8 372.09,-119.3 372.09,-126.3"/>
</g>
<!-- UserModule -->
<g id="node8" class="node">
<title>UserModule</title>
<polygon fill="#8dd3c7" stroke="black" points="239.99,-84.8 236.99,-88.8 215.99,-88.8 212.99,-84.8 154.01,-84.8 154.01,-48.8 239.99,-48.8 239.99,-84.8"/>
<text text-anchor="middle" x="197" y="-62.6" font-family="Times,serif" font-size="14.00">UserModule</text>
</g>
<!-- UserModule&#45;&gt;AppModule -->
<g id="edge7" class="edge">
<title>UserModule&#45;&gt;AppModule</title>
<path fill="none" stroke="black" d="M197,-84.91C197,-104.14 197,-131.8 197,-131.8 197,-131.8 372.1,-131.8 372.1,-131.8"/>
<polygon fill="black" stroke="black" points="372.1,-135.3 382.1,-131.8 372.1,-128.3 372.1,-135.3"/>
</g>
</g>
</svg>
